<?xml version="1.0" encoding="UTF-8"?>
<!DOCTYPE svg PUBLIC "-//W3C//DTD SVG 1.1//EN" "http://www.w3.org/Graphics/SVG/1.1/DTD/svg11.dtd">
<svg xmlns="http://www.w3.org/2000/svg" version="1.1" width="200px" height="200px" style="shape-rendering:geometricPrecision; text-rendering:geometricPrecision; image-rendering:optimizeQuality; fill-rule:evenodd; clip-rule:evenodd" xmlns:xlink="http://www.w3.org/1999/xlink">
<g><path style="opacity:1" fill="#fcfdfd" d="M -0.5,-0.5 C 66.1667,-0.5 132.833,-0.5 199.5,-0.5C 199.5,66.1667 199.5,132.833 199.5,199.5C 132.833,199.5 66.1667,199.5 -0.5,199.5C -0.5,132.833 -0.5,66.1667 -0.5,-0.5 Z"/></g>
<g><path style="opacity:1" fill="#1ea99d" d="M 85.5,17.5 C 96.3332,16.1737 101.5,20.8404 101,31.5C 95.3454,42.0983 88.3454,43.0983 80,34.5C 77.1496,27.2192 78.983,21.5525 85.5,17.5 Z"/></g>
<g><path style="opacity:1" fill="#26a89c" d="M 102.5,100.5 C 101.672,106.319 101.172,112.319 101,118.5C 100.751,119.624 100.251,120.624 99.5,121.5C 98.7644,114.583 97.4311,107.916 95.5,101.5C 95.9396,97.8215 95.273,94.4882 93.5,91.5C 94.0967,91.2648 94.4301,90.7648 94.5,90C 91.3035,78.7728 86.1368,68.6061 79,59.5C 73,53.5 67,47.5 61,41.5C 60.5172,40.552 60.3505,39.552 60.5,38.5C 63.2706,38.4207 65.9373,38.9207 68.5,40C 79.4562,48.2918 88.2896,58.4585 95,70.5C 97.26,66.4753 98.76,62.1419 99.5,57.5C 103.421,48.1263 109.755,40.9596 118.5,36C 120.473,35.5045 122.473,35.3379 124.5,35.5C 124.66,37.1992 124.494,38.8659 124,40.5C 117.588,44.2981 112.254,49.2981 108,55.5C 104.411,62.6032 101.411,69.9366 99,77.5C 100.943,84.9694 102.11,92.6361 102.5,100.5 Z"/></g>
<g><path style="opacity:1" fill="#1a4e7f" d="M 93.5,91.5 C 95.273,94.4882 95.9396,97.8215 95.5,101.5C 96.4717,107.997 96.4717,114.33 95.5,120.5C 89.016,112.516 82.016,105.016 74.5,98C 67.0565,91.2962 58.3899,88.6296 48.5,90C 35.1066,98.1797 31.2733,109.68 37,124.5C 45.4551,144.643 59.6218,150.143 79.5,141C 85.6806,136.319 91.0139,130.819 95.5,124.5C 95.1437,127.564 95.9771,130.231 98,132.5C 102.028,122.285 103.528,111.619 102.5,100.5C 106.259,90.4919 111.926,81.6585 119.5,74C 133.237,65.6832 147.237,65.3499 161.5,73C 178.3,87.9744 182.8,106.141 175,127.5C 167.22,145.81 153.387,153.977 133.5,152C 120.737,147.242 110.237,139.409 102,128.5C 93.0527,154.054 75.2194,164.887 48.5,161C 34.6129,155.101 26.7796,144.601 25,129.5C 20.3785,107.65 27.5452,91.1503 46.5,80C 64.6264,73.6511 80.2931,77.4844 93.5,91.5 Z"/></g>
<g><path style="opacity:1" fill="#1c8f92" d="M 102.5,100.5 C 103.528,111.619 102.028,122.285 98,132.5C 95.9771,130.231 95.1437,127.564 95.5,124.5C 95.5,123.167 95.5,121.833 95.5,120.5C 96.4717,114.33 96.4717,107.997 95.5,101.5C 97.4311,107.916 98.7644,114.583 99.5,121.5C 100.251,120.624 100.751,119.624 101,118.5C 101.172,112.319 101.672,106.319 102.5,100.5 Z"/></g>
<g><path style="opacity:1" fill="#fbfcfc" d="M 95.5,120.5 C 95.5,121.833 95.5,123.167 95.5,124.5C 91.0139,130.819 85.6806,136.319 79.5,141C 59.6218,150.143 45.4551,144.643 37,124.5C 31.2733,109.68 35.1066,98.1797 48.5,90C 58.3899,88.6296 67.0565,91.2962 74.5,98C 82.016,105.016 89.016,112.516 95.5,120.5 Z"/></g>
<g><path style="opacity:1" fill="#fbfdfc" d="M 134.5,83.5 C 151.904,83.2858 162.737,91.6192 167,108.5C 168.57,117.075 167.237,125.075 163,132.5C 154.814,140.43 145.648,141.596 135.5,136C 125.333,128.5 116.5,119.667 109,109.5C 112.223,95.7763 120.723,87.1097 134.5,83.5 Z"/></g>
<g><path style="opacity:1" fill="#ebebeb" d="M 81.5,172.5 C 80.596,173.209 80.2627,174.209 80.5,175.5C 79.1667,175.5 77.8333,175.5 76.5,175.5C 76.719,174.325 76.3857,173.325 75.5,172.5C 74.5344,174.396 74.2011,176.396 74.5,178.5C 74.1667,178.5 73.8333,178.5 73.5,178.5C 73.5654,178.062 73.3988,177.728 73,177.5C 69.6485,180.041 67.8152,179.041 67.5,174.5C 66.2801,176.05 66.2801,177.716 67.5,179.5C 66.7784,179.918 66.2784,180.584 66,181.5C 65.6012,181.272 65.4346,180.938 65.5,180.5C 64.0813,179.549 62.4147,179.216 60.5,179.5C 60.5,178.5 60.5,177.5 60.5,176.5C 66.3239,176.653 66.6572,175.987 61.5,174.5C 62.7287,173.719 64.062,173.219 65.5,173C 63.2884,172.211 61.2884,172.378 59.5,173.5C 59.1667,173.5 58.8333,173.5 58.5,173.5C 56.5,172.167 54.5,172.167 52.5,173.5C 51.1266,173.657 49.7932,173.49 48.5,173C 48.8333,172.667 49.1667,172.333 49.5,172C 48.3333,170.167 46.8333,168.667 45,167.5C 44.586,167.957 44.086,168.291 43.5,168.5C 39.4363,167.92 35.4363,167.087 31.5,166C 31.1667,165.667 30.8333,165.333 30.5,165C 33.7577,164.788 36.9243,164.288 40,163.5C 55.888,163.472 72.0546,163.638 88.5,164C 89.8333,164.333 91.1667,164.667 92.5,165C 89.1377,166.915 85.471,167.915 81.5,168C 81.4382,169.605 81.4382,171.105 81.5,172.5 Z"/></g>
<g><path style="opacity:1" fill="#3e4244" d="M 67.5,174.5 C 67.7911,173.351 68.6244,172.684 70,172.5C 70.8333,172.667 71.6667,172.833 72.5,173C 70.7525,173.352 69.0858,173.852 67.5,174.5 Z"/></g>
<g><path style="opacity:1" fill="#3a3a3a" d="M 94.5,173.5 C 95.0968,172.861 95.9302,172.528 97,172.5C 98.3756,172.684 99.2089,173.351 99.5,174.5C 97.9582,173.699 96.2915,173.366 94.5,173.5 Z"/></g>
<g><path style="opacity:1" fill="#efefef" d="M 94.5,173.5 C 96.2915,173.366 97.9582,173.699 99.5,174.5C 99.3713,176.216 99.038,177.883 98.5,179.5C 94.9319,179.241 93.5985,177.241 94.5,173.5 Z"/></g>
<g><path style="opacity:1" fill="#2e2e2e" d="M 152.5,172.5 C 154.977,172.051 156.977,172.717 158.5,174.5C 156.995,177.131 156.329,176.797 156.5,173.5C 155.5,173.5 154.5,173.5 153.5,173.5C 153.663,175.857 153.497,178.19 153,180.5C 152.503,177.854 152.336,175.187 152.5,172.5 Z"/></g>
<g><path style="opacity:1" fill="#474747" d="M 7.5,172.5 C 9.45086,173.716 10.9509,175.382 12,177.5C 12.3333,175.833 12.6667,174.167 13,172.5C 14.1592,180.796 12.8259,181.796 9,175.5C 8.50999,176.793 8.34332,178.127 8.5,179.5C 7.53178,177.393 7.19845,175.059 7.5,172.5 Z"/></g>
<g><path style="opacity:1" fill="#555555" d="M 23.5,175.5 C 21.9153,174.998 21.4153,173.998 22,172.5C 23.0386,173.244 23.5386,174.244 23.5,175.5 Z"/></g>
<g><path style="opacity:1" fill="#777777" d="M 30.5,179.5 C 28.87,177.974 28.0367,175.974 28,173.5C 27.2917,174.381 26.4584,175.047 25.5,175.5C 26.0483,172.916 27.715,171.916 30.5,172.5C 30.5,174.833 30.5,177.167 30.5,179.5 Z"/></g>
<g><path style="opacity:1" fill="#4a4a4a" d="M 40.5,178.5 C 40.5652,176.304 41.2319,174.304 42.5,172.5C 42.8333,172.667 43.1667,172.833 43.5,173C 42.7709,175.058 41.7709,176.891 40.5,178.5 Z"/></g>
<g><path style="opacity:1" fill="#6a6a6a" d="M 109.5,179.5 C 108.007,178.688 107.34,177.355 107.5,175.5C 107.833,174.5 108.167,173.5 108.5,172.5C 109.474,174.743 109.808,177.076 109.5,179.5 Z"/></g>
<g><path style="opacity:1" fill="#363636" d="M 15.5,172.5 C 21.3239,172.347 21.6572,173.013 16.5,174.5C 20.3107,175.738 20.3107,176.404 16.5,176.5C 16.6495,177.552 16.4828,178.552 16,179.5C 15.5034,177.19 15.3367,174.857 15.5,172.5 Z"/></g>
<g><path style="opacity:1" fill="#5d5e5e" d="M 52.5,173.5 C 54.5,172.167 56.5,172.167 58.5,173.5C 56.9385,175.372 55.9385,177.705 55.5,180.5C 55.0615,177.705 54.0615,175.372 52.5,173.5 Z"/></g>
<g><path style="opacity:1" fill="#4e4e4e" d="M 65.5,180.5 C 63.5,180.5 61.5,180.5 59.5,180.5C 59.5,178.167 59.5,175.833 59.5,173.5C 61.2884,172.378 63.2884,172.211 65.5,173C 64.062,173.219 62.7287,173.719 61.5,174.5C 66.6572,175.987 66.3239,176.653 60.5,176.5C 60.5,177.5 60.5,178.5 60.5,179.5C 62.4147,179.216 64.0813,179.549 65.5,180.5 Z"/></g>
<g><path style="opacity:1" fill="#636363" d="M 81.5,172.5 C 81.6633,174.857 81.4966,177.19 81,179.5C 80.5172,178.552 80.3505,177.552 80.5,176.5C 79.1667,176.5 77.8333,176.5 76.5,176.5C 76.762,177.978 76.4287,179.311 75.5,180.5C 74.7025,180.043 74.3691,179.376 74.5,178.5C 74.2011,176.396 74.5344,174.396 75.5,172.5C 76.3857,173.325 76.719,174.325 76.5,175.5C 77.8333,175.5 79.1667,175.5 80.5,175.5C 80.2627,174.209 80.596,173.209 81.5,172.5 Z"/></g>
<g><path style="opacity:1" fill="#5c5c5c" d="M 94.5,173.5 C 93.5985,177.241 94.9319,179.241 98.5,179.5C 95.7775,180.056 93.1109,180.056 90.5,179.5C 89.6184,177.616 88.1184,176.283 86,175.5C 85.3333,174.833 85.3333,174.167 86,173.5C 87.8138,172.24 89.6471,172.24 91.5,173.5C 90.3131,173.554 88.9798,173.887 87.5,174.5C 89.1932,175.228 90.6932,176.228 92,177.5C 92.2004,175.68 93.0337,174.347 94.5,173.5 Z"/></g>
<g><path style="opacity:1" fill="#4d4d4d" d="M 146.5,179.5 C 146.586,178.504 146.252,177.671 145.5,177C 142.354,176.89 141.354,175.557 142.5,173C 144.259,172.202 145.926,172.369 147.5,173.5C 146.313,173.554 144.98,173.887 143.5,174.5C 144.628,175.262 145.795,175.929 147,176.5C 147.74,177.749 147.573,178.749 146.5,179.5 Z"/></g>
<g><path style="opacity:1" fill="#a0a0a0" d="M 7.5,172.5 C 7.19845,175.059 7.53178,177.393 8.5,179.5C 8.44001,180.043 8.10667,180.376 7.5,180.5C 6.19966,177.691 6.19966,175.024 7.5,172.5 Z"/></g>
<g><path style="opacity:1" fill="#575757" d="M 109.5,179.5 C 110.5,179.5 111.5,179.5 112.5,179.5C 112.5,177.167 112.5,174.833 112.5,172.5C 117.317,171.89 119.317,172.223 118.5,173.5C 118.167,182.833 117.833,182.833 117.5,173.5C 116.5,173.5 115.5,173.5 114.5,173.5C 114.682,175.591 114.348,177.591 113.5,179.5C 112.042,180.782 110.708,180.782 109.5,179.5 Z"/></g>
<g><path style="opacity:1" fill="#383838" d="M 126.5,172.5 C 131.675,171.507 133.509,173.507 132,178.5C 132.29,174.911 130.79,173.411 127.5,174C 125.682,177.387 126.682,179.387 130.5,180C 128.888,180.72 127.388,180.554 126,179.5C 125.297,177.071 125.463,174.738 126.5,172.5 Z"/></g>
<g><path style="opacity:1" fill="#5c5c5c" d="M 133.5,172.5 C 136.091,173.254 137.924,174.921 139,177.5C 139.333,175.833 139.667,174.167 140,172.5C 141.159,180.796 139.826,181.796 136,175.5C 135.798,177.256 135.298,178.922 134.5,180.5C 133.52,177.914 133.187,175.247 133.5,172.5 Z"/></g>
<g><path style="opacity:1" fill="#393939" d="M 183.5,173.5 C 187.908,172.373 188.908,172.373 186.5,173.5C 186.663,175.857 186.497,178.19 186,180.5C 186.03,177.639 185.197,175.305 183.5,173.5 Z"/></g>
<g><path style="opacity:1" fill="#444444" d="M 195.5,173.5 C 197.942,175.139 198.109,177.139 196,179.5C 194.301,180.406 192.467,180.739 190.5,180.5C 190.5,177.833 190.5,175.167 190.5,172.5C 192.415,172.216 194.081,172.549 195.5,173.5 Z"/></g>
<g><path style="opacity:1" fill="#f0f0f0" d="M 195.5,173.5 C 196.401,177.241 195.068,179.241 191.5,179.5C 191.5,177.5 191.5,175.5 191.5,173.5C 192.833,173.5 194.167,173.5 195.5,173.5 Z"/></g>
<g><path style="opacity:1" fill="#555554" d="M 45.5,172.5 C 46.7498,172.577 47.5831,173.244 48,174.5C 48.9913,176.447 49.3247,178.447 49,180.5C 47.6883,178.342 46.0217,178.009 44,179.5C 43.8648,177.078 44.3648,174.745 45.5,172.5 Z"/></g>
<g><path style="opacity:1" fill="#525253" d="M 67.5,174.5 C 67.8152,179.041 69.6485,180.041 73,177.5C 73.3988,177.728 73.5654,178.062 73.5,178.5C 71.9007,180.729 69.9007,181.062 67.5,179.5C 66.2801,177.716 66.2801,176.05 67.5,174.5 Z"/></g>
<g><path style="opacity:1" fill="#454545" d="M 99.5,174.5 C 100.93,176.455 100.597,178.121 98.5,179.5C 99.038,177.883 99.3713,176.216 99.5,174.5 Z"/></g>
<g><path style="opacity:1" fill="#676767" d="M 159.5,172.5 C 160.479,173.765 161.479,175.099 162.5,176.5C 163.584,175.335 164.417,174.002 165,172.5C 163.519,183.129 161.685,183.129 159.5,172.5 Z"/></g>
<g><path style="opacity:1" fill="#5d5d5d" d="M 166.5,173.5 C 168.288,172.378 170.288,172.211 172.5,173C 171.004,175.201 170.004,177.701 169.5,180.5C 169.062,177.705 168.062,175.372 166.5,173.5 Z"/></g>
<g><path style="opacity:1" fill="#616161" d="M 23.5,175.5 C 24.1667,175.5 24.8333,175.5 25.5,175.5C 24.8333,182.167 24.1667,182.167 23.5,175.5 Z"/></g>
<g><path style="opacity:1" fill="#404040" d="M 40.5,178.5 C 40.6068,180.379 40.1068,180.712 39,179.5C 37.6912,177.253 37.0245,174.92 37,172.5C 38.0821,174.618 39.2488,176.618 40.5,178.5 Z"/></g>
<g><path style="opacity:1" fill="#565656" d="M 90.5,179.5 C 88.5801,180.94 86.9134,180.607 85.5,178.5C 85.6667,178.167 85.8333,177.833 86,177.5C 87.1096,179.037 88.6096,179.703 90.5,179.5 Z"/></g>
<g><path style="opacity:1" fill="#585858" d="M 146.5,179.5 C 144.58,180.94 142.913,180.607 141.5,178.5C 141.667,178.167 141.833,177.833 142,177.5C 143.11,179.037 144.61,179.703 146.5,179.5 Z"/></g>
<g><path style="opacity:1" fill="#4e4e4e" d="M 30.5,179.5 C 31.8221,179.67 32.9887,179.337 34,178.5C 34.3333,176.5 34.6667,174.5 35,172.5C 35.6667,174.833 35.6667,177.167 35,179.5C 33.3845,180.801 31.8845,180.801 30.5,179.5 Z"/></g>
<g><path style="opacity:1" fill="#464646" d="M 101.5,172.5 C 102.468,174.607 102.802,176.941 102.5,179.5C 107.5,180.003 107.167,180.336 101.5,180.5C 101.5,177.833 101.5,175.167 101.5,172.5 Z"/></g>
<g><path style="opacity:1" fill="#323232" d="M 178.5,172.5 C 179.468,174.607 179.802,176.941 179.5,179.5C 184.5,180.003 184.167,180.336 178.5,180.5C 178.5,177.833 178.5,175.167 178.5,172.5 Z"/></g>
</svg>
