<?xml version="1.0" standalone="no"?>
<!DOCTYPE svg PUBLIC "-//W3C//DTD SVG 20010904//EN"
 "http://www.w3.org/TR/2001/REC-SVG-20010904/DTD/svg10.dtd">
<svg version="1.0" xmlns="http://www.w3.org/2000/svg"
 width="94.000000pt" height="63.000000pt" viewBox="0 0 94.000000 63.000000"
 preserveAspectRatio="xMidYMid meet">

<g transform="translate(0.000000,63.000000) scale(0.100000,-0.100000)"
fill="#000000" stroke="none">
<path d="M56 584 c-19 -18 -23 -163 -6 -195 11 -20 40 -27 40 -9 0 6 -4 10
-10 10 -6 0 -10 37 -10 90 l0 90 393 0 c369 0 395 -1 410 -18 25 -27 21 -62
-13 -115 -22 -35 -36 -47 -54 -47 -14 0 -28 -4 -31 -10 -4 -6 10 -10 34 -10
36 0 42 4 68 48 41 67 45 81 32 119 -20 61 -32 63 -458 63 -332 0 -382 -2
-395 -16z"/>
<path d="M146 427 c-31 -52 -58 -102 -62 -111 -8 -22 13 -46 41 -46 18 0 34
19 80 99 62 110 68 144 23 149 -24 3 -32 -6 -82 -91z m89 53 c-3 -5 -10 -10
-16 -10 -5 0 -9 5 -9 10 0 6 7 10 16 10 8 0 12 -4 9 -10z m-104 -173 c-1 -12
-15 -9 -19 4 -3 6 1 10 8 8 6 -3 11 -8 11 -12z"/>
<path d="M433 513 c-16 -6 -17 -45 -1 -61 13 -13 325 -17 344 -4 17 11 22 35
12 55 -8 15 -26 17 -176 16 -92 0 -173 -3 -179 -6z m37 -33 c0 -5 -4 -10 -9
-10 -6 0 -13 5 -16 10 -3 6 1 10 9 10 9 0 16 -4 16 -10z m300 0 c0 -5 -4 -10
-9 -10 -6 0 -13 5 -16 10 -3 6 1 10 9 10 9 0 16 -4 16 -10z"/>
<path d="M654 385 l-19 -35 -96 0 c-104 0 -123 -8 -117 -52 3 -22 6 -23 130
-26 l127 -3 40 69 c23 37 41 71 41 75 0 4 -20 7 -43 7 -40 0 -46 -3 -63 -35z
m-184 -73 c0 -13 -12 -22 -22 -16 -10 6 -1 24 13 24 5 0 9 -4 9 -8z m194 -13
c-3 -5 -10 -7 -15 -3 -5 3 -7 10 -3 15 3 5 10 7 15 3 5 -3 7 -10 3 -15z"/>
<path d="M240 380 c0 -14 377 -14 385 0 4 7 -62 10 -189 10 -124 0 -196 -4
-196 -10z"/>
<path d="M162 260 c-12 -10 -27 -20 -33 -22 -6 -2 8 -36 31 -76 l42 -72 44 0
c24 0 44 2 44 5 0 2 -24 44 -53 94 l-52 89 -23 -18z"/>
<path d="M476 193 c15 -26 35 -60 43 -75 14 -24 23 -28 59 -28 23 0 42 3 42 8
0 4 -17 36 -38 72 -38 65 -38 65 -86 68 l-49 3 29 -48z"/>
<path d="M220 61 c0 -14 29 -41 44 -41 16 0 36 21 36 37 0 9 -14 13 -40 13
-22 0 -40 -4 -40 -9z"/>
<path d="M562 48 c19 -29 41 -33 62 -13 26 27 19 35 -30 35 -46 0 -46 0 -32
-22z"/>
</g>
</svg>
