<?xml version="1.0" encoding="UTF-8"?>
<!DOCTYPE svg PUBLIC "-//W3C//DTD SVG 1.1//EN" "http://www.w3.org/Graphics/SVG/1.1/DTD/svg11.dtd">
<svg xmlns="http://www.w3.org/2000/svg" version="1.1" width="225px" height="225px" style="shape-rendering:geometricPrecision; text-rendering:geometricPrecision; image-rendering:optimizeQuality; fill-rule:evenodd; clip-rule:evenodd" xmlns:xlink="http://www.w3.org/1999/xlink">
<g><path style="opacity:1" fill="#fcfcfc" d="M -0.5,-0.5 C 74.5,-0.5 149.5,-0.5 224.5,-0.5C 224.5,74.5 224.5,149.5 224.5,224.5C 149.5,224.5 74.5,224.5 -0.5,224.5C -0.5,149.5 -0.5,74.5 -0.5,-0.5 Z"/></g>
<g><path style="opacity:1" fill="#fbfbfc" d="M 162.5,71.5 C 164.357,85.5845 162.357,99.0845 156.5,112C 156.833,112.333 157.167,112.667 157.5,113C 153.018,116.478 149.684,120.812 147.5,126C 143.233,127.296 139.9,129.796 137.5,133.5C 134.724,134.515 132.057,135.515 129.5,136.5C 125.793,129.046 123.293,121.046 122,112.5C 119.035,96.621 117.702,80.621 118,64.5C 121.365,62.437 123.198,59.437 123.5,55.5C 119.818,55.6653 116.152,55.4986 112.5,55C 115.157,50.1807 114.991,45.3473 112,40.5C 108.961,45.2817 108.794,50.115 111.5,55C 107.848,55.4986 104.182,55.6653 100.5,55.5C 100.846,59.3591 102.68,62.3591 106,64.5C 106.261,89.0815 102.761,113.082 95.5,136.5C 88.7041,136.403 83.3708,133.569 79.5,128C 77.6494,127.163 75.8161,126.329 74,125.5C 72.1604,120.48 69.327,116.146 65.5,112.5C 61.9088,103.469 59.5755,94.1353 58.5,84.5C 60.3781,80.5851 60.7115,76.5851 59.5,72.5C 63.6223,67.985 66.1223,62.6516 67,56.5C 69.6566,53.8534 71.8232,50.8534 73.5,47.5C 77.4309,45.3682 80.7642,42.5348 83.5,39C 88.9936,38.2532 93.6602,35.9199 97.5,32C 102.626,32.3637 107.626,33.5304 112.5,35.5C 115.28,34.5431 117.947,33.3764 120.5,32C 121.833,31.3333 123.167,31.3333 124.5,32C 128.589,36.2105 133.589,38.5438 139.5,39C 142.052,43.2189 145.552,46.3855 150,48.5C 151.256,52.0163 153.256,55.0163 156,57.5C 156.362,63.1204 158.528,67.7871 162.5,71.5 Z"/></g>
<g><path style="opacity:1" fill="#f4f4f4" d="M 169.5,60.5 C 171.439,65.0406 170.605,66.0406 167,63.5C 165.569,65.3635 164.403,67.3635 163.5,69.5C 158.713,64.791 157.38,59.1243 159.5,52.5C 163.674,54.2365 167.007,56.9032 169.5,60.5 Z"/></g>
<g><path style="opacity:1" fill="#070707" d="M 129.5,136.5 C 130.167,136.5 130.5,136.833 130.5,137.5C 126.296,139.033 122.963,141.7 120.5,145.5C 119.833,145.5 119.5,145.167 119.5,144.5C 119.5,143.833 119.167,143.5 118.5,143.5C 118.5,142.833 118.833,142.5 119.5,142.5C 121.026,141.508 121.693,140.008 121.5,138C 117.964,115.543 114.797,93.0432 112,70.5C 108.896,95.0087 105.729,119.342 102.5,143.5C 101.833,143.833 101.167,144.167 100.5,144.5C 99.5223,141.522 97.5223,139.522 94.5,138.5C 94.8333,137.833 95.1667,137.167 95.5,136.5C 102.761,113.082 106.261,89.0815 106,64.5C 102.68,62.3591 100.846,59.3591 100.5,55.5C 104.182,55.6653 107.848,55.4986 111.5,55C 108.794,50.115 108.961,45.2817 112,40.5C 114.991,45.3473 115.157,50.1807 112.5,55C 116.152,55.4986 119.818,55.6653 123.5,55.5C 123.198,59.437 121.365,62.437 118,64.5C 117.702,80.621 119.035,96.621 122,112.5C 123.293,121.046 125.793,129.046 129.5,136.5 Z"/></g>
<g><path style="opacity:1" fill="#151515" d="M 174.5,54.5 C 174.822,58.4871 176.656,61.4871 180,63.5C 181.372,62.0899 182.205,60.4233 182.5,58.5C 183.338,58.8417 183.672,59.5084 183.5,60.5C 182.22,66.1531 182.22,71.8198 183.5,77.5C 192.986,76.0929 194.986,71.4263 189.5,63.5C 189.5,62.8333 189.5,62.1667 189.5,61.5C 191.474,63.428 192.974,65.7613 194,68.5C 200.834,95.0346 196.834,119.701 182,142.5C 179.961,144.874 177.628,146.874 175,148.5C 173.224,151.941 171.057,155.108 168.5,158C 186.842,160.002 204.842,163.668 222.5,169C 218.539,170.598 214.539,172.098 210.5,173.5C 209.851,177.275 210.518,180.942 212.5,184.5C 212,184.833 211.5,185.167 211,185.5C 182.832,176.678 154.332,175.178 125.5,181C 128.167,178.333 130.833,175.667 133.5,173C 119.155,168.387 104.821,168.387 90.5,173C 93.1667,175.667 95.8333,178.333 98.5,181C 69.6563,175.126 41.1563,176.626 13,185.5C 12.5,185.167 12,184.833 11.5,184.5C 13.4823,180.942 14.149,177.275 13.5,173.5C 9.46124,172.098 5.46124,170.598 1.5,169C 18.8254,163.723 36.4921,160.057 54.5,158C 52.2101,156.223 50.5434,154.056 49.5,151.5C 49.5,150.833 49.8333,150.5 50.5,150.5C 54.0479,158.882 59.2146,160.215 66,154.5C 65.9232,152.228 64.7565,150.562 62.5,149.5C 62.5,148.833 62.8333,148.5 63.5,148.5C 65.5164,150.348 67.683,152.015 70,153.5C 73.3379,151.958 73.1712,150.625 69.5,149.5C 69.5,148.833 69.8333,148.5 70.5,148.5C 72.258,148.877 73.9246,149.544 75.5,150.5C 76.5624,149.575 76.5624,148.575 75.5,147.5C 76.1667,147.5 76.8333,147.5 77.5,147.5C 77.4148,148.995 78.0815,149.995 79.5,150.5C 82.2283,149.855 84.8949,149.021 87.5,148C 85.6854,147.243 84.0188,146.41 82.5,145.5C 83.1667,145.5 83.5,145.167 83.5,144.5C 84.3635,145.463 85.0302,145.463 85.5,144.5C 84.5435,142.925 83.8769,141.258 83.5,139.5C 83.5,138.833 83.8333,138.5 84.5,138.5C 87.2501,147.826 92.5835,149.826 100.5,144.5C 101.167,144.167 101.833,143.833 102.5,143.5C 108.139,140.316 113.806,139.983 119.5,142.5C 118.833,142.5 118.5,142.833 118.5,143.5C 112.484,141.703 106.818,142.536 101.5,146C 107.785,147.05 113.785,146.55 119.5,144.5C 119.5,145.167 119.833,145.5 120.5,145.5C 129.597,150.218 135.597,147.551 138.5,137.5C 135.801,136.271 133.135,136.271 130.5,137.5C 130.5,136.833 130.167,136.5 129.5,136.5C 132.057,135.515 134.724,134.515 137.5,133.5C 139.9,129.796 143.233,127.296 147.5,126C 149.684,120.812 153.018,116.478 157.5,113C 157.167,112.667 156.833,112.333 156.5,112C 162.357,99.0845 164.357,85.5845 162.5,71.5C 162.833,70.8333 163.167,70.1667 163.5,69.5C 164.403,67.3635 165.569,65.3635 167,63.5C 170.605,66.0406 171.439,65.0406 169.5,60.5C 169.5,59.8333 169.833,59.5 170.5,59.5C 170.783,60.2891 171.283,60.9558 172,61.5C 173.128,59.6547 173.628,57.6547 173.5,55.5C 173.5,54.8333 173.833,54.5 174.5,54.5 Z"/></g>
<g><path style="opacity:1" fill="#f6f6f6" d="M 189.5,63.5 C 194.986,71.4263 192.986,76.0929 183.5,77.5C 182.22,71.8198 182.22,66.1531 183.5,60.5C 184.117,60.3893 184.617,60.056 185,59.5C 186.371,61.0414 187.871,62.3747 189.5,63.5 Z"/></g>
<g><path style="opacity:1" fill="#ededed" d="M 173.5,62.5 C 175.903,62.393 177.736,63.393 179,65.5C 180.273,70.1376 181.44,74.8042 182.5,79.5C 180.418,79.472 178.584,80.1387 177,81.5C 176.037,76.4783 174.537,71.6449 172.5,67C 172.773,65.4672 173.106,63.9672 173.5,62.5 Z"/></g>
<g><path style="opacity:1" fill="#181818" d="M 189.5,61.5 C 189.5,62.1667 189.5,62.8333 189.5,63.5C 187.871,62.3747 186.371,61.0414 185,59.5C 184.617,60.056 184.117,60.3893 183.5,60.5C 183.672,59.5084 183.338,58.8417 182.5,58.5C 183.209,57.596 184.209,57.2627 185.5,57.5C 184.12,51.6199 180.953,46.9533 176,43.5C 174.585,46.9582 174.085,50.6249 174.5,54.5C 173.833,54.5 173.5,54.8333 173.5,55.5C 172.738,50.3929 169.738,47.0596 164.5,45.5C 163.353,47.7649 163.186,50.0982 164,52.5C 166.372,54.7032 168.539,57.0365 170.5,59.5C 169.833,59.5 169.5,59.8333 169.5,60.5C 167.007,56.9032 163.674,54.2365 159.5,52.5C 157.38,59.1243 158.713,64.791 163.5,69.5C 163.167,70.1667 162.833,70.8333 162.5,71.5C 158.528,67.7871 156.362,63.1204 156,57.5C 153.256,55.0163 151.256,52.0163 150,48.5C 145.552,46.3855 142.052,43.2189 139.5,39C 133.589,38.5438 128.589,36.2105 124.5,32C 123.167,31.3333 121.833,31.3333 120.5,32C 117.947,33.3764 115.28,34.5431 112.5,35.5C 107.626,33.5304 102.626,32.3637 97.5,32C 93.6602,35.9199 88.9936,38.2532 83.5,39C 80.7642,42.5348 77.4309,45.3682 73.5,47.5C 71.8232,50.8534 69.6566,53.8534 67,56.5C 66.1223,62.6516 63.6223,67.985 59.5,72.5C 60.7115,76.5851 60.3781,80.5851 58.5,84.5C 59.5755,94.1353 61.9088,103.469 65.5,112.5C 69.327,116.146 72.1604,120.48 74,125.5C 75.8161,126.329 77.6494,127.163 79.5,128C 83.3708,133.569 88.7041,136.403 95.5,136.5C 95.1667,137.167 94.8333,137.833 94.5,138.5C 92.3111,137.438 89.9778,136.772 87.5,136.5C 85.9704,136.64 84.9704,137.307 84.5,138.5C 83.8333,138.5 83.5,138.833 83.5,139.5C 82.193,137.777 82.193,135.943 83.5,134C 80.2445,130.914 76.5779,128.414 72.5,126.5C 70.8163,133.278 72.8163,138.778 78.5,143C 80.0249,144.009 81.6916,144.509 83.5,144.5C 83.5,145.167 83.1667,145.5 82.5,145.5C 80.2188,145.077 78.5521,145.744 77.5,147.5C 76.8333,147.5 76.1667,147.5 75.5,147.5C 74.8944,143.267 73.3944,139.267 71,135.5C 68.4125,133.804 65.5792,132.804 62.5,132.5C 62.5465,139.26 65.2132,144.593 70.5,148.5C 69.8333,148.5 69.5,148.833 69.5,149.5C 65.7518,146.843 63.0851,143.343 61.5,139C 59.26,138.023 56.9267,137.523 54.5,137.5C 54.523,139.927 55.023,142.26 56,144.5C 58.7685,145.466 61.2685,146.799 63.5,148.5C 62.8333,148.5 62.5,148.833 62.5,149.5C 58.5191,147.119 54.1857,146.119 49.5,146.5C 49.4326,147.959 49.7659,149.292 50.5,150.5C 49.8333,150.5 49.5,150.833 49.5,151.5C 46.2693,148.285 43.1026,144.952 40,141.5C 25.6788,119.321 21.6788,95.3213 28,69.5C 29.5843,65.3253 31.9177,61.6587 35,58.5C 35.9095,51.6025 39.2429,46.2691 45,42.5C 46.0804,40.0038 47.4138,37.6705 49,35.5C 56.2584,29.7864 63.4251,23.9531 70.5,18C 98.2948,2.50683 125.961,2.84017 153.5,19C 155.351,20.6837 157.018,22.5171 158.5,24.5C 162.361,27.5276 166.361,30.3609 170.5,33C 174.42,38.6748 178.92,43.8415 184,48.5C 186.265,52.7471 188.098,57.0804 189.5,61.5 Z"/></g>
<g><path style="opacity:1" fill="#efefef" d="M 47.5,61.5 C 49.1412,62.8705 50.1412,64.7039 50.5,67C 47.844,71.1355 46.5107,75.6355 46.5,80.5C 43.6773,80.9746 41.6773,79.9746 40.5,77.5C 40.8732,71.1671 43.2066,65.8338 47.5,61.5 Z"/></g>
<g><path style="opacity:1" fill="#f2f2f2" d="M 36.5,59.5 C 37.7498,59.5774 38.5831,60.244 39,61.5C 41.2941,67.138 40.7941,72.4713 37.5,77.5C 35.1667,76.3333 32.8333,75.1667 30.5,74C 29.5914,70.245 30.4248,66.745 33,63.5C 34.3756,62.2949 35.5423,60.9616 36.5,59.5 Z"/></g>
<g><path style="opacity:1" fill="#efefef" d="M 61.5,52.5 C 62.5,52.5 63.5,52.5 64.5,52.5C 65.4464,58.9891 63.7797,64.6558 59.5,69.5C 58.1667,67.5 56.8333,65.5 55.5,63.5C 54.1861,64.3128 53.0195,65.3128 52,66.5C 51.7434,63.9832 52.4101,61.6498 54,59.5C 56.3959,56.9334 58.8959,54.6 61.5,52.5 Z"/></g>
<g><path style="opacity:1" fill="#ededed" d="M 173.5,55.5 C 173.628,57.6547 173.128,59.6547 172,61.5C 171.283,60.9558 170.783,60.2891 170.5,59.5C 168.539,57.0365 166.372,54.7032 164,52.5C 163.186,50.0982 163.353,47.7649 164.5,45.5C 169.738,47.0596 172.738,50.3929 173.5,55.5 Z"/></g>
<g><path style="opacity:1" fill="#ececec" d="M 56.5,45.5 C 57.7479,46.3339 58.4146,47.6672 58.5,49.5C 58.1667,50.8333 57.8333,52.1667 57.5,53.5C 54.4167,55.4172 52.25,58.0838 51,61.5C 49.9783,60.646 49.1449,59.646 48.5,58.5C 49.2305,55.8908 49.7305,53.2241 50,50.5C 52.352,48.9697 54.5187,47.3031 56.5,45.5 Z"/></g>
<g><path style="opacity:1" fill="#f2f2f2" d="M 182.5,58.5 C 182.205,60.4233 181.372,62.0899 180,63.5C 176.656,61.4871 174.822,58.4871 174.5,54.5C 174.085,50.6249 174.585,46.9582 176,43.5C 180.953,46.9533 184.12,51.6199 185.5,57.5C 184.209,57.2627 183.209,57.596 182.5,58.5 Z"/></g>
<g><path style="opacity:1" fill="#efefef" d="M 46.5,43.5 C 50.1045,51.4826 48.6045,58.4826 42,64.5C 41.0272,61.2211 39.5272,58.2211 37.5,55.5C 39.0159,50.3264 42.0159,46.3264 46.5,43.5 Z"/></g>
<g><path style="opacity:1" fill="#f2f2f2" d="M 150.5,40.5 C 158.33,40.4303 161.83,44.097 161,51.5C 159.644,50.6198 158.144,50.2865 156.5,50.5C 156.992,54.2896 156.159,54.9563 154,52.5C 151.715,48.8131 150.548,44.8131 150.5,40.5 Z"/></g>
<g><path style="opacity:1" fill="#f1f1f1" d="M 70.5,39.5 C 71.5862,39.62 72.2528,40.2867 72.5,41.5C 71.7174,46.0285 69.8841,50.0285 67,53.5C 66.5172,52.552 66.3505,51.552 66.5,50.5C 60.0961,50.0316 59.0961,47.5316 63.5,43C 65.9252,41.7874 68.2585,40.6207 70.5,39.5 Z"/></g>
<g><path style="opacity:1" fill="#f1f1f1" d="M 160.5,31.5 C 166.252,31.9626 170.752,34.6293 174,39.5C 174.279,42.3852 173.612,45.0519 172,47.5C 169.325,45.5539 166.492,43.8873 163.5,42.5C 161.883,38.986 160.883,35.3193 160.5,31.5 Z"/></g>
<g><path style="opacity:1" fill="#e8e8e9" d="M 138.5,31.5 C 145.637,31.3762 151.637,33.8762 156.5,39C 153.918,38.7446 151.252,38.578 148.5,38.5C 148.799,40.604 148.466,42.604 147.5,44.5C 142.754,41.3308 139.754,36.9975 138.5,31.5 Z"/></g>
<g><path style="opacity:1" fill="#ebebeb" d="M 78.5,31.5 C 80.1667,31.5 81.8333,31.5 83.5,31.5C 82.5701,37.6957 79.4034,42.3623 74,45.5C 74.1307,42.905 73.964,40.405 73.5,38C 71.1817,37.6577 69.015,38.1577 67,39.5C 66.8333,39.1667 66.6667,38.8333 66.5,38.5C 69.9832,35.098 73.9832,32.7647 78.5,31.5 Z"/></g>
<g><path style="opacity:1" fill="#f1f1f1" d="M 58.5,31.5 C 59.5,31.5 60.5,31.5 61.5,31.5C 61.7372,35.4102 60.9039,39.0769 59,42.5C 56.0844,44.0406 53.2511,45.7073 50.5,47.5C 49.7952,45.3279 48.7952,43.3279 47.5,41.5C 49.9641,36.6961 53.6308,33.3628 58.5,31.5 Z"/></g>
<g><path style="opacity:1" fill="#e9e9e9" d="M 134.5,25.5 C 137.714,26.4404 140.714,27.9404 143.5,30C 141.19,30.4966 138.857,30.6633 136.5,30.5C 136.833,32.5 137.167,34.5 137.5,36.5C 132.89,36.2223 129.223,34.2223 126.5,30.5C 129.231,28.8084 131.898,27.1417 134.5,25.5 Z"/></g>
<g><path style="opacity:1" fill="#e9e9e9" d="M 85.5,25.5 C 89.2728,26.8856 92.9394,28.5522 96.5,30.5C 93.337,34.2495 89.337,36.0828 84.5,36C 85.4061,34.3005 85.7394,32.4672 85.5,30.5C 83.4727,30.6621 81.4727,30.4955 79.5,30C 81.6838,28.6366 83.6838,27.1366 85.5,25.5 Z"/></g>
<g><path style="opacity:1" fill="#ededed" d="M 146.5,24.5 C 152.092,24.0866 157.092,25.5866 161.5,29C 160.296,30.3528 159.629,32.0194 159.5,34C 161.248,42.1511 159.915,42.4844 155.5,35C 150.128,33.4663 147.128,29.9663 146.5,24.5 Z"/></g>
<g><path style="opacity:1" fill="#efefef" d="M 68.5,24.5 C 70.8333,24.5 73.1667,24.5 75.5,24.5C 75.628,26.6547 75.128,28.6547 74,30.5C 69.4024,32.9294 65.5691,36.2627 62.5,40.5C 62.1667,40.3333 61.8333,40.1667 61.5,40C 63.1373,36.7154 63.8039,33.2154 63.5,29.5C 62.448,29.6495 61.448,29.4828 60.5,29C 63.0993,27.205 65.7659,25.705 68.5,24.5 Z"/></g>
<g><path style="opacity:1" fill="#ebebeb" d="M 145.5,18.5 C 148.765,18.2991 151.431,19.4657 153.5,22C 150.518,22.498 147.518,22.6646 144.5,22.5C 144.746,24.7805 144.746,26.7805 144.5,28.5C 142.321,27.2433 140.321,25.7433 138.5,24C 141.266,22.629 143.599,20.7957 145.5,18.5 Z"/></g>
<g><path style="opacity:1" fill="#ededed" d="M 72.5,18.5 C 77.1098,18.7777 80.7765,20.7777 83.5,24.5C 81.8067,26.0267 79.9734,27.3601 78,28.5C 78.1282,26.555 77.9615,24.7216 77.5,23C 74.8333,22.6667 72.1667,22.3333 69.5,22C 70.7101,20.9609 71.7101,19.7942 72.5,18.5 Z"/></g>
<g><path style="opacity:1" fill="#f3f3f4" d="M 127.5,11.5 C 133.602,12.0341 139.269,13.8674 144.5,17C 137.5,23.1668 129.5,27.1668 120.5,29C 123.719,23.5062 126.053,17.6729 127.5,11.5 Z"/></g>
<g><path style="opacity:1" fill="#f3f3f3" d="M 89.5,11.5 C 91.924,11.1924 94.2573,11.5258 96.5,12.5C 97.9536,18.906 100.62,24.7394 104.5,30C 94.3937,28.1146 85.3937,23.7813 77.5,17C 81.4409,14.8613 85.4409,13.028 89.5,11.5 Z"/></g>
<g><path style="opacity:1" fill="#f6f6f6" d="M 105.5,8.5 C 111.96,8.15021 118.293,8.81687 124.5,10.5C 124.833,11.1667 125.167,11.8333 125.5,12.5C 116.625,40.37 107.625,40.37 98.5,12.5C 100.482,10.4364 102.816,9.10304 105.5,8.5 Z"/></g>
<g><path style="opacity:1" fill="#f3f3f3" d="M 53.5,66.5 C 54.4959,66.4142 55.3292,66.7476 56,67.5C 58.8148,72.6831 59.1482,78.0164 57,83.5C 49.5886,85.0787 46.9219,82.0787 49,74.5C 50.3557,71.6711 51.8557,69.0045 53.5,66.5 Z"/></g>
<g><path style="opacity:1" fill="#f4f4f4" d="M 166.5,66.5 C 170.379,68.2055 172.879,71.2055 174,75.5C 174.497,77.8098 174.663,80.1432 174.5,82.5C 171.933,82.8545 169.433,83.5212 167,84.5C 166.5,84.1667 166,83.8333 165.5,83.5C 164.011,77.7042 164.345,72.0375 166.5,66.5 Z"/></g>
<g><path style="opacity:1" fill="#f1f1f1" d="M 119.5,142.5 C 113.806,139.983 108.139,140.316 102.5,143.5C 105.729,119.342 108.896,95.0087 112,70.5C 114.797,93.0432 117.964,115.543 121.5,138C 121.693,140.008 121.026,141.508 119.5,142.5 Z"/></g>
<g><path style="opacity:1" fill="#f0f0f0" d="M 29.5,75.5 C 37.3604,80.1247 45.6937,83.7914 54.5,86.5C 45.8839,90.0375 36.8839,91.7042 27.5,91.5C 27.5182,86.0441 28.1849,80.7108 29.5,75.5 Z"/></g>
<g><path style="opacity:1" fill="#efeff0" d="M 192.5,75.5 C 193.268,76.2625 193.768,77.2625 194,78.5C 194.499,82.8206 194.666,87.1539 194.5,91.5C 185.377,91.8749 176.71,90.2082 168.5,86.5C 177.06,83.8842 185.06,80.2175 192.5,75.5 Z"/></g>
<g><path style="opacity:1" fill="#f3f3f3" d="M 54.5,88.5 C 55.5,88.5 56.5,88.5 57.5,88.5C 58.1667,92.8333 58.8333,97.1667 59.5,101.5C 55.1205,102.013 50.7872,102.847 46.5,104C 40.5,104.667 34.5,104.667 28.5,104C 27.5442,100.606 27.2108,97.1064 27.5,93.5C 36.9889,93.871 45.9889,92.2044 54.5,88.5 Z"/></g>
<g><path style="opacity:1" fill="#f5f5f5" d="M 164.5,88.5 C 174.279,91.4632 184.279,93.1299 194.5,93.5C 194.789,97.1064 194.456,100.606 193.5,104C 183.327,105.046 173.327,104.213 163.5,101.5C 163.927,97.1756 164.261,92.8422 164.5,88.5 Z"/></g>
<g><path style="opacity:1" fill="#f7f7f7" d="M 162.5,102.5 C 164.973,105.804 167.973,108.638 171.5,111C 177.586,114.709 183.919,117.876 190.5,120.5C 189.159,125.196 186.826,129.196 183.5,132.5C 173.004,128.336 165.004,121.336 159.5,111.5C 160.658,108.524 161.658,105.524 162.5,102.5 Z"/></g>
<g><path style="opacity:1" fill="#f7f7f7" d="M 59.5,102.5 C 60.8099,105.399 62.1432,108.399 63.5,111.5C 56.9929,121.176 48.4929,128.509 38,133.5C 35.1465,129.152 33.4798,124.486 33,119.5C 43.6155,116.452 52.4489,110.785 59.5,102.5 Z"/></g>
<g><path style="opacity:1" fill="#d4d4d4" d="M 50.5,104.5 C 55.4214,104.135 55.7547,105.135 51.5,107.5C 49.4807,106.867 49.1474,105.867 50.5,104.5 Z"/></g>
<g><path style="opacity:1" fill="#e0e0e0" d="M 167.5,105.5 C 169.264,104.288 170.93,104.621 172.5,106.5C 170.808,107.201 169.142,106.867 167.5,105.5 Z"/></g>
<g><path style="opacity:1" fill="#f3f3f3" d="M 28.5,106.5 C 31.5,106.5 34.5,106.5 37.5,106.5C 37.4433,108.884 37.7766,111.218 38.5,113.5C 37.0538,115.835 34.8872,117.168 32,117.5C 28.9659,114.52 27.7992,110.853 28.5,106.5 Z"/></g>
<g><path style="opacity:1" fill="#ebebec" d="M 44.5,105.5 C 47.1142,105.277 48.7809,106.444 49.5,109C 46.5815,110.709 43.7482,112.542 41,114.5C 39.7475,111.986 39.2475,109.32 39.5,106.5C 41.4147,106.784 43.0813,106.451 44.5,105.5 Z"/></g>
<g><path style="opacity:1" fill="#f2f2f2" d="M 174.5,106.5 C 177.5,106.5 180.5,106.5 183.5,106.5C 183.097,114.827 179.93,115.827 174,109.5C 173.53,108.423 173.697,107.423 174.5,106.5 Z"/></g>
<g><path style="opacity:1" fill="#ededed" d="M 191.5,105.5 C 192.5,105.5 193.5,105.5 194.5,105.5C 194.453,108.568 193.953,111.568 193,114.5C 192.653,116.18 191.653,117.18 190,117.5C 187.587,116.976 185.42,115.976 183.5,114.5C 184.167,112.167 184.833,109.833 185.5,107.5C 187.631,106.831 189.631,106.165 191.5,105.5 Z"/></g>
<g><path style="opacity:1" fill="#f6f6f6" d="M 63.5,115.5 C 70.2298,117.944 72.2298,122.277 69.5,128.5C 71.0238,132.751 69.6904,133.585 65.5,131C 60.1605,126.201 59.4939,121.034 63.5,115.5 Z"/></g>
<g><path style="opacity:1" fill="#ededed" d="M 156.5,115.5 C 159.659,115.917 161.659,117.75 162.5,121C 161.455,126.526 158.455,130.36 153.5,132.5C 152.922,129.631 151.922,126.965 150.5,124.5C 151.766,120.955 153.766,117.955 156.5,115.5 Z"/></g>
<g><path style="opacity:1" fill="#f2f2f2" d="M 56.5,122.5 C 58.8216,124.586 60.8216,127.086 62.5,130C 60.3985,131.733 60.0652,133.733 61.5,136C 55.1982,137.083 51.6982,134.583 51,128.5C 53.0396,126.63 54.8729,124.63 56.5,122.5 Z"/></g>
<g><path style="opacity:1" fill="#f4f4f4" d="M 164.5,122.5 C 175.655,129.399 174.655,134.066 161.5,136.5C 160.02,131.408 161.02,126.741 164.5,122.5 Z"/></g>
<g><path style="opacity:1" fill="#eeeeee" d="M 83.5,139.5 C 83.8769,141.258 84.5435,142.925 85.5,144.5C 85.0302,145.463 84.3635,145.463 83.5,144.5C 81.6916,144.509 80.0249,144.009 78.5,143C 72.8163,138.778 70.8163,133.278 72.5,126.5C 76.5779,128.414 80.2445,130.914 83.5,134C 82.193,135.943 82.193,137.777 83.5,139.5 Z"/></g>
<g><path style="opacity:1" fill="#f2f2f2" d="M 146.5,127.5 C 147.833,127.5 149.167,127.5 150.5,127.5C 151.216,135.919 147.716,141.586 140,144.5C 139.167,144.167 138.333,143.833 137.5,143.5C 139.581,140.476 140.247,137.31 139.5,134C 141.729,131.6 144.063,129.433 146.5,127.5 Z"/></g>
<g><path style="opacity:1" fill="#f2f2f2" d="M 45.5,131.5 C 48.2626,131.744 50.4293,133.077 52,135.5C 52.696,138.478 53.196,141.478 53.5,144.5C 51.0799,144.292 48.7466,144.626 46.5,145.5C 43.319,142.977 40.9856,139.81 39.5,136C 41.3584,134.245 43.3584,132.745 45.5,131.5 Z"/></g>
<g><path style="opacity:1" fill="#f2f2f2" d="M 173.5,131.5 C 184.805,133.932 185.472,138.599 175.5,145.5C 173.146,144.94 170.813,144.273 168.5,143.5C 169.399,139.123 171.066,135.123 173.5,131.5 Z"/></g>
<g><path style="opacity:1" fill="#f3f3f3" d="M 156.5,132.5 C 157.5,132.5 158.5,132.5 159.5,132.5C 159.842,141.654 155.675,147.654 147,150.5C 147.104,147.729 147.104,145.063 147,142.5C 148.829,140.844 150.163,138.844 151,136.5C 152.812,135.023 154.645,133.69 156.5,132.5 Z"/></g>
<g><path style="opacity:1" fill="#eeeeee" d="M 75.5,147.5 C 76.5624,148.575 76.5624,149.575 75.5,150.5C 73.9246,149.544 72.258,148.877 70.5,148.5C 65.2132,144.593 62.5465,139.26 62.5,132.5C 65.5792,132.804 68.4125,133.804 71,135.5C 73.3944,139.267 74.8944,143.267 75.5,147.5 Z"/></g>
<g><path style="opacity:1" fill="#f3f3f3" d="M 94.5,138.5 C 97.5223,139.522 99.5223,141.522 100.5,144.5C 92.5835,149.826 87.2501,147.826 84.5,138.5C 84.9704,137.307 85.9704,136.64 87.5,136.5C 89.9778,136.772 92.3111,137.438 94.5,138.5 Z"/></g>
<g><path style="opacity:1" fill="#f2f2f2" d="M 120.5,145.5 C 122.963,141.7 126.296,139.033 130.5,137.5C 133.135,136.271 135.801,136.271 138.5,137.5C 135.597,147.551 129.597,150.218 120.5,145.5 Z"/></g>
<g><path style="opacity:1" fill="#ebebeb" d="M 69.5,149.5 C 73.1712,150.625 73.3379,151.958 70,153.5C 67.683,152.015 65.5164,150.348 63.5,148.5C 61.2685,146.799 58.7685,145.466 56,144.5C 55.023,142.26 54.523,139.927 54.5,137.5C 56.9267,137.523 59.26,138.023 61.5,139C 63.0851,143.343 65.7518,146.843 69.5,149.5 Z"/></g>
<g><path style="opacity:1" fill="#ececec" d="M 163.5,137.5 C 165.167,137.5 166.833,137.5 168.5,137.5C 168.313,139.564 167.813,141.564 167,143.5C 161.794,145.872 157.294,149.206 153.5,153.5C 152.328,153.081 151.328,152.415 150.5,151.5C 152.524,149.642 154.691,147.975 157,146.5C 158.369,142.809 160.535,139.809 163.5,137.5 Z"/></g>
<g><path style="opacity:1" fill="#efefef" d="M 118.5,143.5 C 119.167,143.5 119.5,143.833 119.5,144.5C 113.785,146.55 107.785,147.05 101.5,146C 106.818,142.536 112.484,141.703 118.5,143.5 Z"/></g>
<g><path style="opacity:1" fill="#f3f3f3" d="M 62.5,149.5 C 64.7565,150.562 65.9232,152.228 66,154.5C 59.2146,160.215 54.0479,158.882 50.5,150.5C 49.7659,149.292 49.4326,147.959 49.5,146.5C 54.1857,146.119 58.5191,147.119 62.5,149.5 Z"/></g>
<g><path style="opacity:1" fill="#e9e9e9" d="M 82.5,145.5 C 84.0188,146.41 85.6854,147.243 87.5,148C 84.8949,149.021 82.2283,149.855 79.5,150.5C 78.0815,149.995 77.4148,148.995 77.5,147.5C 78.5521,145.744 80.2188,145.077 82.5,145.5 Z"/></g>
<g><path style="opacity:1" fill="#dcdcdc" d="M 139.5,145.5 C 141.5,145.5 143.5,145.5 145.5,145.5C 145.709,147.714 144.876,149.381 143,150.5C 140.323,150.038 137.823,149.204 135.5,148C 136.858,147.066 138.192,146.232 139.5,145.5 Z"/></g>
<g><path style="opacity:1" fill="#f5f5f5" d="M 164.5,146.5 C 167.572,146.183 170.572,146.516 173.5,147.5C 171.907,151.924 169.073,155.257 165,157.5C 162.004,156.449 159.17,155.116 156.5,153.5C 158.595,150.398 161.262,148.065 164.5,146.5 Z"/></g>
<g><path style="opacity:1" fill="#f0f0f0" d="M 99.5,148.5 C 122.14,147.09 143.806,150.923 164.5,160C 158.458,164.865 151.792,168.698 144.5,171.5C 122.837,163.528 101.17,163.528 79.5,171.5C 72.2082,168.698 65.5415,164.865 59.5,160C 72.3309,153.963 85.6643,150.13 99.5,148.5 Z"/></g>
<g><path style="opacity:1" fill="#202020" d="M 110.5,153.5 C 112.036,155.025 113.036,157.025 113.5,159.5C 115.131,157.941 115.964,155.941 116,153.5C 116.758,155.769 116.591,157.936 115.5,160C 113.888,160.72 112.388,160.554 111,159.5C 110.505,157.527 110.338,155.527 110.5,153.5 Z"/></g>
<g><path style="opacity:1" fill="#1a1a1a" d="M 93.5,154.5 C 95.1992,154.34 96.8659,154.506 98.5,155C 97.572,155.388 96.9054,156.055 96.5,157C 97.3295,158.465 97.4962,159.965 97,161.5C 96.0446,158.996 94.8779,156.663 93.5,154.5 Z"/></g>
<g><path style="opacity:1" fill="#1a1a1a" d="M 118.5,154.5 C 120.035,153.212 121.701,153.212 123.5,154.5C 122.045,156.22 121.212,158.22 121,160.5C 120.998,157.949 120.164,155.949 118.5,154.5 Z"/></g>
<g><path style="opacity:1" fill="#151515" d="M 125.5,154.5 C 128.797,154.329 129.131,154.995 126.5,156.5C 127.376,157.251 128.376,157.751 129.5,158C 126.332,158.582 125.999,159.582 128.5,161C 127.207,161.49 125.873,161.657 124.5,161.5C 124.993,159.194 125.326,156.861 125.5,154.5 Z"/></g>
<g><path style="opacity:1" fill="#272727" d="M 103.5,154.5 C 104.946,153.387 106.613,153.22 108.5,154C 107.887,156.147 107.221,158.314 106.5,160.5C 106.036,158.025 105.036,156.025 103.5,154.5 Z"/></g>
<g><path style="opacity:1" fill="#131313" d="M 135.5,162.5 C 133.843,158.644 135.176,156.811 139.5,157C 140.576,158.726 140.743,160.559 140,162.5C 138.384,163.801 136.884,163.801 135.5,162.5 Z"/></g>
<g><path style="opacity:1" fill="#161616" d="M 88.5,155.5 C 91.7973,155.329 92.1306,155.995 89.5,157.5C 91.756,158.421 92.756,160.088 92.5,162.5C 88.1074,162.543 87.7741,162.043 91.5,161C 90.4366,159.812 89.1033,159.312 87.5,159.5C 87.4326,158.041 87.7659,156.708 88.5,155.5 Z"/></g>
<g><path style="opacity:1" fill="#e5e5e5" d="M 135.5,162.5 C 135.284,160.319 136.117,158.653 138,157.5C 140.324,160.686 139.491,162.352 135.5,162.5 Z"/></g>
<g><path style="opacity:1" fill="#171717" d="M 143.5,158.5 C 147.898,159.107 148.231,160.107 144.5,161.5C 145.025,162.192 145.692,162.692 146.5,163C 144.924,163.44 143.59,164.273 142.5,165.5C 142.167,165.167 141.833,164.833 141.5,164.5C 142.747,162.677 143.414,160.677 143.5,158.5 Z"/></g>
<g><path style="opacity:1" fill="#464646" d="M 100.5,154.5 C 101.993,155.312 102.66,156.645 102.5,158.5C 102.167,159.5 101.833,160.5 101.5,161.5C 100.526,159.257 100.192,156.924 100.5,154.5 Z"/></g>
<g><path style="opacity:1" fill="#292929" d="M 75.5,159.5 C 77.3627,160.967 78.696,162.967 79.5,165.5C 79.1667,165.833 78.8333,166.167 78.5,166.5C 77.2172,164.27 76.2172,161.937 75.5,159.5 Z"/></g>
<g><path style="opacity:1" fill="#222222" d="M 82.5,160.5 C 81.8097,161.88 81.4764,163.214 81.5,164.5C 79.8489,162.598 79.5155,160.598 80.5,158.5C 81.5223,158.855 82.189,159.522 82.5,160.5 Z"/></g>
<g><path style="opacity:1" fill="#1e1e1e" d="M 82.5,160.5 C 83.2389,160.631 83.9056,160.464 84.5,160C 83.2888,159.107 83.2888,158.274 84.5,157.5C 85.855,159.523 86.1883,161.523 85.5,163.5C 84.1451,162.812 83.1451,161.812 82.5,160.5 Z"/></g>
<g><path style="opacity:1" fill="#eaeaeb" d="M 81.5,174.5 C 80.4324,175.434 79.099,175.768 77.5,175.5C 56.3954,173.752 35.7288,176.086 15.5,182.5C 15.1667,182.167 14.8333,181.833 14.5,181.5C 15.4021,178.96 16.4021,176.46 17.5,174C 15.2866,171.919 12.6199,170.585 9.5,170C 8.36589,168.984 8.69923,168.317 10.5,168C 25.5709,163.718 40.9043,161.384 56.5,161C 64.2494,166.542 72.5828,171.042 81.5,174.5 Z"/></g>
<g><path style="opacity:1" fill="#ebebeb" d="M 167.5,160.5 C 183.847,161.502 199.847,164.335 215.5,169C 212.421,170.411 209.421,171.911 206.5,173.5C 207.5,176.167 208.5,178.833 209.5,181.5C 204.819,181.675 200.153,180.841 195.5,179C 186.214,177.339 176.881,176.006 167.5,175C 158.132,174.839 148.798,175.173 139.5,176C 149.669,172.088 159.002,166.921 167.5,160.5 Z"/></g>
<g><path style="opacity:1" fill="#252525" d="M 165.5,164.5 C 169.456,165.053 169.456,165.886 165.5,167C 169.449,168.687 169.449,170.187 165.5,171.5C 164.833,171.333 164.167,171.167 163.5,171C 167.07,170.411 167.404,169.077 164.5,167C 164.743,166.098 165.077,165.265 165.5,164.5 Z"/></g>
<g><path style="opacity:1" fill="#3b3b3c" d="M 51.5,164.5 C 53.0744,164.937 54.2411,165.937 55,167.5C 55.2492,166.376 55.7492,165.376 56.5,164.5C 57.8333,166.833 57.8333,169.167 56.5,171.5C 55.6667,170.5 54.8333,169.5 54,168.5C 53.7508,169.624 53.2508,170.624 52.5,171.5C 51.5258,169.257 51.1924,166.924 51.5,164.5 Z"/></g>
<g><path style="opacity:1" fill="#0c0c0c" d="M 176.5,165.5 C 177.239,165.369 177.906,165.536 178.5,166C 177.123,173.342 176.456,173.176 176.5,165.5 Z"/></g>
<g><path style="opacity:1" fill="#202020" d="M 185.5,166.5 C 187.335,167.122 188.502,168.456 189,170.5C 189.249,169.376 189.749,168.376 190.5,167.5C 190.833,167.667 191.167,167.833 191.5,168C 190.762,174.069 189.262,174.569 187,169.5C 186.581,170.672 185.915,171.672 185,172.5C 184.51,170.455 184.677,168.455 185.5,166.5 Z"/></g>
<g><path style="opacity:1" fill="#272728" d="M 179.5,165.5 C 181.308,165.491 182.975,165.991 184.5,167C 181.456,167.359 181.122,168.026 183.5,169C 179.5,170 179.5,171 183.5,172C 181.741,172.798 180.074,172.631 178.5,171.5C 179.348,169.591 179.682,167.591 179.5,165.5 Z"/></g>
<g><path style="opacity:1" fill="#070707" d="M 37.5,172.5 C 37.7035,170.61 37.0368,169.11 35.5,168C 37.4731,167.462 38.4731,168.296 38.5,170.5C 38.4573,171.416 38.1239,172.083 37.5,172.5 Z"/></g>
<g><path style="opacity:1" fill="#313131" d="M 44.5,165.5 C 45.675,165.281 46.675,165.614 47.5,166.5C 48.1279,168.258 49.1279,169.758 50.5,171C 49.3284,171.353 48.1618,171.187 47,170.5C 46.0546,170.905 45.3879,171.572 45,172.5C 44.5034,170.19 44.3367,167.857 44.5,165.5 Z"/></g>
<g><path style="opacity:1" fill="#151515" d="M 170.5,165.5 C 176.167,165.664 176.5,165.997 171.5,166.5C 171.5,167.833 171.5,169.167 171.5,170.5C 172.552,170.351 173.552,170.517 174.5,171C 169.711,171.845 168.377,170.011 170.5,165.5 Z"/></g>
<g><path style="opacity:1" fill="#2d2d2e" d="M 194.5,167.5 C 199.787,168.961 199.453,169.628 193.5,169.5C 193.657,170.873 193.49,172.207 193,173.5C 191.337,171.111 191.837,169.111 194.5,167.5 Z"/></g>
<g><path style="opacity:1" fill="#252526" d="M 199.5,168.5 C 203.708,169.285 204.042,170.118 200.5,171C 203.276,172.779 202.943,173.779 199.5,174C 200.956,174.423 201.456,175.256 201,176.5C 199.795,175.929 198.628,175.262 197.5,174.5C 198.372,172.55 199.039,170.55 199.5,168.5 Z"/></g>
<g><path style="opacity:1" fill="#2b2b2b" d="M 28.5,172.5 C 27.8826,172.389 27.3826,172.056 27,171.5C 27.2626,172.951 27.0959,174.284 26.5,175.5C 24.9966,173.204 24.6632,170.871 25.5,168.5C 27.2882,169.283 28.2882,170.616 28.5,172.5 Z"/></g>
<g><path style="opacity:1" fill="#303031" d="M 37.5,172.5 C 36.7387,173.391 35.7387,174.058 34.5,174.5C 32.694,172.303 32.3607,169.97 33.5,167.5C 34.4519,169.045 34.7852,170.712 34.5,172.5C 35.5,172.5 36.5,172.5 37.5,172.5 Z"/></g>
<g><path style="opacity:1" fill="#1c1c1c" d="M 21.5,169.5 C 23.3258,171.455 23.8258,173.788 23,176.5C 22.023,174.26 21.523,171.927 21.5,169.5 Z"/></g>
<g><path style="opacity:1" fill="#151515" d="M 28.5,172.5 C 29.1903,171.12 29.5236,169.786 29.5,168.5C 31.1511,170.402 31.4845,172.402 30.5,174.5C 29.4777,174.145 28.811,173.478 28.5,172.5 Z"/></g>
<g><path style="opacity:1" fill="#8f8f8f" d="M 81.5,174.5 C 82.4734,174.987 83.4734,175.487 84.5,176C 81.9615,176.796 79.6282,176.629 77.5,175.5C 79.099,175.768 80.4324,175.434 81.5,174.5 Z"/></g>
<g><path style="opacity:1" fill="#131313" d="M 160.5,195.5 C 162.76,196.238 162.927,197.238 161,198.5C 159.272,197.648 159.105,196.648 160.5,195.5 Z"/></g>
<g><path style="opacity:1" fill="#131313" d="M 70.5,209.5 C 71.388,206.946 71.7214,204.279 71.5,201.5C 70.448,201.351 69.448,201.517 68.5,202C 69.3366,203.011 69.67,204.178 69.5,205.5C 68.1667,205.5 66.8333,205.5 65.5,205.5C 66.6843,204.312 66.6843,203.145 65.5,202C 63.5273,201.505 61.5273,201.338 59.5,201.5C 59.2108,205.106 59.5442,208.606 60.5,212C 59.2068,212.49 57.8734,212.657 56.5,212.5C 56.5,208.833 56.5,205.167 56.5,201.5C 55.5,201.5 54.5,201.5 53.5,201.5C 53.2108,205.106 53.5442,208.606 54.5,212C 52.8333,212.667 51.1667,212.667 49.5,212C 50.4558,208.606 50.7892,205.106 50.5,201.5C 45.8215,201.334 41.1548,201.501 36.5,202C 39.1997,202.949 40.033,204.783 39,207.5C 34.5817,208.599 34.415,210.099 38.5,212C 35.4038,212.927 33.0704,211.927 31.5,209C 36.4608,208.096 37.4608,205.763 34.5,202C 32.5273,201.505 30.5273,201.338 28.5,201.5C 28.2108,205.106 28.5442,208.606 29.5,212C 28.2068,212.49 26.8734,212.657 25.5,212.5C 25.5,208.833 25.5,205.167 25.5,201.5C 24.5,201.5 23.5,201.5 22.5,201.5C 22.2108,205.106 22.5442,208.606 23.5,212C 21.8333,212.667 20.1667,212.667 18.5,212C 19.3802,210.644 19.7135,209.144 19.5,207.5C 17.6412,207.461 16.3079,208.294 15.5,210C 11.9733,210.882 11.3066,210.382 13.5,208.5C 12.9747,207.808 12.3081,207.308 11.5,207C 12.3081,206.692 12.9747,206.192 13.5,205.5C 10.4778,204.996 9.31112,203.329 10,200.5C 15.6778,198.338 17.8445,200.338 16.5,206.5C 17.5,206.5 18.5,206.5 19.5,206.5C 19.7394,204.533 19.4061,202.699 18.5,201C 29.1667,200.667 39.8333,200.333 50.5,200C 49.5725,197.228 50.7392,195.728 54,195.5C 57.5154,195.484 59.3487,197.15 59.5,200.5C 65.1764,200.334 70.8431,200.501 76.5,201C 74.623,204.494 73.9564,208.327 74.5,212.5C 73.1266,212.657 71.7932,212.49 70.5,212C 71.7736,211.023 71.7736,210.189 70.5,209.5 Z"/></g>
<g><path style="opacity:1" fill="#f9f9f9" d="M 53.5,196.5 C 55.9118,196.694 56.9118,198.027 56.5,200.5C 55.5,200.5 54.5,200.5 53.5,200.5C 53.5,199.167 53.5,197.833 53.5,196.5 Z"/></g>
<g><path style="opacity:1" fill="#121212" d="M 110.5,204.5 C 110.5,204.167 110.5,203.833 110.5,203.5C 111.978,203.762 113.311,203.429 114.5,202.5C 109.88,201.507 105.214,201.173 100.5,201.5C 100.5,205.167 100.5,208.833 100.5,212.5C 99.1266,212.657 97.7932,212.49 96.5,212C 97.6956,211.346 97.6956,210.846 96.5,210.5C 90.553,212.052 88.553,209.885 90.5,204C 91.8333,203.333 93.1667,203.333 94.5,204C 91.4133,207.882 92.4133,209.716 97.5,209.5C 97.8588,207.234 97.1922,205.401 95.5,204C 96.3081,203.692 96.9747,203.192 97.5,202.5C 93.8927,201.511 90.226,201.177 86.5,201.5C 86.2108,205.106 86.5442,208.606 87.5,212C 86.2068,212.49 84.8734,212.657 83.5,212.5C 84.0436,208.327 83.377,204.494 81.5,201C 82.8586,199.796 83.8586,198.296 84.5,196.5C 85.7678,195.572 87.1011,195.405 88.5,196C 86.9632,197.11 86.2965,198.61 86.5,200.5C 89.5184,200.665 92.5184,200.498 95.5,200C 94.1218,198.287 92.4552,196.953 90.5,196C 93.8825,195.691 96.5491,197.024 98.5,200C 112.833,200.333 127.167,200.667 141.5,201C 140.28,202.525 139.613,204.359 139.5,206.5C 141.944,211.604 140.61,213.437 135.5,212C 137.059,209.358 136.725,207.025 134.5,205C 135.973,204.29 136.64,203.124 136.5,201.5C 132.167,201.5 127.833,201.5 123.5,201.5C 123.5,205.167 123.5,208.833 123.5,212.5C 122.127,212.657 120.793,212.49 119.5,212C 120.456,208.606 120.789,205.106 120.5,201.5C 119.167,201.5 117.833,201.5 116.5,201.5C 116.211,205.106 116.544,208.606 117.5,212C 116.167,212.667 114.833,212.667 113.5,212C 114.435,209.619 114.768,207.119 114.5,204.5C 113.167,204.5 111.833,204.5 110.5,204.5 Z"/></g>
<g><path style="opacity:1" fill="#0f0f0f" d="M 156.5,207.5 C 151.329,208.873 151.329,210.039 156.5,211C 153.255,213.19 150.589,212.523 148.5,209C 152.19,208.31 153.357,206.143 152,202.5C 150.601,201.773 149.101,201.273 147.5,201C 157.167,200.333 166.833,200.333 176.5,201C 174.5,201.333 172.5,201.667 170.5,202C 172.708,202.936 174.042,204.602 174.5,207C 168.845,208.207 168.512,209.54 173.5,211C 170.255,213.19 167.589,212.523 165.5,209C 170.461,208.096 171.461,205.763 168.5,202C 166.527,201.505 164.527,201.338 162.5,201.5C 162.211,205.106 162.544,208.606 163.5,212C 161.833,212.667 160.167,212.667 158.5,212C 159.337,210.989 159.67,209.822 159.5,208.5C 158.209,208.737 157.209,208.404 156.5,207.5 Z"/></g>
<g><path style="opacity:1" fill="#0b0b0b" d="M 186.5,209.5 C 187.786,206.665 187.786,203.832 186.5,201C 195.833,200.333 205.167,200.333 214.5,201C 213.28,202.525 212.613,204.359 212.5,206.5C 214.944,211.604 213.61,213.437 208.5,212C 209.076,208.432 209.41,204.932 209.5,201.5C 205.167,201.5 200.833,201.5 196.5,201.5C 196.211,205.106 196.544,208.606 197.5,212C 195.833,212.667 194.167,212.667 192.5,212C 193.456,208.606 193.789,205.106 193.5,201.5C 192.5,201.5 191.5,201.5 190.5,201.5C 190.5,205.167 190.5,208.833 190.5,212.5C 189.127,212.657 187.793,212.49 186.5,212C 187.774,211.023 187.774,210.189 186.5,209.5 Z"/></g>
<g><path style="opacity:1" fill="#0f0f10" d="M 104.5,203.5 C 105.492,203.328 106.158,203.662 106.5,204.5C 107.841,206.12 109.674,207.12 112,207.5C 112.49,208.793 112.657,210.127 112.5,211.5C 111.167,211.5 109.833,211.5 108.5,211.5C 109.234,210.292 109.567,208.959 109.5,207.5C 106.843,207.838 104.51,207.171 102.5,205.5C 102.855,204.478 103.522,203.811 104.5,203.5 Z"/></g>
<g><path style="opacity:1" fill="#7e7e7f" d="M 104.5,203.5 C 106.5,202.167 108.5,202.167 110.5,203.5C 110.5,203.833 110.5,204.167 110.5,204.5C 109.167,204.5 107.833,204.5 106.5,204.5C 106.158,203.662 105.492,203.328 104.5,203.5 Z"/></g>
<g><path style="opacity:1" fill="#2c2c2d" d="M 127.5,203.5 C 129.5,203.5 131.5,203.5 133.5,203.5C 135.72,209.444 133.72,211.944 127.5,211C 125.112,208.597 125.112,206.097 127.5,203.5 Z"/></g>
<g><path style="opacity:1" fill="#e9e9e9" d="M 156.5,207.5 C 157.035,204.762 156.035,202.928 153.5,202C 155.473,201.505 157.473,201.338 159.5,201.5C 159.5,203.5 159.5,205.5 159.5,207.5C 158.5,207.5 157.5,207.5 156.5,207.5 Z"/></g>
<g><path style="opacity:1" fill="#141414" d="M 201.5,203.5 C 203.167,203.5 204.833,203.5 206.5,203.5C 208.46,210.375 206.126,212.541 199.5,210C 198.261,207.298 198.927,205.132 201.5,203.5 Z"/></g>
<g><path style="opacity:1" fill="#191919" d="M 44.5,203.5 C 50.1667,203.664 50.5,203.997 45.5,204.5C 45.2436,206.792 45.5769,208.959 46.5,211C 43.7999,212.862 42.1332,212.028 41.5,208.5C 41.7573,206.308 42.7573,204.641 44.5,203.5 Z"/></g>
<g><path style="opacity:1" fill="#e0e0e0" d="M 70.5,209.5 C 67.0504,210.244 65.3838,208.91 65.5,205.5C 66.8333,205.5 68.1667,205.5 69.5,205.5C 69.67,204.178 69.3366,203.011 68.5,202C 69.448,201.517 70.448,201.351 71.5,201.5C 71.7214,204.279 71.388,206.946 70.5,209.5 Z"/></g>
<g><path style="opacity:1" fill="#111111" d="M 65.5,205.5 C 65.3838,208.91 67.0504,210.244 70.5,209.5C 66.0375,212.436 63.3708,211.102 62.5,205.5C 63.5,205.5 64.5,205.5 65.5,205.5 Z"/></g>
<g><path style="opacity:1" fill="#171718" d="M 186.5,209.5 C 186.389,210.117 186.056,210.617 185.5,211C 183.5,211.667 181.5,211.667 179.5,211C 178.386,209.43 177.053,208.097 175.5,207C 177.167,206.667 178.833,206.333 180.5,206C 178.845,204.556 178.178,202.722 178.5,200.5C 181.276,200.089 181.943,200.922 180.5,203C 181.5,206.333 182.5,206.333 183.5,203C 182.062,200.634 182.562,200.134 185,201.5C 185.667,202.833 185.667,204.167 185,205.5C 178.955,208.378 179.455,209.711 186.5,209.5 Z"/></g>
<g><path style="opacity:1" fill="#cdcdcd" d="M 202.5,204.5 C 204.976,206.121 205.142,208.121 203,210.5C 202.505,208.527 202.338,206.527 202.5,204.5 Z"/></g>
<g><path style="opacity:1" fill="#080808" d="M 108.5,211.5 C 108.577,212.75 109.244,213.583 110.5,214C 107.997,214.874 105.997,214.207 104.5,212C 105.793,211.51 107.127,211.343 108.5,211.5 Z"/></g>
</svg>
