<?xml version="1.0" encoding="UTF-8"?>
<!DOCTYPE svg PUBLIC "-//W3C//DTD SVG 1.1//EN" "http://www.w3.org/Graphics/SVG/1.1/DTD/svg11.dtd">
<svg xmlns="http://www.w3.org/2000/svg" version="1.1" width="225px" height="225px" style="shape-rendering:geometricPrecision; text-rendering:geometricPrecision; image-rendering:optimizeQuality; fill-rule:evenodd; clip-rule:evenodd" xmlns:xlink="http://www.w3.org/1999/xlink">
<g><path style="opacity:1" fill="#fafafb" d="M -0.5,-0.5 C 33.8333,-0.5 68.1667,-0.5 102.5,-0.5C 100.052,0.473067 97.3854,0.8064 94.5,0.5C 94.5,4.16667 94.5,7.83333 94.5,11.5C 92.1046,12.3635 89.7713,12.3635 87.5,11.5C 86.0512,9.38945 85.0512,7.05611 84.5,4.5C 80.2064,4.30616 76.0397,5.30616 72,7.5C 72.2896,10.5511 73.1229,13.5511 74.5,16.5C 68.3907,22.4464 64.724,21.1131 63.5,12.5C 58.9717,13.1779 54.8051,14.8446 51,17.5C 50.3333,18.5 50.3333,19.5 51,20.5C 52.5555,22.4434 53.7221,24.6101 54.5,27C 52.9395,29.2671 50.9395,30.6005 48.5,31C 46.2878,28.9575 44.2878,26.7908 42.5,24.5C 39.2407,27.0478 36.074,29.7145 33,32.5C 32.3333,33.1667 32.3333,33.8333 33,34.5C 35.0176,36.3501 36.8509,38.3501 38.5,40.5C 37.289,42.4219 35.9557,44.2552 34.5,46C 31.7506,44.7043 28.9172,43.2043 26,41.5C 22.0848,44.3923 19.4182,48.0589 18,52.5C 20.5,54.3333 23,56.1667 25.5,58C 24.5399,59.4194 23.7065,60.9194 23,62.5C 22.2753,63.0585 21.4419,63.3918 20.5,63.5C 17.8273,62.2408 15.1607,61.4075 12.5,61C 9.47973,64.8153 8.1464,68.982 8.5,73.5C 10.5,74.5 12.5,75.5 14.5,76.5C 15.4492,79.1258 15.4492,81.7925 14.5,84.5C 10.8641,83.6745 7.19742,83.0078 3.5,82.5C 2.19271,87.0662 1.52604,91.7329 1.5,96.5C 4.48237,96.9629 7.48237,97.2962 10.5,97.5C 10.5,100.167 10.5,102.833 10.5,105.5C 6.83333,105.5 3.16667,105.5 -0.5,105.5C -0.5,70.1667 -0.5,34.8333 -0.5,-0.5 Z"/></g>
<g><path style="opacity:1" fill="#fafbfb" d="M 122.5,-0.5 C 156.5,-0.5 190.5,-0.5 224.5,-0.5C 224.5,34.8333 224.5,70.1667 224.5,105.5C 220.833,105.5 217.167,105.5 213.5,105.5C 213.187,102.753 213.52,100.086 214.5,97.5C 217.096,96.5178 219.762,95.8511 222.5,95.5C 222.414,91.1434 222.08,86.81 221.5,82.5C 217.561,82.9588 213.727,82.9588 210,82.5C 207.145,77.4611 208.645,74.6278 214.5,74C 216.787,71.7571 216.953,69.2571 215,66.5C 214.152,64.1257 212.819,62.1257 211,60.5C 208.667,61.5 206.333,62.5 204,63.5C 201.446,62.5747 199.946,60.7414 199.5,58C 201.841,55.8315 204.175,53.6649 206.5,51.5C 204.539,47.742 202.205,44.242 199.5,41C 196.431,42.139 193.598,43.9723 191,46.5C 188.243,44.7957 186.91,42.4623 187,39.5C 188.333,38.1667 189.667,36.8333 191,35.5C 189.663,30.7954 186.663,27.1287 182,24.5C 180.012,26.8156 177.678,28.8156 175,30.5C 172.88,29.527 171.047,28.1936 169.5,26.5C 171.051,24.1156 172.385,21.6156 173.5,19C 170.062,16.5043 166.562,14.0043 163,11.5C 160.709,13.751 159.209,16.4176 158.5,19.5C 154.973,19.7366 152.306,18.4033 150.5,15.5C 152.092,12.725 153.092,9.72504 153.5,6.5C 148.728,5.90725 144.061,4.90725 139.5,3.5C 139.149,6.23769 138.482,8.90436 137.5,11.5C 135.926,12.6309 134.259,12.7975 132.5,12C 130.623,8.50649 129.956,4.67316 130.5,0.5C 127.615,0.8064 124.948,0.473067 122.5,-0.5 Z"/></g>
<g><path style="opacity:1" fill="#fafafb" d="M 224.5,119.5 C 224.5,154.5 224.5,189.5 224.5,224.5C 190.5,224.5 156.5,224.5 122.5,224.5C 124.948,223.527 127.615,223.194 130.5,223.5C 130.603,220.781 130.269,218.115 129.5,215.5C 131.312,212.501 133.812,211.835 137,213.5C 138.252,216.014 138.752,218.68 138.5,221.5C 143.882,220.555 148.548,218.388 152.5,215C 148.819,209.539 150.153,206.039 156.5,204.5C 158.887,206.607 160.22,209.273 160.5,212.5C 165.106,211.447 169.273,209.447 173,206.5C 172.573,203.463 171.406,200.63 169.5,198C 170.688,196.056 172.354,194.556 174.5,193.5C 176.867,195.704 179.367,197.704 182,199.5C 186.191,196.989 189.191,193.656 191,189.5C 188.982,187.65 187.149,185.65 185.5,183.5C 186.648,181.851 187.981,180.351 189.5,179C 192.181,180.113 194.847,181.613 197.5,183.5C 200.787,180.924 203.62,177.924 206,174.5C 206.749,173.365 206.583,172.365 205.5,171.5C 202.772,170.14 200.439,168.307 198.5,166C 199.625,164.037 200.959,162.204 202.5,160.5C 205.415,161.976 208.415,162.81 211.5,163C 214.03,159.461 215.53,155.627 216,151.5C 212.603,150.734 210.103,148.901 208.5,146C 208.943,144.175 209.277,142.342 209.5,140.5C 213.197,141.008 216.864,141.674 220.5,142.5C 221.763,137.951 222.43,133.284 222.5,128.5C 219.518,128.037 216.518,127.704 213.5,127.5C 213.5,124.833 213.5,122.167 213.5,119.5C 217.167,119.5 220.833,119.5 224.5,119.5 Z"/></g>
<g><path style="opacity:1" fill="#454454" d="M 102.5,-0.5 C 104.167,-0.5 105.833,-0.5 107.5,-0.5C 108.207,2.78611 108.54,6.11945 108.5,9.5C 111.167,9.5 113.833,9.5 116.5,9.5C 116.5,6.16667 116.5,2.83333 116.5,-0.5C 118.5,-0.5 120.5,-0.5 122.5,-0.5C 124.948,0.473067 127.615,0.8064 130.5,0.5C 129.956,4.67316 130.623,8.50649 132.5,12C 134.259,12.7975 135.926,12.6309 137.5,11.5C 138.482,8.90436 139.149,6.23769 139.5,3.5C 144.061,4.90725 148.728,5.90725 153.5,6.5C 153.092,9.72504 152.092,12.725 150.5,15.5C 152.306,18.4033 154.973,19.7366 158.5,19.5C 159.209,16.4176 160.709,13.751 163,11.5C 166.562,14.0043 170.062,16.5043 173.5,19C 172.385,21.6156 171.051,24.1156 169.5,26.5C 171.047,28.1936 172.88,29.527 175,30.5C 177.678,28.8156 180.012,26.8156 182,24.5C 186.663,27.1287 189.663,30.7954 191,35.5C 189.667,36.8333 188.333,38.1667 187,39.5C 186.91,42.4623 188.243,44.7957 191,46.5C 193.598,43.9723 196.431,42.139 199.5,41C 202.205,44.242 204.539,47.742 206.5,51.5C 204.175,53.6649 201.841,55.8315 199.5,58C 199.946,60.7414 201.446,62.5747 204,63.5C 206.333,62.5 208.667,61.5 211,60.5C 212.819,62.1257 214.152,64.1257 215,66.5C 216.953,69.2571 216.787,71.7571 214.5,74C 208.645,74.6278 207.145,77.4611 210,82.5C 213.727,82.9588 217.561,82.9588 221.5,82.5C 222.08,86.81 222.414,91.1434 222.5,95.5C 219.762,95.8511 217.096,96.5178 214.5,97.5C 213.52,100.086 213.187,102.753 213.5,105.5C 217.167,105.5 220.833,105.5 224.5,105.5C 224.5,110.167 224.5,114.833 224.5,119.5C 220.833,119.5 217.167,119.5 213.5,119.5C 213.5,122.167 213.5,124.833 213.5,127.5C 216.518,127.704 219.518,128.037 222.5,128.5C 222.43,133.284 221.763,137.951 220.5,142.5C 216.864,141.674 213.197,141.008 209.5,140.5C 209.277,142.342 208.943,144.175 208.5,146C 210.103,148.901 212.603,150.734 216,151.5C 215.53,155.627 214.03,159.461 211.5,163C 208.415,162.81 205.415,161.976 202.5,160.5C 200.959,162.204 199.625,164.037 198.5,166C 200.439,168.307 202.772,170.14 205.5,171.5C 206.583,172.365 206.749,173.365 206,174.5C 203.62,177.924 200.787,180.924 197.5,183.5C 194.847,181.613 192.181,180.113 189.5,179C 187.981,180.351 186.648,181.851 185.5,183.5C 187.149,185.65 188.982,187.65 191,189.5C 189.191,193.656 186.191,196.989 182,199.5C 179.367,197.704 176.867,195.704 174.5,193.5C 172.354,194.556 170.688,196.056 169.5,198C 171.406,200.63 172.573,203.463 173,206.5C 169.273,209.447 165.106,211.447 160.5,212.5C 160.22,209.273 158.887,206.607 156.5,204.5C 150.153,206.039 148.819,209.539 152.5,215C 148.548,218.388 143.882,220.555 138.5,221.5C 138.752,218.68 138.252,216.014 137,213.5C 133.812,211.835 131.312,212.501 129.5,215.5C 130.269,218.115 130.603,220.781 130.5,223.5C 127.615,223.194 124.948,223.527 122.5,224.5C 120.167,224.5 117.833,224.5 115.5,224.5C 115.5,221.167 115.5,217.833 115.5,214.5C 112.833,214.5 110.167,214.5 107.5,214.5C 107.5,217.833 107.5,221.167 107.5,224.5C 105.167,224.5 102.833,224.5 100.5,224.5C 98.3926,223.532 96.0593,223.198 93.5,223.5C 93.5524,219.802 93.8857,216.135 94.5,212.5C 92.0799,212.708 89.7466,212.374 87.5,211.5C 85.7357,214.215 84.7357,217.215 84.5,220.5C 79.7279,219.907 75.0612,218.907 70.5,217.5C 71.2074,213.752 72.2074,210.086 73.5,206.5C 71.323,206.414 69.323,205.747 67.5,204.5C 65.6002,206.619 63.9336,208.953 62.5,211.5C 61.635,212.583 60.635,212.749 59.5,212C 56.5815,210.291 53.7482,208.458 51,206.5C 50.8403,203.102 52.007,200.102 54.5,197.5C 52.665,195.127 50.3317,193.961 47.5,194C 45.6558,196.343 43.6558,198.51 41.5,200.5C 38.0418,197.544 34.7084,194.377 31.5,191C 33.7486,188.495 35.7486,185.828 37.5,183C 36.4935,179.969 34.4935,178.635 31.5,179C 29.6789,180.743 27.6789,182.243 25.5,183.5C 22.275,180.44 19.6083,176.94 17.5,173C 19.2895,170.836 21.4562,169.002 24,167.5C 24.3921,164.613 23.3921,162.28 21,160.5C 18.2558,161.303 15.5891,162.303 13,163.5C 10.3213,160.324 8.48801,156.657 7.5,152.5C 7.60816,151.558 7.94149,150.725 8.5,150C 10.7619,149.358 12.9285,148.525 15,147.5C 15.3336,145.153 15.167,142.819 14.5,140.5C 10.7674,140.87 7.1007,141.537 3.5,142.5C 2.96267,137.814 2.296,133.147 1.5,128.5C 4.45517,127.841 7.45517,127.508 10.5,127.5C 10.5,124.833 10.5,122.167 10.5,119.5C 6.83333,119.5 3.16667,119.5 -0.5,119.5C -0.5,114.833 -0.5,110.167 -0.5,105.5C 3.16667,105.5 6.83333,105.5 10.5,105.5C 10.5,102.833 10.5,100.167 10.5,97.5C 7.48237,97.2962 4.48237,96.9629 1.5,96.5C 1.52604,91.7329 2.19271,87.0662 3.5,82.5C 7.19742,83.0078 10.8641,83.6745 14.5,84.5C 15.4492,81.7925 15.4492,79.1258 14.5,76.5C 12.5,75.5 10.5,74.5 8.5,73.5C 8.1464,68.982 9.47973,64.8153 12.5,61C 15.1607,61.4075 17.8273,62.2408 20.5,63.5C 21.4419,63.3918 22.2753,63.0585 23,62.5C 23.7065,60.9194 24.5399,59.4194 25.5,58C 23,56.1667 20.5,54.3333 18,52.5C 19.4182,48.0589 22.0848,44.3923 26,41.5C 28.9172,43.2043 31.7506,44.7043 34.5,46C 35.9557,44.2552 37.289,42.4219 38.5,40.5C 36.8509,38.3501 35.0176,36.3501 33,34.5C 32.3333,33.8333 32.3333,33.1667 33,32.5C 36.074,29.7145 39.2407,27.0478 42.5,24.5C 44.2878,26.7908 46.2878,28.9575 48.5,31C 50.9395,30.6005 52.9395,29.2671 54.5,27C 53.7221,24.6101 52.5555,22.4434 51,20.5C 50.3333,19.5 50.3333,18.5 51,17.5C 54.8051,14.8446 58.9717,13.1779 63.5,12.5C 64.724,21.1131 68.3907,22.4464 74.5,16.5C 73.1229,13.5511 72.2896,10.5511 72,7.5C 76.0397,5.30616 80.2064,4.30616 84.5,4.5C 85.0512,7.05611 86.0512,9.38945 87.5,11.5C 89.7713,12.3635 92.1046,12.3635 94.5,11.5C 94.5,7.83333 94.5,4.16667 94.5,0.5C 97.3854,0.8064 100.052,0.473067 102.5,-0.5 Z"/></g>
<g><path style="opacity:1" fill="#ececf1" d="M 16.5,140.5 C 17.4732,142.25 18.8065,143.75 20.5,145C 21.1081,147.184 20.4414,149.184 18.5,151C 20.2117,153.692 22.2117,154.026 24.5,152C 24.7014,149.301 24.3681,146.468 23.5,143.5C 23.8555,142.478 24.5222,141.811 25.5,141.5C 27.0133,142.309 28.6799,142.476 30.5,142C 29.3147,143.353 27.9814,144.52 26.5,145.5C 27.1667,145.833 27.8333,146.167 28.5,146.5C 30.7617,145.533 33.095,144.866 35.5,144.5C 36.1667,144.5 36.5,144.833 36.5,145.5C 34.0763,146.03 31.743,146.864 29.5,148C 28.0545,150.493 28.7211,152.327 31.5,153.5C 35.6176,152.815 37.6176,150.482 37.5,146.5C 38.6999,148.335 39.6999,150.169 40.5,152C 40.4301,152.765 40.0967,153.265 39.5,153.5C 39.6309,152.624 39.2975,151.957 38.5,151.5C 36.7105,152.877 34.7105,153.877 32.5,154.5C 31.1667,155.167 31.1667,155.833 32.5,156.5C 34.5266,155.487 36.5266,154.487 38.5,153.5C 39.209,154.404 40.209,154.737 41.5,154.5C 41.7162,151.744 42.7162,149.41 44.5,147.5C 47.1535,151.463 49.8202,155.463 52.5,159.5C 49.2699,159.439 47.4365,157.772 47,154.5C 46.1667,155.333 45.3333,156.167 44.5,157C 45.0694,159.432 46.0694,161.599 47.5,163.5C 45.856,164.366 44.1893,164.866 42.5,165C 44.2446,163.308 44.5779,161.475 43.5,159.5C 41.1455,161.188 39.1455,163.188 37.5,165.5C 36.5,165.167 35.8333,164.5 35.5,163.5C 38.6192,161.39 40.9525,158.723 42.5,155.5C 39.6239,155.927 36.7906,156.594 34,157.5C 32.9701,157.836 32.4701,158.503 32.5,159.5C 30.8762,159.36 29.7096,160.027 29,161.5C 27.8604,158.982 26.6937,158.982 25.5,161.5C 24.1733,160.2 22.84,158.867 21.5,157.5C 14.1704,162.502 10.1704,160.502 9.5,151.5C 12.4261,150.539 15.4261,149.873 18.5,149.5C 17.8333,146.5 17.1667,143.5 16.5,140.5 Z"/></g>
<g><path style="opacity:1" fill="#cfccd7" d="M 221.5,107.5 C 222.479,110.625 222.813,113.958 222.5,117.5C 218.833,117.5 215.167,117.5 211.5,117.5C 211.5,121.167 211.5,124.833 211.5,128.5C 211.081,124.533 210.081,120.7 208.5,117C 209.416,116.722 210.082,116.222 210.5,115.5C 211.5,115.167 212.167,114.5 212.5,113.5C 212.833,113.5 213.167,113.5 213.5,113.5C 213.5,114.5 213.5,115.5 213.5,116.5C 216.167,116.5 218.833,116.5 221.5,116.5C 221.5,113.5 221.5,110.5 221.5,107.5 Z"/></g>
<g><path style="opacity:1" fill="#818398" d="M 2.5,107.5 C 2.5,110.5 2.5,113.5 2.5,116.5C 5.7131,116.19 8.7131,116.523 11.5,117.5C 8.16667,117.5 4.83333,117.5 1.5,117.5C 1.18723,113.958 1.52056,110.625 2.5,107.5 Z"/></g>
<g><path style="opacity:1" fill="#b1acad" d="M 187.5,102.5 C 188.477,105.287 188.81,108.287 188.5,111.5C 189.5,111.5 190.5,111.5 191.5,111.5C 191.5,111.833 191.5,112.167 191.5,112.5C 191.5,112.833 191.5,113.167 191.5,113.5C 191.167,114.167 190.833,114.833 190.5,115.5C 189.778,115.082 189.278,114.416 189,113.5C 188.79,115.058 188.29,116.391 187.5,117.5C 187.5,112.5 187.5,107.5 187.5,102.5 Z"/></g>
<g><path style="opacity:1" fill="#5e5d6b" d="M 37.5,97.5 C 37.2322,99.099 37.5655,100.432 38.5,101.5C 38.5,108.167 38.5,114.833 38.5,121.5C 37.596,122.209 37.2627,123.209 37.5,124.5C 36.5489,123.081 36.2155,121.415 36.5,119.5C 36.175,111.981 36.5084,104.648 37.5,97.5 Z"/></g>
<g><path style="opacity:1" fill="#f2f6f6" d="M 38.5,121.5 C 38.5,114.833 38.5,108.167 38.5,101.5C 45.3591,68.1393 65.3591,47.306 98.5,39C 139.098,35.2097 167.265,52.0431 183,89.5C 191.885,127.874 179.719,157.374 146.5,178C 106.882,194.787 74.3818,185.954 49,151.5C 43.5042,142.18 40.0042,132.18 38.5,121.5 Z"/></g>
<g><path style="opacity:1" fill="#646c62" d="M 63.5,120.5 C 68.9526,123.133 69.9526,127.133 66.5,132.5C 73.1357,133.756 75.8023,137.756 74.5,144.5C 81.3802,144.212 84.8802,147.546 85,154.5C 87.7372,153.39 90.5706,153.223 93.5,154C 95.1412,155.129 96.1412,156.629 96.5,158.5C 95.0384,157.542 93.7051,156.376 92.5,155C 88.9849,154.481 85.6516,154.814 82.5,156C 84.0135,152.571 83.3468,149.571 80.5,147C 77.0934,146.518 73.76,146.518 70.5,147C 75.5475,138.93 73.2142,134.43 63.5,133.5C 67.4916,129.132 67.4916,124.799 63.5,120.5 Z"/></g>
<g><path style="opacity:1" fill="#636a5e" d="M 157.5,92.5 C 155.784,98.9789 158.117,102.979 164.5,104.5C 156.562,109.436 156.562,114.269 164.5,119C 155.968,122.339 154.635,127.339 160.5,134C 158.19,134.497 155.857,134.663 153.5,134.5C 154.209,133.596 155.209,133.263 156.5,133.5C 153.857,127.044 155.523,122.211 161.5,119C 156.257,114.255 156.257,109.588 161.5,105C 155.618,102.108 154.285,97.9417 157.5,92.5 Z"/></g>
<g><path style="opacity:1" fill="#6b8aa8" d="M 177.5,107.5 C 182.539,107.451 182.705,108.118 178,109.5C 176.725,111.717 175.725,114.051 175,116.5C 166.714,120.39 162.881,117.724 163.5,108.5C 165.5,108.5 167.5,108.5 169.5,108.5C 167.135,114.806 168.802,116.472 174.5,113.5C 175.001,111.164 176.001,109.164 177.5,107.5 Z"/></g>
<g><path style="opacity:1" fill="#6c88a5" d="M 42.5,106.5 C 46.5777,106.26 48.7444,108.26 49,112.5C 54.5027,115.857 56.6694,114.19 55.5,107.5C 58.9304,106.755 60.597,108.089 60.5,111.5C 59.1396,116.847 55.8063,118.514 50.5,116.5C 48.4224,114.61 47.0891,112.276 46.5,109.5C 44.6684,108.943 43.3351,107.943 42.5,106.5 Z"/></g>
<g><path style="opacity:1" fill="#656a60" d="M 77.5,77.5 C 77.5,77.8333 77.5,78.1667 77.5,78.5C 76.791,79.404 75.791,79.7373 74.5,79.5C 75.8023,86.244 73.1357,90.244 66.5,91.5C 69.889,97.3843 68.5556,101.884 62.5,105C 67.6836,109.625 67.6836,114.292 62.5,119C 63.056,119.383 63.3893,119.883 63.5,120.5C 61.712,120.785 60.0453,120.452 58.5,119.5C 64.0238,117.714 65.8571,114.048 64,108.5C 62.786,106.951 61.286,105.785 59.5,105C 67.865,101.829 69.1983,96.996 63.5,90.5C 72.7669,89.624 75.6002,84.9573 72,76.5C 73.6995,77.4061 75.5328,77.7394 77.5,77.5 Z"/></g>
<g><path style="opacity:1" fill="#eaebf0" d="M 51.5,52.5 C 51.9202,54.674 51.9202,56.674 51.5,58.5C 52.4555,59.872 53.4555,61.2053 54.5,62.5C 45.9102,72.6811 40.2435,84.3477 37.5,97.5C 36.5084,104.648 36.175,111.981 36.5,119.5C 35.5489,118.081 35.2155,116.415 35.5,114.5C 35.5,113.833 35.5,113.167 35.5,112.5C 35.7448,107.536 35.0782,102.702 33.5,98C 36.9721,89.4166 34.3055,84.5833 25.5,83.5C 26.0736,82.4719 26.407,81.4719 26.5,80.5C 27.6652,81.4911 28.8319,82.4911 30,83.5C 32.3413,82.9931 32.8413,81.8265 31.5,80C 33.3126,80.0464 34.9793,79.8797 36.5,79.5C 34.3295,77.9138 31.9962,76.5804 29.5,75.5C 28.6143,74.675 28.281,73.675 28.5,72.5C 30.4233,72.795 32.0899,73.6283 33.5,75C 35.1667,75.6667 36.8333,75.6667 38.5,75C 36.3295,73.4138 33.9962,72.0804 31.5,71C 30.7476,70.3292 30.4142,69.4959 30.5,68.5C 31.7124,67.7701 32.7124,66.7701 33.5,65.5C 34.3081,65.8076 34.9747,66.3076 35.5,67C 34.3279,67.4186 33.3279,68.0853 32.5,69C 35.5541,69.8214 38.5541,69.6548 41.5,68.5C 33.6005,66.1714 32.7672,62.5047 39,57.5C 39.1151,59.1068 38.6151,60.6068 37.5,62C 37.6448,62.772 37.9781,63.4387 38.5,64C 40.5787,64.8077 42.5787,64.641 44.5,63.5C 42.8333,62.8333 41.1667,62.1667 39.5,61.5C 40.7069,57.7516 42.3735,57.585 44.5,61C 45.635,61.7494 46.635,61.5827 47.5,60.5C 44.7639,58.4307 42.4305,56.0974 40.5,53.5C 41.1174,53.3893 41.6174,53.056 42,52.5C 51.0781,60.5102 51.5781,60.0102 43.5,51C 46.4006,47.5301 47.7339,47.6968 47.5,51.5C 48.6888,52.4287 50.0222,52.762 51.5,52.5 Z"/></g>
<g><path style="opacity:1" fill="#ebf0e7" d="M 157.5,92.5 C 154.285,97.9417 155.618,102.108 161.5,105C 156.257,109.588 156.257,114.255 161.5,119C 155.523,122.211 153.857,127.044 156.5,133.5C 155.209,133.263 154.209,133.596 153.5,134.5C 151.5,134.5 150.5,135.5 150.5,137.5C 149.532,139.607 149.198,141.941 149.5,144.5C 142.715,144.281 139.048,147.614 138.5,154.5C 135.67,151.962 133.003,151.962 130.5,154.5C 127.351,155.16 125.851,157.16 126,160.5C 120.843,156.261 116.01,156.594 111.5,161.5C 110.735,160.388 109.735,159.721 108.5,159.5C 108.158,158.662 107.492,158.328 106.5,158.5C 105.726,157.853 104.726,157.52 103.5,157.5C 101.645,157.34 100.312,158.007 99.5,159.5C 98.391,159.443 97.391,159.11 96.5,158.5C 96.1412,156.629 95.1412,155.129 93.5,154C 90.5706,153.223 87.7372,153.39 85,154.5C 84.8802,147.546 81.3802,144.212 74.5,144.5C 75.8023,137.756 73.1357,133.756 66.5,132.5C 69.9526,127.133 68.9526,123.133 63.5,120.5C 63.3893,119.883 63.056,119.383 62.5,119C 67.6836,114.292 67.6836,109.625 62.5,105C 68.5556,101.884 69.889,97.3843 66.5,91.5C 73.1357,90.244 75.8023,86.244 74.5,79.5C 75.791,79.7373 76.791,79.404 77.5,78.5C 78.8734,78.6567 80.2068,78.49 81.5,78C 83.3308,75.0746 84.9974,72.2413 86.5,69.5C 88.9664,70.6341 91.633,70.8007 94.5,70C 96.0368,68.8904 96.7035,67.3904 96.5,65.5C 97.2216,65.0825 97.7216,64.4158 98,63.5C 103.441,67.9258 108.108,67.2591 112,61.5C 115.804,67.3771 120.471,68.0438 126,63.5C 127.725,70.3403 131.891,72.3403 138.5,69.5C 138.92,76.5936 142.586,79.5936 149.5,78.5C 149.184,81.9783 149.684,85.3117 151,88.5C 153.565,89.4704 155.732,90.8037 157.5,92.5 Z"/></g>
<g><path style="opacity:1" fill="#61685f" d="M 70.5,118.5 C 71.2328,124.198 73.0662,129.531 76,134.5C 79.6699,139.002 83.5032,143.335 87.5,147.5C 77.5468,141.2 71.5468,132.2 69.5,120.5C 69.3284,119.508 69.6618,118.842 70.5,118.5 Z"/></g>
<g><path style="opacity:1" fill="#b1b6af" d="M 70.5,107.5 C 70.5,111.167 70.5,114.833 70.5,118.5C 69.6618,118.842 69.3284,119.508 69.5,120.5C 68.596,119.791 68.2627,118.791 68.5,117.5C 69.1667,114.167 69.8333,110.833 70.5,107.5 Z"/></g>
<g><path style="opacity:1" fill="#616760" d="M 75.5,89.5 C 72.6633,95.1738 70.9967,101.174 70.5,107.5C 69.8333,110.833 69.1667,114.167 68.5,117.5C 68.3686,111.779 68.8686,106.112 70,100.5C 70.81,96.2131 72.6433,92.5464 75.5,89.5 Z"/></g>
<g><path style="opacity:1" fill="#656a63" d="M 134.5,75.5 C 150.409,85.3242 157.243,99.6575 155,118.5C 154.765,123.375 153.265,127.709 150.5,131.5C 158.517,108.888 153.184,90.2214 134.5,75.5 Z"/></g>
<g><path style="opacity:1" fill="#f4f5f5" d="M 221.5,107.5 C 221.5,110.5 221.5,113.5 221.5,116.5C 218.833,116.5 216.167,116.5 213.5,116.5C 213.5,115.5 213.5,114.5 213.5,113.5C 213.249,111.83 212.582,110.33 211.5,109C 205.922,108.836 201.589,106.502 198.5,102C 196.105,99.8549 193.938,100.022 192,102.5C 191.913,105.707 191.746,108.707 191.5,111.5C 190.5,111.5 189.5,111.5 188.5,111.5C 188.81,108.287 188.477,105.287 187.5,102.5C 186.78,94.009 184.447,86.009 180.5,78.5C 180.675,76.1556 181.842,74.489 184,73.5C 184.454,77.0752 185.954,80.0752 188.5,82.5C 188.47,83.4972 188.97,84.1639 190,84.5C 192.968,82.9217 196.135,82.255 199.5,82.5C 200.826,79.999 201.326,77.3323 201,74.5C 199.175,73.8971 197.341,73.2304 195.5,72.5C 191.734,63.8988 186.568,56.2321 180,49.5C 179.149,52.6124 177.983,52.9458 176.5,50.5C 174.946,52.9329 174.28,55.5995 174.5,58.5C 175.794,60.907 177.461,63.0737 179.5,65C 178.034,65.6355 176.7,66.4688 175.5,67.5C 174.289,66.7261 174.289,65.8928 175.5,65C 174.423,64.5304 173.423,64.6971 172.5,65.5C 152.178,41.9442 126.512,32.6108 95.5,37.5C 94.0779,37.2504 93.0779,36.417 92.5,35C 94.5253,32.3306 97.192,30.8306 100.5,30.5C 101.649,30.2089 102.316,29.3756 102.5,28C 101.841,25.5379 101.507,23.0379 101.5,20.5C 103.857,20.3367 106.19,20.5034 108.5,21C 106.522,21.4807 105.189,22.6473 104.5,24.5C 105.5,26.4797 106.833,28.1464 108.5,29.5C 111.017,28.9953 113.517,29.6619 116,31.5C 116.995,30.9341 117.828,30.2674 118.5,29.5C 119.201,26.4371 119.868,23.2704 120.5,20C 119.313,18.9805 118.313,17.8139 117.5,16.5C 115.955,15.5481 114.288,15.2148 112.5,15.5C 112.5,16.8333 112.5,18.1667 112.5,19.5C 104.372,19.759 96.3719,19.0923 88.5,17.5C 88.5,19.1667 88.5,20.8333 88.5,22.5C 87.1266,22.6567 85.7932,22.49 84.5,22C 83.2285,19.7391 81.5618,19.2391 79.5,20.5C 80.5,21.3333 81.5,22.1667 82.5,23C 78.9439,24.6076 75.6106,26.4409 72.5,28.5C 69.4261,28.1274 66.4261,27.4608 63.5,26.5C 63.2267,28.451 63.8934,29.951 65.5,31C 63.1667,32.8333 60.8333,34.6667 58.5,36.5C 60.5,38.1667 62.5,39.8333 64.5,41.5C 62.9084,43.2249 63.2417,44.2249 65.5,44.5C 68.7376,42.7032 70.7376,43.7032 71.5,47.5C 65.5365,52.1281 59.8698,57.1281 54.5,62.5C 53.4555,61.2053 52.4555,59.872 51.5,58.5C 51.9202,56.674 51.9202,54.674 51.5,52.5C 52.664,49.4215 54.164,49.0882 56,51.5C 56.5,51 57,50.5 57.5,50C 55.0314,47.5589 53.198,44.7256 52,41.5C 48.5354,43.9626 45.3688,46.7959 42.5,50C 40.5,50.3333 38.5,50.6667 36.5,51C 35.228,53.0445 35.5614,54.8778 37.5,56.5C 34.3135,60.0157 31.9802,64.0157 30.5,68.5C 29.3263,69.5137 28.6596,70.847 28.5,72.5C 25.4475,75.7169 24.4475,79.3836 25.5,83.5C 34.3055,84.5833 36.9721,89.4166 33.5,98C 35.0782,102.702 35.7448,107.536 35.5,112.5C 34.2921,111.766 32.9587,111.433 31.5,111.5C 31.5,110.5 31.5,109.5 31.5,108.5C 32.6946,108.134 33.3613,107.301 33.5,106C 31.9618,98.4714 28.7951,97.6381 24,103.5C 23.5172,104.448 23.3505,105.448 23.5,106.5C 19.6224,106.719 15.9558,107.719 12.5,109.5C 11.3336,111.167 11.3336,112.834 12.5,114.5C 19.8333,115.833 27.1667,115.833 34.5,114.5C 34.8333,114.5 35.1667,114.5 35.5,114.5C 35.2155,116.415 35.5489,118.081 36.5,119.5C 36.2155,121.415 36.5489,123.081 37.5,124.5C 38.4423,132.605 40.7756,140.272 44.5,147.5C 42.7162,149.41 41.7162,151.744 41.5,154.5C 40.209,154.737 39.209,154.404 38.5,153.5C 38.8333,153.5 39.1667,153.5 39.5,153.5C 40.0967,153.265 40.4301,152.765 40.5,152C 39.6999,150.169 38.6999,148.335 37.5,146.5C 36.8333,146.5 36.5,146.167 36.5,145.5C 36.5,144.833 36.1667,144.5 35.5,144.5C 35.6309,143.624 35.2975,142.957 34.5,142.5C 31.2917,143.747 30.9584,143.413 33.5,141.5C 34.2907,139.691 34.2907,137.691 33.5,135.5C 31.901,135.232 30.5676,135.566 29.5,136.5C 27.8333,137.167 26.1667,137.833 24.5,138.5C 23.9569,138.56 23.6236,138.893 23.5,139.5C 24.2427,140.182 24.9094,140.849 25.5,141.5C 24.5222,141.811 23.8555,142.478 23.5,143.5C 24.3681,146.468 24.7014,149.301 24.5,152C 22.2117,154.026 20.2117,153.692 18.5,151C 20.4414,149.184 21.1081,147.184 20.5,145C 18.8065,143.75 17.4732,142.25 16.5,140.5C 15.596,139.791 15.2627,138.791 15.5,137.5C 12.1226,137.959 8.78926,138.626 5.5,139.5C 4.83333,136.167 4.16667,132.833 3.5,129.5C 6.51763,129.296 9.51763,128.963 12.5,128.5C 12.815,124.629 12.4816,120.962 11.5,117.5C 8.7131,116.523 5.7131,116.19 2.5,116.5C 2.5,113.5 2.5,110.5 2.5,107.5C 5.83333,107.5 9.16667,107.5 12.5,107.5C 12.5,103.5 12.5,99.5 12.5,95.5C 9.48237,95.2962 6.48237,94.9629 3.5,94.5C 4.20713,91.2139 4.54046,87.8806 4.5,84.5C 7.58041,84.7477 10.5804,85.4144 13.5,86.5C 14.1667,86.1667 14.8333,85.8333 15.5,85.5C 16.6544,82.5482 17.6544,79.5482 18.5,76.5C 15.4086,75.0227 12.4086,73.3561 9.5,71.5C 10.5427,68.4986 12.0427,65.8319 14,63.5C 16.5891,64.6965 19.2558,65.6965 22,66.5C 24.6771,64.3378 26.5104,61.5044 27.5,58C 25.4655,55.4598 23.1322,53.1265 20.5,51C 22.1667,48.6667 23.8333,46.3333 25.5,44C 26.1667,43.3333 26.8333,43.3333 27.5,44C 29.3501,46.0176 31.3501,47.8509 33.5,49.5C 36.6825,47.1509 39.3492,44.3175 41.5,41C 39.6841,38.3509 37.6841,35.8509 35.5,33.5C 37.6068,31.2733 39.9401,29.2733 42.5,27.5C 44.5056,30.0048 46.6723,32.3381 49,34.5C 52.0084,32.3198 54.8418,29.9864 57.5,27.5C 56.1667,24.8333 54.8333,22.1667 53.5,19.5C 55.6572,17.5879 57.9906,15.9213 60.5,14.5C 62.5224,16.5313 64.1891,18.8646 65.5,21.5C 66.365,22.5827 67.365,22.7494 68.5,22C 71.7641,20.8811 74.4308,19.0478 76.5,16.5C 72.8299,8.84142 75.1632,5.84142 83.5,7.5C 84.0056,10.391 85.0056,13.0576 86.5,15.5C 89.7079,14.198 93.0412,13.5313 96.5,13.5C 96.5,9.83333 96.5,6.16667 96.5,2.5C 99.5,2.5 102.5,2.5 105.5,2.5C 105.963,5.48237 106.296,8.48237 106.5,11.5C 110.5,11.5 114.5,11.5 118.5,11.5C 118.5,8.5 118.5,5.5 118.5,2.5C 121.833,2.5 125.167,2.5 128.5,2.5C 128.276,6.17884 127.942,9.8455 127.5,13.5C 131.481,14.0209 135.481,14.3542 139.5,14.5C 140.01,5.61627 143.676,4.11627 150.5,10C 148.58,12.9004 148.247,15.9004 149.5,19C 152.208,20.0695 154.875,21.2361 157.5,22.5C 159.5,19.8333 161.5,17.1667 163.5,14.5C 165.583,15.9587 167.75,17.2921 170,18.5C 169.723,21.4034 168.556,24.07 166.5,26.5C 168.411,29.1221 170.745,31.2888 173.5,33C 174.899,33.5946 176.232,33.4279 177.5,32.5C 178.833,30.5 180.5,28.8333 182.5,27.5C 184.483,28.982 186.316,30.6487 188,32.5C 188.315,33.9078 187.982,35.2411 187,36.5C 183.622,38.2156 182.956,40.549 185,43.5C 186.719,45.5571 188.719,47.2237 191,48.5C 193.741,47.2115 196.241,45.5448 198.5,43.5C 200.545,45.7588 202.211,48.2588 203.5,51C 201.159,53.1685 198.825,55.3351 196.5,57.5C 197.769,61.0536 199.769,64.0536 202.5,66.5C 205.282,64.2434 208.282,63.5767 211.5,64.5C 212.5,66.5 213.5,68.5 214.5,70.5C 211.542,72.4963 208.542,74.4963 205.5,76.5C 207.121,79.6521 208.121,82.9855 208.5,86.5C 212.136,85.6745 215.803,85.0078 219.5,84.5C 220.051,87.8067 220.384,91.1401 220.5,94.5C 217.482,94.7038 214.482,95.0371 211.5,95.5C 211.5,99.5 211.5,103.5 211.5,107.5C 214.833,107.5 218.167,107.5 221.5,107.5 Z"/></g>
<g><path style="opacity:1" fill="#48465f" d="M 33.5,141.5 C 30.9584,143.413 31.2917,143.747 34.5,142.5C 35.2975,142.957 35.6309,143.624 35.5,144.5C 33.095,144.866 30.7617,145.533 28.5,146.5C 27.8333,146.167 27.1667,145.833 26.5,145.5C 27.9814,144.52 29.3147,143.353 30.5,142C 28.6799,142.476 27.0133,142.309 25.5,141.5C 27.484,140.844 29.484,140.178 31.5,139.5C 32.7133,139.747 33.38,140.414 33.5,141.5 Z"/></g>
<g><path style="opacity:1" fill="#b8b6c4" d="M 29.5,136.5 C 30.5676,135.566 31.901,135.232 33.5,135.5C 34.2907,137.691 34.2907,139.691 33.5,141.5C 33.38,140.414 32.7133,139.747 31.5,139.5C 29.484,140.178 27.484,140.844 25.5,141.5C 24.9094,140.849 24.2427,140.182 23.5,139.5C 23.6236,138.893 23.9569,138.56 24.5,138.5C 27.289,139.647 29.9556,139.147 32.5,137C 31.552,136.517 30.552,136.351 29.5,136.5 Z"/></g>
<g><path style="opacity:1" fill="#434053" d="M 29.5,136.5 C 30.552,136.351 31.552,136.517 32.5,137C 29.9556,139.147 27.289,139.647 24.5,138.5C 26.1667,137.833 27.8333,137.167 29.5,136.5 Z"/></g>
<g><path style="opacity:1" fill="#7a6741" d="M 34.5,114.5 C 27.1667,115.833 19.8333,115.833 12.5,114.5C 20.0072,113.802 27.3406,113.802 34.5,114.5 Z"/></g>
<g><path style="opacity:1" fill="#937b53" d="M 211.5,112.5 C 212.167,112.5 212.5,112.833 212.5,113.5C 212.167,114.5 211.5,115.167 210.5,115.5C 203.833,115.5 197.167,115.5 190.5,115.5C 190.833,114.833 191.167,114.167 191.5,113.5C 194.777,113.216 197.943,113.549 201,114.5C 202.734,113.751 204.567,113.251 206.5,113C 205.304,112.346 205.304,111.846 206.5,111.5C 207.88,113.665 209.547,113.999 211.5,112.5 Z"/></g>
<g><path style="opacity:1" fill="#e4c389" d="M 31.5,108.5 C 31.5,109.5 31.5,110.5 31.5,111.5C 32.9587,111.433 34.2921,111.766 35.5,112.5C 35.5,113.167 35.5,113.833 35.5,114.5C 35.1667,114.5 34.8333,114.5 34.5,114.5C 27.3406,113.802 20.0072,113.802 12.5,114.5C 11.3336,112.834 11.3336,111.167 12.5,109.5C 15.9558,107.719 19.6224,106.719 23.5,106.5C 25.6704,105.251 28.0037,104.251 30.5,103.5C 31.4519,105.045 31.7852,106.712 31.5,108.5 Z"/></g>
<g><path style="opacity:1" fill="#f0ce90" d="M 211.5,112.5 C 209.547,113.999 207.88,113.665 206.5,111.5C 205.304,111.846 205.304,112.346 206.5,113C 204.567,113.251 202.734,113.751 201,114.5C 197.943,113.549 194.777,113.216 191.5,113.5C 191.5,113.167 191.5,112.833 191.5,112.5C 194.288,112.923 196.288,111.923 197.5,109.5C 196.311,108.571 194.978,108.238 193.5,108.5C 193.34,106.801 193.506,105.134 194,103.5C 196.913,104.37 199.413,105.87 201.5,108C 204.036,108.339 206.536,108.839 209,109.5C 210.31,110.13 211.144,111.13 211.5,112.5 Z"/></g>
<g><path style="opacity:1" fill="#c9b590" d="M 31.5,108.5 C 31.7852,106.712 31.4519,105.045 30.5,103.5C 28.0037,104.251 25.6704,105.251 23.5,106.5C 23.3505,105.448 23.5172,104.448 24,103.5C 28.7951,97.6381 31.9618,98.4714 33.5,106C 33.3613,107.301 32.6946,108.134 31.5,108.5 Z"/></g>
<g><path style="opacity:1" fill="#cfb589" d="M 213.5,113.5 C 213.167,113.5 212.833,113.5 212.5,113.5C 212.5,112.833 212.167,112.5 211.5,112.5C 211.144,111.13 210.31,110.13 209,109.5C 206.536,108.839 204.036,108.339 201.5,108C 199.413,105.87 196.913,104.37 194,103.5C 193.506,105.134 193.34,106.801 193.5,108.5C 194.978,108.238 196.311,108.571 197.5,109.5C 196.288,111.923 194.288,112.923 191.5,112.5C 191.5,112.167 191.5,111.833 191.5,111.5C 191.746,108.707 191.913,105.707 192,102.5C 193.938,100.022 196.105,99.8549 198.5,102C 201.589,106.502 205.922,108.836 211.5,109C 212.582,110.33 213.249,111.83 213.5,113.5 Z"/></g>
<g><path style="opacity:1" fill="#4f4c64" d="M 28.5,72.5 C 28.281,73.675 28.6143,74.675 29.5,75.5C 31.9962,76.5804 34.3295,77.9138 36.5,79.5C 34.9793,79.8797 33.3126,80.0464 31.5,80C 32.8413,81.8265 32.3413,82.9931 30,83.5C 28.8319,82.4911 27.6652,81.4911 26.5,80.5C 26.407,81.4719 26.0736,82.4719 25.5,83.5C 24.4475,79.3836 25.4475,75.7169 28.5,72.5 Z"/></g>
<g><path style="opacity:1" fill="#d4d1e7" d="M 27.5,77.5 C 29.337,77.6395 29.6704,78.3061 28.5,79.5C 27.7025,79.0431 27.3691,78.3764 27.5,77.5 Z"/></g>
<g><path style="opacity:1" fill="#464855" d="M 30.5,68.5 C 30.4142,69.4959 30.7476,70.3292 31.5,71C 33.9962,72.0804 36.3295,73.4138 38.5,75C 36.8333,75.6667 35.1667,75.6667 33.5,75C 32.0899,73.6283 30.4233,72.795 28.5,72.5C 28.6596,70.847 29.3263,69.5137 30.5,68.5 Z"/></g>
<g><path style="opacity:1" fill="#4b495b" d="M 188.5,82.5 C 191.167,81.8333 193.833,81.1667 196.5,80.5C 196.97,77.6544 196.137,75.3211 194,73.5C 195.554,78.7773 193.721,80.444 188.5,78.5C 189.833,77.8333 191.167,77.1667 192.5,76.5C 191.833,76.1667 191.167,75.8333 190.5,75.5C 185.309,77.1881 184.309,75.3548 187.5,70C 189.689,69.7914 191.689,70.1247 193.5,71C 192.5,69.3333 191.5,67.6667 190.5,66C 188.671,65.7265 187.171,64.8932 186,63.5C 186.51,65.3801 186.343,67.2134 185.5,69C 183.426,68.7727 181.426,68.9394 179.5,69.5C 179.167,69 178.833,68.5 178.5,68C 180.184,65.7565 181.184,63.2565 181.5,60.5C 180.153,61.0283 178.819,61.195 177.5,61C 179.329,59.8867 180.163,58.3867 180,56.5C 179.333,57.1667 178.667,57.8333 178,58.5C 177.971,53.3712 176.804,53.3712 174.5,58.5C 174.28,55.5995 174.946,52.9329 176.5,50.5C 177.983,52.9458 179.149,52.6124 180,49.5C 186.568,56.2321 191.734,63.8988 195.5,72.5C 197.341,73.2304 199.175,73.8971 201,74.5C 201.326,77.3323 200.826,79.999 199.5,82.5C 196.135,82.255 192.968,82.9217 190,84.5C 188.97,84.1639 188.47,83.4972 188.5,82.5 Z"/></g>
<g><path style="opacity:1" fill="#dfddf5" d="M 188.5,71.5 C 190.337,71.6395 190.67,72.3061 189.5,73.5C 188.702,73.0431 188.369,72.3764 188.5,71.5 Z"/></g>
<g><path style="opacity:1" fill="#e0dfe9" d="M 181.5,60.5 C 181.184,63.2565 180.184,65.7565 178.5,68C 178.833,68.5 179.167,69 179.5,69.5C 181.426,68.9394 183.426,68.7727 185.5,69C 186.343,67.2134 186.51,65.3801 186,63.5C 187.171,64.8932 188.671,65.7265 190.5,66C 191.5,67.6667 192.5,69.3333 193.5,71C 191.689,70.1247 189.689,69.7914 187.5,70C 184.309,75.3548 185.309,77.1881 190.5,75.5C 191.167,75.8333 191.833,76.1667 192.5,76.5C 191.167,77.1667 189.833,77.8333 188.5,78.5C 193.721,80.444 195.554,78.7773 194,73.5C 196.137,75.3211 196.97,77.6544 196.5,80.5C 193.833,81.1667 191.167,81.8333 188.5,82.5C 185.954,80.0752 184.454,77.0752 184,73.5C 181.842,74.489 180.675,76.1556 180.5,78.5C 177.597,74.3699 174.93,70.0366 172.5,65.5C 173.423,64.6971 174.423,64.5304 175.5,65C 174.289,65.8928 174.289,66.7261 175.5,67.5C 176.7,66.4688 178.034,65.6355 179.5,65C 177.461,63.0737 175.794,60.907 174.5,58.5C 176.804,53.3712 177.971,53.3712 178,58.5C 178.667,57.8333 179.333,57.1667 180,56.5C 180.163,58.3867 179.329,59.8867 177.5,61C 178.819,61.195 180.153,61.0283 181.5,60.5 Z"/></g>
<g><path style="opacity:1" fill="#c8c6d7" d="M 181.5,60.5 C 182.29,57.9489 182.29,55.6156 181.5,53.5C 184.185,56.1897 186.518,59.1897 188.5,62.5C 187.336,62.1654 186.003,62.1654 184.5,62.5C 183.943,64.2352 183.61,65.9018 183.5,67.5C 182.294,65.5159 182.294,63.5159 183.5,61.5C 183.043,60.7025 182.376,60.3691 181.5,60.5 Z"/></g>
<g><path style="opacity:1" fill="#494858" d="M 51.5,52.5 C 50.0222,52.762 48.6888,52.4287 47.5,51.5C 47.7339,47.6968 46.4006,47.5301 43.5,51C 51.5781,60.0102 51.0781,60.5102 42,52.5C 41.6174,53.056 41.1174,53.3893 40.5,53.5C 42.4305,56.0974 44.7639,58.4307 47.5,60.5C 46.635,61.5827 45.635,61.7494 44.5,61C 42.3735,57.585 40.7069,57.7516 39.5,61.5C 41.1667,62.1667 42.8333,62.8333 44.5,63.5C 42.5787,64.641 40.5787,64.8077 38.5,64C 37.9781,63.4387 37.6448,62.772 37.5,62C 38.6151,60.6068 39.1151,59.1068 39,57.5C 32.7672,62.5047 33.6005,66.1714 41.5,68.5C 38.5541,69.6548 35.5541,69.8214 32.5,69C 33.3279,68.0853 34.3279,67.4186 35.5,67C 34.9747,66.3076 34.3081,65.8076 33.5,65.5C 32.7124,66.7701 31.7124,67.7701 30.5,68.5C 31.9802,64.0157 34.3135,60.0157 37.5,56.5C 35.5614,54.8778 35.228,53.0445 36.5,51C 38.5,50.6667 40.5,50.3333 42.5,50C 45.3688,46.7959 48.5354,43.9626 52,41.5C 53.198,44.7256 55.0314,47.5589 57.5,50C 57,50.5 56.5,51 56,51.5C 54.164,49.0882 52.664,49.4215 51.5,52.5 Z"/></g>
<g><path style="opacity:1" fill="#c4c3d1" d="M 40.5,53.5 C 39.325,53.719 38.325,53.3857 37.5,52.5C 39.0517,51.2021 40.0517,51.5354 40.5,53.5 Z"/></g>
<g><path style="opacity:1" fill="#f5f2fc" d="M 48.5,46.5 C 49.1894,45.2264 50.0228,45.2264 51,46.5C 51.6667,47.8333 51.6667,49.1667 51,50.5C 50.7996,48.6803 49.9663,47.347 48.5,46.5 Z"/></g>
<g><path style="opacity:1" fill="#464459" d="M 72.5,28.5 C 71.8592,29.4822 71.1925,30.4822 70.5,31.5C 74.3586,40.896 73.692,41.396 68.5,33C 67.365,32.2506 66.365,32.4173 65.5,33.5C 66.9652,35.5994 68.2985,37.7661 69.5,40C 68.9896,41.8261 68.1562,41.9928 67,40.5C 66.2086,41.745 65.7086,43.0783 65.5,44.5C 63.2417,44.2249 62.9084,43.2249 64.5,41.5C 62.5,39.8333 60.5,38.1667 58.5,36.5C 60.8333,34.6667 63.1667,32.8333 65.5,31C 63.8934,29.951 63.2267,28.451 63.5,26.5C 66.4261,27.4608 69.4261,28.1274 72.5,28.5 Z"/></g>
<g><path style="opacity:1" fill="#e9eaef" d="M 100.5,30.5 C 97.192,30.8306 94.5253,32.3306 92.5,35C 93.0779,36.417 94.0779,37.2504 95.5,37.5C 87.1305,39.8483 79.1305,43.1816 71.5,47.5C 70.7376,43.7032 68.7376,42.7032 65.5,44.5C 65.7086,43.0783 66.2086,41.745 67,40.5C 68.1562,41.9928 68.9896,41.8261 69.5,40C 68.2985,37.7661 66.9652,35.5994 65.5,33.5C 66.365,32.4173 67.365,32.2506 68.5,33C 73.692,41.396 74.3586,40.896 70.5,31.5C 71.1925,30.4822 71.8592,29.4822 72.5,28.5C 76.0562,28.2749 76.3895,29.1082 73.5,31C 75.9728,36.188 79.6395,37.0213 84.5,33.5C 82.9239,31.0207 81.9239,28.354 81.5,25.5C 82.5,25.5 83.5,25.5 84.5,25.5C 84.8257,28.3113 85.6591,30.978 87,33.5C 87.7249,30.6234 87.2249,27.9567 85.5,25.5C 86.3202,23.8888 87.6536,23.2222 89.5,23.5C 89.8442,26.5623 90.5109,29.5623 91.5,32.5C 92.4015,29.205 92.4015,25.8717 91.5,22.5C 94.5225,22.1052 95.5225,23.1052 94.5,25.5C 94.8333,26.5 95.5,27.1667 96.5,27.5C 97.1667,25.5 97.8333,23.5 98.5,21.5C 99.9322,24.3273 100.599,27.3273 100.5,30.5 Z"/></g>
<g><path style="opacity:1" fill="#d9d7e9" d="M 62.5,34.5 C 64.8324,35.1617 65.4991,36.495 64.5,38.5C 62.2038,37.6317 61.5371,36.2984 62.5,34.5 Z"/></g>
<g><path style="opacity:1" fill="#464555" d="M 148.5,35.5 C 152.836,35.764 155.169,34.0973 155.5,30.5C 161.566,33.1919 166.9,36.8586 171.5,41.5C 168.511,43.1121 166.178,45.4454 164.5,48.5C 163.777,46.8361 164.11,45.1694 165.5,43.5C 164.726,42.2888 163.893,42.2888 163,43.5C 161.812,42.4366 161.312,41.1033 161.5,39.5C 169.197,41.7079 169.363,40.3746 162,35.5C 155.272,44.9288 154.439,44.5955 159.5,34.5C 159,34.1667 158.5,33.8333 158,33.5C 156.165,35.8409 154.331,38.1743 152.5,40.5C 151.289,39.7261 151.289,38.8928 152.5,38C 150.68,37.7996 149.347,36.9663 148.5,35.5 Z"/></g>
<g><path style="opacity:1" fill="#444257" d="M 143.5,25.5 C 145.403,25.7959 147.07,26.4625 148.5,27.5C 150.903,27.695 152.57,28.8616 153.5,31C 151.91,32.6323 150.244,34.1323 148.5,35.5C 146.896,34.713 146.229,33.3797 146.5,31.5C 145.5,31.5 144.5,31.5 143.5,31.5C 143.762,32.9778 143.429,34.3112 142.5,35.5C 140.843,32.9107 140.509,30.2441 141.5,27.5C 142.192,28.0253 142.692,28.6919 143,29.5C 143.49,28.2068 143.657,26.8734 143.5,25.5 Z"/></g>
<g><path style="opacity:1" fill="#87859d" d="M 148.5,27.5 C 148.343,28.8734 148.51,30.2068 149,31.5C 150.516,28.9485 151.349,29.2819 151.5,32.5C 147.96,32.6235 145.96,30.9568 145.5,27.5C 146.5,27.5 147.5,27.5 148.5,27.5 Z"/></g>
<g><path style="opacity:1" fill="#cfd2db" d="M 118.5,29.5 C 117.828,30.2674 116.995,30.9341 116,31.5C 113.517,29.6619 111.017,28.9953 108.5,29.5C 109.96,27.6651 111.293,25.6651 112.5,23.5C 112.88,25.0207 113.046,26.6874 113,28.5C 116.501,25.3167 116.001,22.8167 111.5,21C 113.473,20.5045 115.473,20.3379 117.5,20.5C 117.19,23.7131 117.523,26.7131 118.5,29.5 Z"/></g>
<g><path style="opacity:1" fill="#464756" d="M 143.5,25.5 C 142.07,25.5792 140.736,25.2458 139.5,24.5C 137.871,27.2659 137.205,30.2659 137.5,33.5C 136.325,33.719 135.325,33.3857 134.5,32.5C 136.476,29.6522 136.809,26.6522 135.5,23.5C 134.269,24.6507 134.269,25.8173 135.5,27C 134.552,27.4828 133.552,27.6495 132.5,27.5C 133.052,29.3307 133.052,30.9974 132.5,32.5C 130.347,30.0711 129.681,27.4044 130.5,24.5C 132.214,25.6085 132.881,24.9418 132.5,22.5C 131.762,21.1315 133.762,21.2982 138.5,23C 140.491,23.3736 142.158,24.207 143.5,25.5 Z"/></g>
<g><path style="opacity:1" fill="#474859" d="M 118.5,29.5 C 117.523,26.7131 117.19,23.7131 117.5,20.5C 115.473,20.3379 113.473,20.5045 111.5,21C 116.001,22.8167 116.501,25.3167 113,28.5C 113.046,26.6874 112.88,25.0207 112.5,23.5C 111.293,25.6651 109.96,27.6651 108.5,29.5C 106.833,28.1464 105.5,26.4797 104.5,24.5C 105.189,22.6473 106.522,21.4807 108.5,21C 106.19,20.5034 103.857,20.3367 101.5,20.5C 101.507,23.0379 101.841,25.5379 102.5,28C 102.316,29.3756 101.649,30.2089 100.5,30.5C 100.599,27.3273 99.9322,24.3273 98.5,21.5C 97.8333,23.5 97.1667,25.5 96.5,27.5C 95.5,27.1667 94.8333,26.5 94.5,25.5C 95.5225,23.1052 94.5225,22.1052 91.5,22.5C 92.4015,25.8717 92.4015,29.205 91.5,32.5C 90.5109,29.5623 89.8442,26.5623 89.5,23.5C 87.6536,23.2222 86.3202,23.8888 85.5,25.5C 87.2249,27.9567 87.7249,30.6234 87,33.5C 85.6591,30.978 84.8257,28.3113 84.5,25.5C 83.5,25.5 82.5,25.5 81.5,25.5C 81.9239,28.354 82.9239,31.0207 84.5,33.5C 79.6395,37.0213 75.9728,36.188 73.5,31C 76.3895,29.1082 76.0562,28.2749 72.5,28.5C 75.6106,26.4409 78.9439,24.6076 82.5,23C 81.5,22.1667 80.5,21.3333 79.5,20.5C 81.5618,19.2391 83.2285,19.7391 84.5,22C 85.7932,22.49 87.1266,22.6567 88.5,22.5C 88.5,20.8333 88.5,19.1667 88.5,17.5C 96.3719,19.0923 104.372,19.759 112.5,19.5C 112.5,18.1667 112.5,16.8333 112.5,15.5C 114.288,15.2148 115.955,15.5481 117.5,16.5C 118.313,17.8139 119.313,18.9805 120.5,20C 119.868,23.2704 119.201,26.4371 118.5,29.5 Z"/></g>
<g><path style="opacity:1" fill="#d9d8e9" d="M 78.5,27.5 C 81.068,29.6688 81.068,32.0021 78.5,34.5C 77.9041,33.2839 77.7374,31.9506 78,30.5C 77.2825,31.4506 76.4491,31.6172 75.5,31C 77.0629,30.2411 78.0629,29.0744 78.5,27.5 Z"/></g>
<g><path style="opacity:1" fill="#c2c8da" d="M 106.5,23.5 C 108.465,23.9483 108.798,24.9483 107.5,26.5C 106.614,25.675 106.281,24.675 106.5,23.5 Z"/></g>
<g><path style="opacity:1" fill="#5f5e68" d="M 139.5,20.5 C 141.337,20.6395 141.67,21.3061 140.5,22.5C 139.702,22.0431 139.369,21.3764 139.5,20.5 Z"/></g>
<g><path style="opacity:1" fill="#e7e9f4" d="M 90.5,18.5 C 96.196,19.1005 96.5293,20.1005 91.5,21.5C 90.6143,20.675 90.281,19.675 90.5,18.5 Z"/></g>
<g><path style="opacity:1" fill="#b4b6c9" d="M 114.5,16.5 C 118.06,18.2825 118.06,19.2825 114.5,19.5C 114.5,18.5 114.5,17.5 114.5,16.5 Z"/></g>
<g><path style="opacity:1" fill="#f6f6f9" d="M 107.5,-0.5 C 110.5,-0.5 113.5,-0.5 116.5,-0.5C 116.5,2.83333 116.5,6.16667 116.5,9.5C 113.833,9.5 111.167,9.5 108.5,9.5C 108.54,6.11945 108.207,2.78611 107.5,-0.5 Z"/></g>
<g><path style="opacity:1" fill="#f0f2f4" d="M 107.5,70.5 C 108.873,70.3433 110.207,70.51 111.5,71C 110.223,73.4659 110.223,75.9659 111.5,78.5C 112.72,77.2889 113.887,77.2889 115,78.5C 116.507,77.4954 117.673,76.162 118.5,74.5C 119.232,77.3092 120.899,79.3092 123.5,80.5C 124.251,79.624 124.751,78.624 125,77.5C 125.583,79.0016 126.416,80.3349 127.5,81.5C 128.382,80.2402 129.382,79.0736 130.5,78C 129.614,76.3853 128.614,74.8853 127.5,73.5C 129.833,74.1667 132.167,74.8333 134.5,75.5C 153.184,90.2214 158.517,108.888 150.5,131.5C 148.75,132.659 147.75,134.326 147.5,136.5C 144.781,138.219 142.781,140.553 141.5,143.5C 124.418,156.423 106.418,157.756 87.5,147.5C 83.5032,143.335 79.6699,139.002 76,134.5C 73.0662,129.531 71.2328,124.198 70.5,118.5C 70.5,114.833 70.5,111.167 70.5,107.5C 70.9967,101.174 72.6633,95.1738 75.5,89.5C 80.204,83.7949 85.5374,78.7949 91.5,74.5C 96.5926,72.2806 101.926,70.9472 107.5,70.5 Z"/></g>
<g><path style="opacity:1" fill="#f0f2f5" d="M 100.5,117.5 C 99.3065,118.272 98.3065,119.272 97.5,120.5C 88.197,123.393 88.197,125.06 97.5,125.5C 96.6872,126.814 95.6872,127.981 94.5,129C 97.1207,128.573 99.1207,127.073 100.5,124.5C 101.482,123.859 102.482,123.193 103.5,122.5C 103.833,122.833 104.167,123.167 104.5,123.5C 102.131,126.561 100.631,129.894 100,133.5C 102.333,129.833 104.667,126.167 107,122.5C 106.667,126.833 106.333,131.167 106,135.5C 107.335,131.489 108.669,127.489 110,123.5C 111.216,125.962 111.882,128.629 112,131.5C 112.118,128.629 112.784,125.962 114,123.5C 115.331,127.489 116.665,131.489 118,135.5C 118.159,132.118 117.659,128.785 116.5,125.5C 116.833,124.833 117.167,124.167 117.5,123.5C 118.288,124.77 119.288,125.77 120.5,126.5C 120.954,129.14 122.121,131.473 124,133.5C 123.797,131.063 122.963,128.729 121.5,126.5C 122.601,124.606 123.934,123.939 125.5,124.5C 124.995,123.081 123.995,122.415 122.5,122.5C 122.489,120.983 121.823,119.816 120.5,119C 120.833,118.833 121.167,118.667 121.5,118.5C 123.729,119.963 126.063,120.797 128.5,121C 126.651,119.907 124.984,118.574 123.5,117C 126.157,116.825 128.824,116.992 131.5,117.5C 133.903,118.131 136.236,119.131 138.5,120.5C 136.918,122.577 135.918,124.91 135.5,127.5C 132.947,130.755 129.947,133.589 126.5,136C 123.529,136.471 120.862,137.638 118.5,139.5C 113.946,140.11 109.612,140.11 105.5,139.5C 100.493,137.726 95.9931,135.059 92,131.5C 88.8654,128.504 86.6988,124.837 85.5,120.5C 86.6016,119.824 87.6016,119.158 88.5,118.5C 91.7215,118.15 94.8882,117.483 98,116.5C 99.0698,116.528 99.9032,116.861 100.5,117.5 Z"/></g>
<g><path style="opacity:1" fill="#b4bcc1" d="M 122.5,122.5 C 123.995,122.415 124.995,123.081 125.5,124.5C 123.934,123.939 122.601,124.606 121.5,126.5C 122.963,128.729 123.797,131.063 124,133.5C 122.121,131.473 120.954,129.14 120.5,126.5C 120.123,124.742 119.456,123.075 118.5,121.5C 118.833,121.167 119.167,120.833 119.5,120.5C 120.518,121.193 121.518,121.859 122.5,122.5 Z"/></g>
<g><path style="opacity:1" fill="#bebfc2" d="M 139.5,114.5 C 142.372,119.99 141.539,124.99 137,129.5C 136.722,128.584 136.222,127.918 135.5,127.5C 135.918,124.91 136.918,122.577 138.5,120.5C 136.236,119.131 133.903,118.131 131.5,117.5C 132.167,117.5 132.5,117.167 132.5,116.5C 134.379,117.341 136.379,117.675 138.5,117.5C 138.263,116.209 138.596,115.209 139.5,114.5 Z"/></g>
<g><path style="opacity:1" fill="#cdd1d6" d="M 100.5,124.5 C 99.1207,127.073 97.1207,128.573 94.5,129C 95.6872,127.981 96.6872,126.814 97.5,125.5C 88.197,125.06 88.197,123.393 97.5,120.5C 104.396,117.572 105.062,118.738 99.5,124C 99.7284,124.399 100.062,124.565 100.5,124.5 Z"/></g>
<g><path style="opacity:1" fill="#6c768b" d="M 118.5,113.5 C 120.621,113.325 122.621,113.659 124.5,114.5C 127.067,115.475 129.733,116.142 132.5,116.5C 132.5,117.167 132.167,117.5 131.5,117.5C 128.824,116.992 126.157,116.825 123.5,117C 124.984,118.574 126.651,119.907 128.5,121C 126.063,120.797 123.729,119.963 121.5,118.5C 121.167,118.667 120.833,118.833 120.5,119C 121.823,119.816 122.489,120.983 122.5,122.5C 121.518,121.859 120.518,121.193 119.5,120.5C 119.167,120.833 118.833,121.167 118.5,121.5C 119.456,123.075 120.123,124.742 120.5,126.5C 119.288,125.77 118.288,124.77 117.5,123.5C 117.167,124.167 116.833,124.833 116.5,125.5C 117.659,128.785 118.159,132.118 118,135.5C 116.665,131.489 115.331,127.489 114,123.5C 112.784,125.962 112.118,128.629 112,131.5C 111.882,128.629 111.216,125.962 110,123.5C 108.669,127.489 107.335,131.489 106,135.5C 106.333,131.167 106.667,126.833 107,122.5C 104.667,126.167 102.333,129.833 100,133.5C 100.631,129.894 102.131,126.561 104.5,123.5C 104.167,123.167 103.833,122.833 103.5,122.5C 102.482,123.193 101.482,123.859 100.5,124.5C 100.062,124.565 99.7284,124.399 99.5,124C 105.062,118.738 104.396,117.572 97.5,120.5C 98.3065,119.272 99.3065,118.272 100.5,117.5C 102.167,116.833 103.833,116.167 105.5,115.5C 108.246,118.305 111.579,119.139 115.5,118C 116.716,116.26 118.382,115.26 120.5,115C 119.584,114.722 118.918,114.222 118.5,113.5 Z"/></g>
<g><path style="opacity:1" fill="#797a83" d="M 146.5,106.5 C 147.606,107.149 148.606,107.483 149.5,107.5C 148.167,110.5 148.167,113.5 149.5,116.5C 148.167,117.833 146.833,117.833 145.5,116.5C 146.417,113.242 146.751,109.909 146.5,106.5 Z"/></g>
<g><path style="opacity:1" fill="#666876" d="M 74.5,106.5 C 75.9778,106.238 77.3112,106.571 78.5,107.5C 76.9104,117.849 75.5771,117.515 74.5,106.5 Z"/></g>
<g><path style="opacity:1" fill="#b5b6bb" d="M 139.5,114.5 C 139.055,111.72 139.055,109.053 139.5,106.5C 137.774,101.873 135.608,97.5392 133,93.5C 130.217,92.3588 128.05,90.5255 126.5,88C 122.141,85.6599 117.474,84.1599 112.5,83.5C 109.723,85.435 106.723,85.935 103.5,85C 102.953,85.9246 102.287,86.7579 101.5,87.5C 100.549,86.6744 99.549,86.5078 98.5,87C 94.2883,89.8783 90.7883,93.3783 88,97.5C 87.4547,100.614 86.288,103.447 84.5,106C 84.5068,110.017 84.5068,114.017 84.5,118C 85.9285,118.579 87.2618,118.412 88.5,117.5C 88.5,117.833 88.5,118.167 88.5,118.5C 87.6016,119.158 86.6016,119.824 85.5,120.5C 86.6988,124.837 88.8654,128.504 92,131.5C 95.9931,135.059 100.493,137.726 105.5,139.5C 109.612,140.11 113.946,140.11 118.5,139.5C 120.862,137.638 123.529,136.471 126.5,136C 129.947,133.589 132.947,130.755 135.5,127.5C 135.009,133.37 131.675,137.37 125.5,139.5C 124.833,139.167 124.167,138.833 123.5,138.5C 122.304,138.846 122.304,139.346 123.5,140C 104.889,145.801 91.3886,139.968 83,122.5C 78.6337,106.745 83.1337,94.245 96.5,85C 116.65,76.6124 131.483,82.1124 141,101.5C 142.418,106.428 142.751,111.428 142,116.5C 141.667,113.167 141.333,109.833 141,106.5C 140.817,109.365 140.317,112.031 139.5,114.5 Z"/></g>
<g><path style="opacity:1" fill="#f0f2f6" d="M 139.5,114.5 C 138.596,115.209 138.263,116.209 138.5,117.5C 136.379,117.675 134.379,117.341 132.5,116.5C 129.733,116.142 127.067,115.475 124.5,114.5C 128.204,112.909 132.204,112.076 136.5,112C 132.094,110.959 127.761,110.126 123.5,109.5C 127.571,108.644 131.571,107.477 135.5,106C 131.143,106.175 126.809,106.508 122.5,107C 126.167,104.667 129.833,102.333 133.5,100C 129.894,100.631 126.561,102.131 123.5,104.5C 123.167,104.167 122.833,103.833 122.5,103.5C 123.524,102.148 124.524,100.815 125.5,99.5C 127.296,98.2073 128.963,96.7073 130.5,95C 128.583,95.0275 126.916,95.8608 125.5,97.5C 124.643,96.2643 123.977,94.931 123.5,93.5C 124.833,92.3801 125.333,91.0468 125,89.5C 122.667,91.8333 120.333,94.1667 118,96.5C 118.981,86.6474 118.148,86.3141 115.5,95.5C 114.607,97.9026 113.94,100.403 113.5,103C 115.108,105.492 116.774,107.992 118.5,110.5C 118.5,111.5 118.5,112.5 118.5,113.5C 118.918,114.222 119.584,114.722 120.5,115C 118.382,115.26 116.716,116.26 115.5,118C 111.579,119.139 108.246,118.305 105.5,115.5C 105.065,112.162 105.732,109.162 107.5,106.5C 109.417,105.884 110.584,104.55 111,102.5C 111.333,103.167 111.667,103.833 112,104.5C 112.667,98.8333 112.667,93.1667 112,87.5C 111.667,91.1667 111.333,94.8333 111,98.5C 110.667,98.8333 110.333,99.1667 110,99.5C 106.839,88.9173 105.839,89.2506 107,100.5C 106.292,99.6195 105.458,98.9528 104.5,98.5C 105.218,100.137 105.384,101.803 105,103.5C 102.667,101.167 100.333,98.8333 98,96.5C 97.8333,96.8333 97.6667,97.1667 97.5,97.5C 99.1897,99.5193 100.856,101.519 102.5,103.5C 102.5,104.167 102.167,104.5 101.5,104.5C 100.391,104.443 99.391,104.11 98.5,103.5C 91.3992,99.5449 91.0659,99.8782 97.5,104.5C 98.8333,105.167 100.167,105.833 101.5,106.5C 101.158,107.338 100.492,107.672 99.5,107.5C 96.1651,106.661 92.8318,106.161 89.5,106C 93.1267,107.323 96.7934,108.489 100.5,109.5C 100.389,110.117 100.056,110.617 99.5,111C 86.2158,111.507 86.2158,112.341 99.5,113.5C 96.0167,115.289 92.35,116.623 88.5,117.5C 87.2618,118.412 85.9285,118.579 84.5,118C 84.5068,114.017 84.5068,110.017 84.5,106C 86.288,103.447 87.4547,100.614 88,97.5C 90.7883,93.3783 94.2883,89.8783 98.5,87C 99.549,86.5078 100.549,86.6744 101.5,87.5C 102.287,86.7579 102.953,85.9246 103.5,85C 106.723,85.935 109.723,85.435 112.5,83.5C 117.474,84.1599 122.141,85.6599 126.5,88C 128.05,90.5255 130.217,92.3588 133,93.5C 135.608,97.5392 137.774,101.873 139.5,106.5C 139.055,109.053 139.055,111.72 139.5,114.5 Z"/></g>
<g><path style="opacity:1" fill="#99a3b7" d="M 123.5,109.5 C 127.761,110.126 132.094,110.959 136.5,112C 132.204,112.076 128.204,112.909 124.5,114.5C 122.621,113.659 120.621,113.325 118.5,113.5C 118.5,112.5 118.5,111.5 118.5,110.5C 120.216,110.371 121.883,110.038 123.5,109.5 Z"/></g>
<g><path style="opacity:1" fill="#505666" d="M 99.5,107.5 C 100.609,108.29 101.942,108.79 103.5,109C 102.552,109.483 101.552,109.649 100.5,109.5C 96.7934,108.489 93.1267,107.323 89.5,106C 92.8318,106.161 96.1651,106.661 99.5,107.5 Z"/></g>
<g><path style="opacity:1" fill="#818a9f" d="M 102.5,103.5 C 103.922,104.925 105.589,105.925 107.5,106.5C 105.732,109.162 105.065,112.162 105.5,115.5C 103.833,116.167 102.167,116.833 100.5,117.5C 99.9032,116.861 99.0698,116.528 98,116.5C 94.8882,117.483 91.7215,118.15 88.5,118.5C 88.5,118.167 88.5,117.833 88.5,117.5C 92.35,116.623 96.0167,115.289 99.5,113.5C 86.2158,112.341 86.2158,111.507 99.5,111C 100.056,110.617 100.389,110.117 100.5,109.5C 101.552,109.649 102.552,109.483 103.5,109C 101.942,108.79 100.609,108.29 99.5,107.5C 100.492,107.672 101.158,107.338 101.5,106.5C 102.423,107.303 103.423,107.47 104.5,107C 103.429,106.148 102.429,105.315 101.5,104.5C 102.167,104.5 102.5,104.167 102.5,103.5 Z"/></g>
<g><path style="opacity:1" fill="#747b92" d="M 115.5,95.5 C 116.167,97.1667 116.833,98.8333 117.5,100.5C 116.099,105.375 116.766,105.708 119.5,101.5C 119.56,102.043 119.893,102.376 120.5,102.5C 122.149,101.352 123.649,100.019 125,98.5C 125.399,98.7284 125.565,99.0618 125.5,99.5C 124.524,100.815 123.524,102.148 122.5,103.5C 122.833,103.833 123.167,104.167 123.5,104.5C 126.561,102.131 129.894,100.631 133.5,100C 129.833,102.333 126.167,104.667 122.5,107C 126.809,106.508 131.143,106.175 135.5,106C 131.571,107.477 127.571,108.644 123.5,109.5C 121.883,110.038 120.216,110.371 118.5,110.5C 116.774,107.992 115.108,105.492 113.5,103C 113.94,100.403 114.607,97.9026 115.5,95.5 Z"/></g>
<g><path style="opacity:1" fill="#3b4761" d="M 97.5,104.5 C 97.5,103.833 97.8333,103.5 98.5,103.5C 99.391,104.11 100.391,104.443 101.5,104.5C 102.429,105.315 103.429,106.148 104.5,107C 103.423,107.47 102.423,107.303 101.5,106.5C 100.167,105.833 98.8333,105.167 97.5,104.5 Z"/></g>
<g><path style="opacity:1" fill="#646c85" d="M 107.5,106.5 C 105.589,105.925 103.922,104.925 102.5,103.5C 100.856,101.519 99.1897,99.5193 97.5,97.5C 97.6667,97.1667 97.8333,96.8333 98,96.5C 100.333,98.8333 102.667,101.167 105,103.5C 105.384,101.803 105.218,100.137 104.5,98.5C 105.458,98.9528 106.292,99.6195 107,100.5C 105.839,89.2506 106.839,88.9173 110,99.5C 110.333,99.1667 110.667,98.8333 111,98.5C 111.333,94.8333 111.667,91.1667 112,87.5C 112.667,93.1667 112.667,98.8333 112,104.5C 111.667,103.833 111.333,103.167 111,102.5C 110.584,104.55 109.417,105.884 107.5,106.5 Z"/></g>
<g><path style="opacity:1" fill="#414a64" d="M 119.5,101.5 C 116.766,105.708 116.099,105.375 117.5,100.5C 120.234,96.2915 120.901,96.6249 119.5,101.5 Z"/></g>
<g><path style="opacity:1" fill="#868d91" d="M 98.5,103.5 C 97.8333,103.5 97.5,103.833 97.5,104.5C 91.0659,99.8782 91.3992,99.5449 98.5,103.5 Z"/></g>
<g><path style="opacity:1" fill="#cdd0d7" d="M 125.5,99.5 C 125.565,99.0618 125.399,98.7284 125,98.5C 123.649,100.019 122.149,101.352 120.5,102.5C 119.893,102.376 119.56,102.043 119.5,101.5C 120.901,96.6249 120.234,96.2915 117.5,100.5C 116.833,98.8333 116.167,97.1667 115.5,95.5C 118.148,86.3141 118.981,86.6474 118,96.5C 120.333,94.1667 122.667,91.8333 125,89.5C 125.333,91.0468 124.833,92.3801 123.5,93.5C 123.977,94.931 124.643,96.2643 125.5,97.5C 126.916,95.8608 128.583,95.0275 130.5,95C 128.963,96.7073 127.296,98.2073 125.5,99.5 Z"/></g>
<g><path style="opacity:1" fill="#4d4e5c" d="M 36.5,145.5 C 36.5,146.167 36.8333,146.5 37.5,146.5C 37.6176,150.482 35.6176,152.815 31.5,153.5C 28.7211,152.327 28.0545,150.493 29.5,148C 31.743,146.864 34.0763,146.03 36.5,145.5 Z"/></g>
<g><path style="opacity:1" fill="#e1e3ed" d="M 33.5,147.5 C 34.3764,147.369 35.0431,147.702 35.5,148.5C 34.485,151.168 32.8183,151.834 30.5,150.5C 31.3398,149.265 32.3398,148.265 33.5,147.5 Z"/></g>
<g><path style="opacity:1" fill="#fbfbfb" d="M -0.5,119.5 C 3.16667,119.5 6.83333,119.5 10.5,119.5C 10.5,122.167 10.5,124.833 10.5,127.5C 7.45517,127.508 4.45517,127.841 1.5,128.5C 2.296,133.147 2.96267,137.814 3.5,142.5C 7.1007,141.537 10.7674,140.87 14.5,140.5C 15.167,142.819 15.3336,145.153 15,147.5C 12.9285,148.525 10.7619,149.358 8.5,150C 7.94149,150.725 7.60816,151.558 7.5,152.5C 8.48801,156.657 10.3213,160.324 13,163.5C 15.5891,162.303 18.2558,161.303 21,160.5C 23.3921,162.28 24.3921,164.613 24,167.5C 21.4562,169.002 19.2895,170.836 17.5,173C 19.6083,176.94 22.275,180.44 25.5,183.5C 27.6789,182.243 29.6789,180.743 31.5,179C 34.4935,178.635 36.4935,179.969 37.5,183C 35.7486,185.828 33.7486,188.495 31.5,191C 34.7084,194.377 38.0418,197.544 41.5,200.5C 43.6558,198.51 45.6558,196.343 47.5,194C 50.3317,193.961 52.665,195.127 54.5,197.5C 52.007,200.102 50.8403,203.102 51,206.5C 53.7482,208.458 56.5815,210.291 59.5,212C 60.635,212.749 61.635,212.583 62.5,211.5C 63.9336,208.953 65.6002,206.619 67.5,204.5C 69.323,205.747 71.323,206.414 73.5,206.5C 72.2074,210.086 71.2074,213.752 70.5,217.5C 75.0612,218.907 79.7279,219.907 84.5,220.5C 84.7357,217.215 85.7357,214.215 87.5,211.5C 89.7466,212.374 92.0799,212.708 94.5,212.5C 93.8857,216.135 93.5524,219.802 93.5,223.5C 96.0593,223.198 98.3926,223.532 100.5,224.5C 66.8333,224.5 33.1667,224.5 -0.5,224.5C -0.5,189.5 -0.5,154.5 -0.5,119.5 Z"/></g>
<g><path style="opacity:1" fill="#484757" d="M 193.5,153.5 C 193.672,154.492 193.338,155.158 192.5,155.5C 190.231,154.024 187.898,152.524 185.5,151C 186.5,150.667 187.5,150.333 188.5,150C 187.483,148.951 187.316,147.784 188,146.5C 188.374,147.416 188.874,148.25 189.5,149C 191.577,149.192 193.577,149.692 195.5,150.5C 194.167,151.167 192.833,151.833 191.5,152.5C 191.957,153.298 192.624,153.631 193.5,153.5 Z"/></g>
<g><path style="opacity:1" fill="#3a3c4c" d="M 39.5,153.5 C 39.1667,153.5 38.8333,153.5 38.5,153.5C 36.5266,154.487 34.5266,155.487 32.5,156.5C 31.1667,155.833 31.1667,155.167 32.5,154.5C 34.7105,153.877 36.7105,152.877 38.5,151.5C 39.2975,151.957 39.6309,152.624 39.5,153.5 Z"/></g>
<g><path style="opacity:1" fill="#555564" d="M 35.5,163.5 C 36.9864,160.629 35.9864,159.295 32.5,159.5C 32.4701,158.503 32.9701,157.836 34,157.5C 36.7906,156.594 39.6239,155.927 42.5,155.5C 40.9525,158.723 38.6192,161.39 35.5,163.5 Z"/></g>
<g><path style="opacity:1" fill="#434151" d="M 191.5,158.5 C 190.518,157.859 189.518,157.193 188.5,156.5C 187.335,157.86 187.668,158.86 189.5,159.5C 189.631,160.239 189.464,160.906 189,161.5C 187.167,160.333 185.333,159.167 183.5,158C 181.937,155.524 182.604,154.024 185.5,153.5C 187.13,154.421 188.797,155.255 190.5,156C 191.252,156.671 191.586,157.504 191.5,158.5 Z"/></g>
<g><path style="opacity:1" fill="#cecadb" d="M 183.5,160.5 C 184.925,161.922 185.925,163.589 186.5,165.5C 183.728,165.405 181.728,164.071 180.5,161.5C 181.325,160.614 182.325,160.281 183.5,160.5 Z"/></g>
<g><path style="opacity:1" fill="#423f51" d="M 183.5,160.5 C 185.833,160.833 187.167,162.167 187.5,164.5C 187.5,165.167 187.167,165.5 186.5,165.5C 185.925,163.589 184.925,161.922 183.5,160.5 Z"/></g>
<g><path style="opacity:1" fill="#f5f6f7" d="M 190.5,115.5 C 197.167,115.5 203.833,115.5 210.5,115.5C 210.082,116.222 209.416,116.722 208.5,117C 210.081,120.7 211.081,124.533 211.5,128.5C 214.455,129.159 217.455,129.492 220.5,129.5C 220.424,132.973 219.758,136.306 218.5,139.5C 214.918,138.734 211.418,138.734 208,139.5C 207.369,142.393 206.536,145.226 205.5,148C 208.278,150.006 210.945,152.006 213.5,154C 212.764,156.139 211.764,158.139 210.5,160C 209.167,160.667 207.833,160.667 206.5,160C 205.226,158.779 203.726,157.946 202,157.5C 200.098,159.627 198.431,161.96 197,164.5C 196.219,165.944 196.386,167.277 197.5,168.5C 199.54,170.177 201.54,171.844 203.5,173.5C 201.727,176.06 199.727,178.393 197.5,180.5C 195.076,179.577 193.076,178.077 191.5,176C 187.908,177.392 184.908,179.892 182.5,183.5C 184.5,185.833 186.5,188.167 188.5,190.5C 186.5,193.167 184.167,195.5 181.5,197.5C 179.642,195.476 177.975,193.309 176.5,191C 174.718,190.878 173.052,191.378 171.5,192.5C 170.175,191.047 169.342,191.381 169,193.5C 168.667,193.167 168.333,192.833 168,192.5C 166.556,194.155 164.722,194.822 162.5,194.5C 162.5,193.5 162.5,192.5 162.5,191.5C 163.833,191.5 165.167,191.5 166.5,191.5C 166.954,189.259 166.954,187.259 166.5,185.5C 166.167,184.833 165.833,184.167 165.5,183.5C 165.842,182.662 166.508,182.328 167.5,182.5C 168.652,183.625 169.652,183.625 170.5,182.5C 171.5,182.5 172.5,182.5 173.5,182.5C 173.5,181.5 173.5,180.5 173.5,179.5C 175.199,179.66 176.866,179.494 178.5,179C 177.316,177.855 177.316,176.688 178.5,175.5C 179.833,174.833 179.833,174.167 178.5,173.5C 178.5,173.167 178.5,172.833 178.5,172.5C 181.367,172.631 183.033,171.297 183.5,168.5C 184.167,167.833 184.833,167.167 185.5,166.5C 186.167,166.5 186.5,166.167 186.5,165.5C 187.167,165.5 187.5,165.167 187.5,164.5C 190.2,163.456 190.867,161.79 189.5,159.5C 187.668,158.86 187.335,157.86 188.5,156.5C 189.518,157.193 190.518,157.859 191.5,158.5C 192.404,157.791 192.737,156.791 192.5,155.5C 193.338,155.158 193.672,154.492 193.5,153.5C 194.531,152.751 195.698,152.085 197,151.5C 197.47,150.423 197.303,149.423 196.5,148.5C 198.442,145.496 199.275,142.162 199,138.5C 198.29,139.973 197.124,140.64 195.5,140.5C 195.671,137.203 195.005,136.869 193.5,139.5C 192.719,138.271 192.219,136.938 192,135.5C 190.155,137.867 188.989,140.533 188.5,143.5C 184.316,145.456 181.983,148.789 181.5,153.5C 179.784,153.371 178.117,153.038 176.5,152.5C 183.094,141.801 186.761,130.135 187.5,117.5C 188.29,116.391 188.79,115.058 189,113.5C 189.278,114.416 189.778,115.082 190.5,115.5 Z"/></g>
<g><path style="opacity:1" fill="#545262" d="M 196.5,148.5 C 194.076,147.97 191.743,147.136 189.5,146C 188.748,145.329 188.414,144.496 188.5,143.5C 188.989,140.533 190.155,137.867 192,135.5C 192.219,136.938 192.719,138.271 193.5,139.5C 195.005,136.869 195.671,137.203 195.5,140.5C 197.124,140.64 198.29,139.973 199,138.5C 199.275,142.162 198.442,145.496 196.5,148.5 Z"/></g>
<g><path style="opacity:1" fill="#e1deee" d="M 191.5,140.5 C 193.63,141.032 195.63,141.865 197.5,143C 196.663,144.011 196.33,145.178 196.5,146.5C 195.325,146.719 194.325,146.386 193.5,145.5C 194.538,142.212 193.872,141.879 191.5,144.5C 191.167,144.167 190.833,143.833 190.5,143.5C 191.127,142.583 191.461,141.583 191.5,140.5 Z"/></g>
<g><path style="opacity:1" fill="#423f52" d="M 183.5,160.5 C 182.325,160.281 181.325,160.614 180.5,161.5C 181.728,164.071 183.728,165.405 186.5,165.5C 186.5,166.167 186.167,166.5 185.5,166.5C 183.037,166.219 180.87,165.219 179,163.5C 178.316,162.216 178.483,161.049 179.5,160C 181.066,159.235 182.399,159.402 183.5,160.5 Z"/></g>
<g><path style="opacity:1" fill="#454453" d="M 172.5,65.5 C 174.93,70.0366 177.597,74.3699 180.5,78.5C 184.447,86.009 186.78,94.009 187.5,102.5C 187.5,107.5 187.5,112.5 187.5,117.5C 186.761,130.135 183.094,141.801 176.5,152.5C 155.81,181.526 127.81,192.693 92.5,186C 76.6,180.894 63.2666,172.061 52.5,159.5C 49.8202,155.463 47.1535,151.463 44.5,147.5C 40.7756,140.272 38.4423,132.605 37.5,124.5C 37.2627,123.209 37.596,122.209 38.5,121.5C 40.0042,132.18 43.5042,142.18 49,151.5C 74.3818,185.954 106.882,194.787 146.5,178C 179.719,157.374 191.885,127.874 183,89.5C 167.265,52.0431 139.098,35.2097 98.5,39C 65.3591,47.306 45.3591,68.1393 38.5,101.5C 37.5655,100.432 37.2322,99.099 37.5,97.5C 40.2435,84.3477 45.9102,72.6811 54.5,62.5C 59.8698,57.1281 65.5365,52.1281 71.5,47.5C 79.1305,43.1816 87.1305,39.8483 95.5,37.5C 126.512,32.6108 152.178,41.9442 172.5,65.5 Z"/></g>
<g><path style="opacity:1" fill="#6388b7" d="M 147.5,156.5 C 146.094,156.973 145.427,157.973 145.5,159.5C 144.883,159.389 144.383,159.056 144,158.5C 142.541,154.135 143.874,151.135 148,149.5C 151.345,149.859 152.178,151.526 150.5,154.5C 149.261,154.942 148.261,155.609 147.5,156.5 Z"/></g>
<g><path style="opacity:1" fill="#666c5e" d="M 141.5,143.5 C 130.948,153.847 118.281,157.681 103.5,155C 97.279,154.107 91.9457,151.607 87.5,147.5C 106.418,157.756 124.418,156.423 141.5,143.5 Z"/></g>
<g><path style="opacity:1" fill="#6a88ac" d="M 72.5,148.5 C 78.3034,148.81 80.4701,151.81 79,157.5C 75.9304,161.707 72.097,162.54 67.5,160C 70.7585,159.997 73.4251,158.83 75.5,156.5C 74.6533,155.155 73.4866,154.155 72,153.5C 71.3603,151.735 71.5269,150.068 72.5,148.5 Z"/></g>
<g><path style="opacity:1" fill="#8b8c9f" d="M 106.5,146.5 C 108.124,146.36 109.29,147.027 110,148.5C 111.483,146.054 112.649,146.388 113.5,149.5C 109.787,151.311 107.454,150.311 106.5,146.5 Z"/></g>
<g><path style="opacity:1" fill="#9798ab" d="M 128.5,141.5 C 130.446,142.254 131.279,143.588 131,145.5C 130.586,145.043 130.086,144.709 129.5,144.5C 125.374,148.436 120.374,150.436 114.5,150.5C 114.693,145.986 116.86,144.653 121,146.5C 121.317,144.699 121.984,144.366 123,145.5C 124.456,143.535 126.29,142.201 128.5,141.5 Z"/></g>
<g><path style="opacity:1" fill="#9294a5" d="M 94.5,142.5 C 95.2216,142.918 95.7216,143.584 96,144.5C 98.619,143.271 101.119,143.604 103.5,145.5C 104.614,146.723 104.781,148.056 104,149.5C 101.165,148.58 98.3318,147.58 95.5,146.5C 94.5713,145.311 94.238,143.978 94.5,142.5 Z"/></g>
<g><path style="opacity:1" fill="#697164" d="M 150.5,137.5 C 150.478,141.025 150.978,144.358 152,147.5C 143.269,144.886 139.269,148.22 140,157.5C 137.358,154.971 134.192,153.971 130.5,154.5C 133.003,151.962 135.67,151.962 138.5,154.5C 139.048,147.614 142.715,144.281 149.5,144.5C 149.198,141.941 149.532,139.607 150.5,137.5 Z"/></g>
<g><path style="opacity:1" fill="#8a95b4" d="M 167.5,145.5 C 169.128,142.852 170.794,142.852 172.5,145.5C 171.113,145.807 169.446,145.807 167.5,145.5 Z"/></g>
<g><path style="opacity:1" fill="#69819f" d="M 62.5,137.5 C 69.5594,137.42 71.2261,140.42 67.5,146.5C 63.1298,149.384 59.1298,148.884 55.5,145C 57.2576,145.344 59.0909,145.844 61,146.5C 62.1074,146.415 63.1074,146.081 64,145.5C 63.3889,142.967 62.8889,140.3 62.5,137.5 Z"/></g>
<g><path style="opacity:1" fill="#6283a5" d="M 167.5,145.5 C 163.753,150.345 159.586,150.679 155,146.5C 154.333,144.167 154.333,141.833 155,139.5C 156.733,137.398 158.733,137.065 161,138.5C 161.667,139.5 161.667,140.5 161,141.5C 158.048,143.193 157.882,145.026 160.5,147C 163.095,147.6 165.429,147.1 167.5,145.5 Z"/></g>
<g><path style="opacity:1" fill="#666b61" d="M 147.5,136.5 C 146.19,139.473 144.19,141.807 141.5,143.5C 142.781,140.553 144.781,138.219 147.5,136.5 Z"/></g>
<g><path style="opacity:1" fill="#9799a6" d="M 143.5,123.5 C 145.09,123.628 146.423,124.295 147.5,125.5C 146.99,128.23 145.656,130.397 143.5,132C 143.833,132.333 144.167,132.667 144.5,133C 141.9,136.685 138.4,140.185 134,143.5C 132.699,142.902 131.865,141.902 131.5,140.5C 132.274,139.289 133.107,139.289 134,140.5C 135.35,135.815 138.183,132.315 142.5,130C 142.043,129.586 141.709,129.086 141.5,128.5C 142.456,126.925 143.123,125.258 143.5,123.5 Z"/></g>
<g><path style="opacity:1" fill="#9091a1" d="M 77.5,123.5 C 78.5,123.5 79.5,123.5 80.5,123.5C 80.3433,124.873 80.51,126.207 81,127.5C 83.0022,129.503 84.5022,131.836 85.5,134.5C 88.2025,135.562 89.7025,137.562 90,140.5C 91,140.5 92,140.5 93,140.5C 93.3876,142.076 92.8876,143.409 91.5,144.5C 84.0583,139.955 78.7249,133.621 75.5,125.5C 76.2427,124.818 76.9094,124.151 77.5,123.5 Z"/></g>
<g><path style="opacity:1" fill="#5b5e4d" d="M 153.5,134.5 C 152.833,135.833 151.833,136.833 150.5,137.5C 150.5,135.5 151.5,134.5 153.5,134.5 Z"/></g>
<g><path style="opacity:1" fill="#5d6154" d="M 150.5,131.5 C 150.25,133.674 149.25,135.341 147.5,136.5C 147.75,134.326 148.75,132.659 150.5,131.5 Z"/></g>
<g><path style="opacity:1" fill="#6a84ae" d="M 162.5,123.5 C 164.144,123.286 165.644,123.62 167,124.5C 166.561,126.759 166.061,129.092 165.5,131.5C 169.91,132.377 173.243,130.877 175.5,127C 176.944,126.219 178.277,126.386 179.5,127.5C 176.063,128.041 173.397,130.207 171.5,134C 165.866,135.85 162.2,134.017 160.5,128.5C 160.902,126.7 161.569,125.033 162.5,123.5 Z"/></g>
<g><path style="opacity:1" fill="#6f8aa7" d="M 57.5,122.5 C 61.5215,122.018 63.5215,123.852 63.5,128C 61.4411,133.067 57.7744,134.734 52.5,133C 50.7866,131.622 49.4533,129.955 48.5,128C 47.062,127.781 45.7287,127.281 44.5,126.5C 47.759,125.462 50.0923,126.628 51.5,130C 53.4727,130.495 55.4727,130.662 57.5,130.5C 56.4696,127.771 56.4696,125.104 57.5,122.5 Z"/></g>
<g><path style="opacity:1" fill="#6a8ca7" d="M 174.5,88.5 C 178.243,88.4592 178.41,89.1259 175,90.5C 175.871,99.299 172.038,102.799 163.5,101C 160.648,98.8474 160.148,96.3474 162,93.5C 163.333,92.1667 164.667,92.1667 166,93.5C 166.494,95.1341 166.66,96.8008 166.5,98.5C 168.722,98.822 170.556,98.1554 172,96.5C 172.117,93.4956 172.951,90.829 174.5,88.5 Z"/></g>
<g><path style="opacity:1" fill="#788eaa" d="M 46.5,88.5 C 48.1534,87.2006 49.6534,87.5339 51,89.5C 51.2256,92.095 51.7256,94.595 52.5,97C 54.1341,97.4935 55.8008,97.6602 57.5,97.5C 57.5,95.8333 57.5,94.1667 57.5,92.5C 62.8946,91.5548 64.5613,93.5548 62.5,98.5C 58.5827,102.468 54.7494,102.468 51,98.5C 50.1667,95.5 49.3333,92.5 48.5,89.5C 47.8165,89.1373 47.1499,88.8039 46.5,88.5 Z"/></g>
<g><path style="opacity:1" fill="#777a8f" d="M 79.5,91.5 C 79.5743,93.4109 80.5743,94.5776 82.5,95C 80.8619,95.242 79.3619,96.0753 78,97.5C 76.3374,95.1107 76.8374,93.1107 79.5,91.5 Z"/></g>
<g><path style="opacity:1" fill="#96989f" d="M 104.5,98.5 C 101.918,96.0032 100.418,93.0032 100,89.5C 102.547,91.9727 104.047,94.9727 104.5,98.5 Z"/></g>
<g><path style="opacity:1" fill="#737685" d="M 79.5,91.5 C 80.3721,87.9106 82.0387,87.5773 84.5,90.5C 83.0347,92.4236 81.368,92.7569 79.5,91.5 Z"/></g>
<g><path style="opacity:1" fill="#838797" d="M 133.5,79.5 C 139.624,83.9583 144.291,89.625 147.5,96.5C 146.131,98.124 144.464,98.624 142.5,98C 143.167,97.3333 143.833,96.6667 144.5,96C 143.359,95.2588 143.359,94.4255 144.5,93.5C 143.413,92.895 142.246,93.2283 141,94.5C 139.76,91.588 138.094,88.9213 136,86.5C 135.667,86.8333 135.333,87.1667 135,87.5C 132.346,85.2066 131.846,82.54 133.5,79.5 Z"/></g>
<g><path style="opacity:1" fill="#6484a5" d="M 165.5,70.5 C 166.376,70.3691 167.043,70.7025 167.5,71.5C 166.833,72.5 166.167,73.5 165.5,74.5C 168.273,83.1744 165.273,87.0077 156.5,86C 153.682,83.1468 153.848,80.6468 157,78.5C 159.02,79.0319 159.853,80.3652 159.5,82.5C 161.167,82.5 162.833,82.5 164.5,82.5C 164.823,78.479 165.157,74.479 165.5,70.5 Z"/></g>
<g><path style="opacity:1" fill="#6b89a3" d="M 55.5,71.5 C 56.9097,70.1716 58.0764,70.5049 59,72.5C 58.1822,75.8306 58.3489,79.1639 59.5,82.5C 61.1667,82.5 62.8333,82.5 64.5,82.5C 64.3501,78.8388 65.8501,77.8388 69,79.5C 69.1708,85.3132 66.3375,87.4798 60.5,86C 60,85.5 59.5,85 59,84.5C 57.8099,80.6192 57.1432,76.6192 57,72.5C 56.6174,71.944 56.1174,71.6107 55.5,71.5 Z"/></g>
<g><path style="opacity:1" fill="#606762" d="M 91.5,74.5 C 85.5374,78.7949 80.204,83.7949 75.5,89.5C 78.8926,82.4411 84.2259,77.4411 91.5,74.5 Z"/></g>
<g><path style="opacity:1" fill="#858d97" d="M 95.5,77.5 C 96.3023,76.1153 96.9689,76.282 97.5,78C 99.0682,80.1203 98.5682,81.6203 96,82.5C 94.5981,80.0266 93.0981,80.0266 91.5,82.5C 92.9989,83.9038 92.6656,84.5704 90.5,84.5C 87.9365,84.263 87.9365,83.763 90.5,83C 89.0096,81.3657 87.6763,81.699 86.5,84C 87.5,85 88.5,86 89.5,87C 85.7403,86.5789 84.407,84.5789 85.5,81C 88.5385,80.6466 91.2052,79.4799 93.5,77.5C 94.3333,78.5 95.1667,79.5 96,80.5C 96.7401,79.2506 96.5735,78.2506 95.5,77.5 Z"/></g>
<g><path style="opacity:1" fill="#7c7f85" d="M 104.5,73.5 C 105.914,75.0439 106.247,76.7106 105.5,78.5C 104.758,76.6503 103.758,75.9836 102.5,76.5C 103.612,75.7348 104.279,74.7348 104.5,73.5 Z"/></g>
<g><path style="opacity:1" fill="#585f58" d="M 86.5,69.5 C 84.9974,72.2413 83.3308,75.0746 81.5,78C 80.2068,78.49 78.8734,78.6567 77.5,78.5C 77.5,78.1667 77.5,77.8333 77.5,77.5C 79.3904,77.7035 80.8904,77.0368 82,75.5C 82.9385,72.8791 83.7719,70.2125 84.5,67.5C 85.5223,67.8555 86.189,68.5222 86.5,69.5 Z"/></g>
<g><path style="opacity:1" fill="#868c9a" d="M 104.5,69.5 C 105.568,68.5655 106.901,68.2322 108.5,68.5C 110.5,69.1667 112.5,69.8333 114.5,70.5C 113.668,71.3285 114.001,72.1618 115.5,73C 119.487,74.5054 123.487,74.6721 127.5,73.5C 128.614,74.8853 129.614,76.3853 130.5,78C 129.382,79.0736 128.382,80.2402 127.5,81.5C 126.416,80.3349 125.583,79.0016 125,77.5C 124.751,78.624 124.251,79.624 123.5,80.5C 120.899,79.3092 119.232,77.3092 118.5,74.5C 117.673,76.162 116.507,77.4954 115,78.5C 113.887,77.2889 112.72,77.2889 111.5,78.5C 110.223,75.9659 110.223,73.4659 111.5,71C 110.207,70.51 108.873,70.3433 107.5,70.5C 106.791,69.596 105.791,69.2627 104.5,69.5 Z"/></g>
<g><path style="opacity:1" fill="#6c716e" d="M 108.5,68.5 C 118.138,67.7402 126.804,70.0736 134.5,75.5C 132.167,74.8333 129.833,74.1667 127.5,73.5C 123.555,71.3738 119.222,70.3738 114.5,70.5C 112.5,69.8333 110.5,69.1667 108.5,68.5 Z"/></g>
<g><path style="opacity:1" fill="#728a9f" d="M 153.5,56.5 C 153.796,60.7635 154.629,65.0968 156,69.5C 152.854,75.2556 148.854,75.9223 144,71.5C 143.333,70.5 143.333,69.5 144,68.5C 145.699,67.5939 147.533,67.2606 149.5,67.5C 149.5,68.5 149.5,69.5 149.5,70.5C 150.833,70.5 152.167,70.5 153.5,70.5C 153.806,66.8023 153.139,63.3023 151.5,60C 151.978,58.6974 152.645,57.5307 153.5,56.5 Z"/></g>
<g><path style="opacity:1" fill="#ebf2f7" d="M 114.5,70.5 C 119.222,70.3738 123.555,71.3738 127.5,73.5C 123.487,74.6721 119.487,74.5054 115.5,73C 114.001,72.1618 113.668,71.3285 114.5,70.5 Z"/></g>
<g><path style="opacity:1" fill="#6384a1" d="M 68.5,65.5 C 69.1667,65.5 69.8333,65.5 70.5,65.5C 70.147,67.6348 70.9803,68.9681 73,69.5C 74.6667,68.5 76.3333,67.5 78,66.5C 81.6131,70.8098 80.4464,73.4765 74.5,74.5C 70.0943,73.0957 68.0943,70.0957 68.5,65.5 Z"/></g>
<g><path style="opacity:1" fill="#696d66" d="M 104.5,69.5 C 105.791,69.2627 106.791,69.596 107.5,70.5C 101.926,70.9472 96.5926,72.2806 91.5,74.5C 95.2058,71.4909 99.5392,69.8242 104.5,69.5 Z"/></g>
<g><path style="opacity:1" fill="#737668" d="M 96.5,65.5 C 96.7035,67.3904 96.0368,68.8904 94.5,70C 91.633,70.8007 88.9664,70.6341 86.5,69.5C 88.5273,69.6621 90.5273,69.4955 92.5,69C 93.7358,67.6125 95.0692,66.4458 96.5,65.5 Z"/></g>
<g><path style="opacity:1" fill="#5d655a" d="M 157.5,92.5 C 155.732,90.8037 153.565,89.4704 151,88.5C 149.684,85.3117 149.184,81.9783 149.5,78.5C 142.586,79.5936 138.92,76.5936 138.5,69.5C 131.891,72.3403 127.725,70.3403 126,63.5C 120.471,68.0438 115.804,67.3771 112,61.5C 108.108,67.2591 103.441,67.9258 98,63.5C 97.7216,64.4158 97.2216,65.0825 96.5,65.5C 96.317,59.6836 97.6503,59.1836 100.5,64C 106.213,66.3956 110.046,64.5623 112,58.5C 115.947,66.9022 120.947,67.5689 127,60.5C 128.376,69.7735 132.876,71.7735 140.5,66.5C 140.676,68.6716 140.843,71.0049 141,73.5C 141.465,74.9308 142.299,76.0975 143.5,77C 146.667,77.2518 149.667,77.4185 152.5,77.5C 148.662,85.6401 151.328,89.8068 160.5,90C 159.627,91.045 158.627,91.8783 157.5,92.5 Z"/></g>
<g><path style="opacity:1" fill="#6b86a3" d="M 136.5,47.5 C 137.602,50.8074 139.435,53.8074 142,56.5C 143.112,62.708 140.612,65.8746 134.5,66C 131.855,64.7135 130.855,62.5468 131.5,59.5C 133.827,59.2471 135.827,59.9137 137.5,61.5C 138.086,61.2907 138.586,60.9574 139,60.5C 139.667,58.5 139.667,56.5 139,54.5C 135.853,52.8886 135.019,50.5552 136.5,47.5 Z"/></g>
<g><path style="opacity:1" fill="#889897" d="M 70.5,65.5 C 69.8333,65.5 69.1667,65.5 68.5,65.5C 69.4412,63.5336 70.4412,61.5336 71.5,59.5C 71.0233,58.5224 70.3567,57.6891 69.5,57C 71.4731,56.4622 72.4731,57.2956 72.5,59.5C 71.8224,61.516 71.1557,63.516 70.5,65.5 Z"/></g>
<g><path style="opacity:1" fill="#6382a7" d="M 83.5,60.5 C 83.8417,59.6618 84.5084,59.3284 85.5,59.5C 85.9169,60.1239 86.5836,60.4573 87.5,60.5C 89.3337,59.2455 91.3337,58.5789 93.5,58.5C 94.4874,64.3312 92.154,66.4978 86.5,65C 84.8588,63.871 83.8588,62.371 83.5,60.5 Z"/></g>
<g><path style="opacity:1" fill="#5e84a7" d="M 119.5,48.5 C 122.058,47.8468 124.225,48.8468 126,51.5C 127.618,58.7952 124.785,61.9619 117.5,61C 116.594,59.3005 116.261,57.4672 116.5,55.5C 118.861,55.6741 121.194,56.0074 123.5,56.5C 124.428,52.517 123.095,49.8503 119.5,48.5 Z"/></g>
<g><path style="opacity:1" fill="#6385b4" d="M 105.5,47.5 C 105.213,49.1207 104.213,50.1207 102.5,50.5C 101.386,51.723 101.219,53.0563 102,54.5C 104.069,55.2638 106.236,55.7638 108.5,56C 109.832,59.5257 108.499,61.359 104.5,61.5C 99.4723,59.963 97.6389,56.6297 99,51.5C 100.638,49.2663 102.805,47.933 105.5,47.5 Z"/></g>
<g><path style="opacity:1" fill="#7d939f" d="M 85.5,59.5 C 84.5084,59.3284 83.8417,59.6618 83.5,60.5C 82.3871,59.0536 82.2204,57.3869 83,55.5C 85.8447,53.4953 87.678,50.8286 88.5,47.5C 89.9832,50.5382 89.1499,52.8715 86,54.5C 85.5065,56.1341 85.3398,57.8008 85.5,59.5 Z"/></g>
<g><path style="opacity:1" fill="#8d9597" d="M 105.5,47.5 C 106.011,45.8053 106.678,44.1386 107.5,42.5C 109.09,45.1699 108.423,46.8366 105.5,47.5 Z"/></g>
<g><path style="opacity:1" fill="#423f50" d="M 178.5,165.5 C 180.411,166.075 182.078,167.075 183.5,168.5C 183.033,171.297 181.367,172.631 178.5,172.5C 176.984,170.814 175.65,168.981 174.5,167C 175.289,164.572 176.623,164.072 178.5,165.5 Z"/></g>
<g><path style="opacity:1" fill="#dbd7e5" d="M 178.5,165.5 C 179.476,166.815 180.476,168.148 181.5,169.5C 178.937,170.811 177.27,169.978 176.5,167C 176.836,165.97 177.503,165.47 178.5,165.5 Z"/></g>
<g><path style="opacity:1" fill="#5b5969" d="M 178.5,173.5 C 179.833,174.167 179.833,174.833 178.5,175.5C 177.518,174.859 176.518,174.193 175.5,173.5C 175.5,175.167 175.5,176.833 175.5,178.5C 173.167,176.833 171.167,174.833 169.5,172.5C 170.212,170.954 171.378,169.954 173,169.5C 174.677,171.005 176.511,172.338 178.5,173.5 Z"/></g>
<g><path style="opacity:1" fill="#454453" d="M 170.5,182.5 C 169.652,183.625 168.652,183.625 167.5,182.5C 165.877,181.221 164.21,179.887 162.5,178.5C 163.274,177.289 164.107,177.289 165,178.5C 165.333,177.5 165.667,176.5 166,175.5C 167.117,176.949 167.784,178.616 168,180.5C 168.708,181.381 169.542,182.047 170.5,182.5 Z"/></g>
<g><path style="opacity:1" fill="#4d4c5b" d="M 165.5,183.5 C 165.833,184.167 166.167,184.833 166.5,185.5C 165.53,186.629 164.364,187.629 163,188.5C 161.357,187.685 159.857,186.685 158.5,185.5C 156.625,182.648 157.291,180.648 160.5,179.5C 162.931,180.806 162.597,181.806 159.5,182.5C 160.04,183.748 160.707,184.915 161.5,186C 164.173,185.937 164.173,185.271 161.5,184C 162.682,182.232 164.015,182.065 165.5,183.5 Z"/></g>
<g><path style="opacity:1" fill="#f1f1f4" d="M 188.5,143.5 C 188.414,144.496 188.748,145.329 189.5,146C 191.743,147.136 194.076,147.97 196.5,148.5C 197.303,149.423 197.47,150.423 197,151.5C 195.698,152.085 194.531,152.751 193.5,153.5C 192.624,153.631 191.957,153.298 191.5,152.5C 192.833,151.833 194.167,151.167 195.5,150.5C 193.577,149.692 191.577,149.192 189.5,149C 188.874,148.25 188.374,147.416 188,146.5C 187.316,147.784 187.483,148.951 188.5,150C 187.5,150.333 186.5,150.667 185.5,151C 187.898,152.524 190.231,154.024 192.5,155.5C 192.737,156.791 192.404,157.791 191.5,158.5C 191.586,157.504 191.252,156.671 190.5,156C 188.797,155.255 187.13,154.421 185.5,153.5C 182.604,154.024 181.937,155.524 183.5,158C 185.333,159.167 187.167,160.333 189,161.5C 189.464,160.906 189.631,160.239 189.5,159.5C 190.867,161.79 190.2,163.456 187.5,164.5C 187.167,162.167 185.833,160.833 183.5,160.5C 182.399,159.402 181.066,159.235 179.5,160C 178.483,161.049 178.316,162.216 179,163.5C 180.87,165.219 183.037,166.219 185.5,166.5C 184.833,167.167 184.167,167.833 183.5,168.5C 182.078,167.075 180.411,166.075 178.5,165.5C 176.623,164.072 175.289,164.572 174.5,167C 175.65,168.981 176.984,170.814 178.5,172.5C 178.5,172.833 178.5,173.167 178.5,173.5C 176.511,172.338 174.677,171.005 173,169.5C 171.378,169.954 170.212,170.954 169.5,172.5C 171.167,174.833 173.167,176.833 175.5,178.5C 175.5,176.833 175.5,175.167 175.5,173.5C 176.518,174.193 177.518,174.859 178.5,175.5C 177.316,176.688 177.316,177.855 178.5,179C 176.866,179.494 175.199,179.66 173.5,179.5C 173.5,180.5 173.5,181.5 173.5,182.5C 172.5,182.5 171.5,182.5 170.5,182.5C 169.542,182.047 168.708,181.381 168,180.5C 167.784,178.616 167.117,176.949 166,175.5C 165.667,176.5 165.333,177.5 165,178.5C 164.107,177.289 163.274,177.289 162.5,178.5C 164.21,179.887 165.877,181.221 167.5,182.5C 166.508,182.328 165.842,182.662 165.5,183.5C 164.015,182.065 162.682,182.232 161.5,184C 164.173,185.271 164.173,185.937 161.5,186C 160.707,184.915 160.04,183.748 159.5,182.5C 162.597,181.806 162.931,180.806 160.5,179.5C 157.291,180.648 156.625,182.648 158.5,185.5C 159.857,186.685 161.357,187.685 163,188.5C 164.364,187.629 165.53,186.629 166.5,185.5C 166.954,187.259 166.954,189.259 166.5,191.5C 165.167,191.5 163.833,191.5 162.5,191.5C 162.5,192.5 162.5,193.5 162.5,194.5C 164.722,194.822 166.556,194.155 168,192.5C 168.333,192.833 168.667,193.167 169,193.5C 169.342,191.381 170.175,191.047 171.5,192.5C 169.673,193.932 168.006,195.599 166.5,197.5C 167.833,199.833 169.167,202.167 170.5,204.5C 168.169,206.66 165.669,208.66 163,210.5C 161.311,207.109 159.144,204.109 156.5,201.5C 152.909,202.783 149.909,204.783 147.5,207.5C 148.932,210.327 149.599,213.327 149.5,216.5C 146.438,217.054 143.438,217.554 140.5,218C 139.518,215.262 138.852,212.428 138.5,209.5C 135.041,209.531 131.708,210.198 128.5,211.5C 127.513,214.768 127.18,218.102 127.5,221.5C 126.167,221.5 124.833,221.5 123.5,221.5C 121.833,221.5 120.167,221.5 118.5,221.5C 118.81,218.287 118.477,215.287 117.5,212.5C 113.5,212.5 109.5,212.5 105.5,212.5C 105.5,215.5 105.5,218.5 105.5,221.5C 102.167,221.5 98.8333,221.5 95.5,221.5C 95.6159,218.14 95.9492,214.807 96.5,211.5C 92.5236,210.705 88.5236,210.038 84.5,209.5C 83.9782,212.568 83.1449,215.568 82,218.5C 79.2824,217.653 76.6157,216.653 74,215.5C 73.9467,212.798 74.4467,210.131 75.5,207.5C 72.9638,204.112 69.6305,202.279 65.5,202C 64.2676,204.975 62.4342,207.475 60,209.5C 57.1025,208.437 54.6025,206.77 52.5,204.5C 53.9213,201.991 55.5879,199.657 57.5,197.5C 54.8103,194.815 51.8103,192.482 48.5,190.5C 45.9763,192.19 43.9763,194.357 42.5,197C 39.2148,195.91 36.5481,193.743 34.5,190.5C 42.4053,185.213 42.072,180.213 33.5,175.5C 30.8883,176.779 28.5549,178.445 26.5,180.5C 23.7997,178.766 21.7997,176.432 20.5,173.5C 22.6397,170.939 24.973,168.605 27.5,166.5C 26.5435,164.925 25.8769,163.258 25.5,161.5C 26.6937,158.982 27.8604,158.982 29,161.5C 29.7096,160.027 30.8762,159.36 32.5,159.5C 35.9864,159.295 36.9864,160.629 35.5,163.5C 35.8333,164.5 36.5,165.167 37.5,165.5C 37.4346,165.938 37.6012,166.272 38,166.5C 41.8131,162.606 42.3131,163.106 39.5,168C 39.8333,168.5 40.1667,169 40.5,169.5C 43.0912,167.719 45.4245,165.719 47.5,163.5C 46.0694,161.599 45.0694,159.432 44.5,157C 45.3333,156.167 46.1667,155.333 47,154.5C 47.4365,157.772 49.2699,159.439 52.5,159.5C 63.2666,172.061 76.6,180.894 92.5,186C 127.81,192.693 155.81,181.526 176.5,152.5C 178.117,153.038 179.784,153.371 181.5,153.5C 181.983,148.789 184.316,145.456 188.5,143.5 Z"/></g>
<g><path style="opacity:1" fill="#5a5969" d="M 146.5,196.5 C 144.95,197.72 143.284,197.72 141.5,196.5C 141.149,194.131 140.982,191.797 141,189.5C 142.923,188.684 144.923,188.017 147,187.5C 148.734,189.29 150.234,191.29 151.5,193.5C 152.396,192.494 153.062,192.494 153.5,193.5C 151.164,196.355 149.331,196.022 148,192.5C 147.79,194.058 147.29,195.391 146.5,196.5 Z"/></g>
<g><path style="opacity:1" fill="#d0d0d8" d="M 65.5,180.5 C 67.3684,181.263 69.0351,182.263 70.5,183.5C 68.3523,183.389 68.019,184.056 69.5,185.5C 68.627,187.413 67.627,189.247 66.5,191C 67.0944,191.464 67.7611,191.631 68.5,191.5C 67.791,192.404 66.791,192.737 65.5,192.5C 65.6495,191.448 65.4828,190.448 65,189.5C 63.9887,190.337 62.8221,190.67 61.5,190.5C 61.5,189.5 61.5,188.5 61.5,187.5C 60.0222,187.762 58.6888,187.429 57.5,186.5C 57.6236,185.893 57.9569,185.56 58.5,185.5C 58.8966,186.525 59.5632,186.692 60.5,186C 61.6924,183.645 63.359,181.812 65.5,180.5 Z"/></g>
<g><path style="opacity:1" fill="#3d3d49" d="M 70.5,183.5 C 71.6935,184.272 72.6935,185.272 73.5,186.5C 70.7361,186.999 69.0695,188.665 68.5,191.5C 67.7611,191.631 67.0944,191.464 66.5,191C 67.627,189.247 68.627,187.413 69.5,185.5C 68.019,184.056 68.3523,183.389 70.5,183.5 Z"/></g>
<g><path style="opacity:1" fill="#424150" d="M 66.5,182.5 C 67.0954,185.321 65.9287,187.654 63,189.5C 63.579,187.008 64.7456,184.675 66.5,182.5 Z"/></g>
<g><path style="opacity:1" fill="#484556" d="M 158.5,185.5 C 160.423,188.638 159.757,190.971 156.5,192.5C 153.893,191.059 152.226,188.893 151.5,186C 153.467,182.88 155.801,182.713 158.5,185.5 Z"/></g>
<g><path style="opacity:1" fill="#e0dce9" d="M 153.5,184.5 C 156.654,185.474 157.654,187.474 156.5,190.5C 154.447,189.061 153.447,187.061 153.5,184.5 Z"/></g>
<g><path style="opacity:1" fill="#494958" d="M 65.5,180.5 C 63.359,181.812 61.6924,183.645 60.5,186C 59.5632,186.692 58.8966,186.525 58.5,185.5C 60.0783,183.348 61.4117,181.014 62.5,178.5C 63.5178,179.193 64.5178,179.859 65.5,180.5 Z"/></g>
<g><path style="opacity:1" fill="#3a3d4a" d="M 51.5,179.5 C 53.0744,179.937 54.2411,180.937 55,182.5C 55.4966,180.19 55.6633,177.857 55.5,175.5C 57.6648,175.116 59.3315,175.783 60.5,177.5C 60.1667,177.833 59.8333,178.167 59.5,178.5C 58.8333,177.833 58.1667,177.167 57.5,176.5C 56.9488,178.413 56.7821,180.413 57,182.5C 53.9423,183.966 52.109,182.966 51.5,179.5 Z"/></g>
<g><path style="opacity:1" fill="#424455" d="M 51.5,179.5 C 49.2901,178.545 48.9568,177.045 50.5,175C 49.0039,174.493 47.8373,174.993 47,176.5C 47.7203,173.735 49.3869,171.401 52,169.5C 52.5,170 53,170.5 53.5,171C 52.0723,174.474 52.5723,174.974 55,172.5C 55.1667,172.833 55.3333,173.167 55.5,173.5C 54.115,175.536 52.7817,177.536 51.5,179.5 Z"/></g>
<g><path style="opacity:1" fill="#728a9e" d="M 102.5,162.5 C 101.453,167.435 103.453,168.768 108.5,166.5C 108.837,173.333 105.504,176.833 98.5,177C 97.8742,177.75 97.3742,178.584 97,179.5C 96.2888,177.633 96.7888,176.133 98.5,175C 103.303,175.361 105.637,173.194 105.5,168.5C 100.877,169.592 99.0442,167.925 100,163.5C 100.671,162.748 101.504,162.414 102.5,162.5 Z"/></g>
<g><path style="opacity:1" fill="#343641" d="M 49.5,167.5 C 50.525,167.897 50.6917,168.563 50,169.5C 48.3333,171.167 46.6667,172.833 45,174.5C 44.3333,173.833 44.3333,173.167 45,172.5C 46.7073,170.963 48.2073,169.296 49.5,167.5 Z"/></g>
<g><path style="opacity:1" fill="#6e869c" d="M 132.5,158.5 C 135.056,158.132 137.056,158.966 138.5,161C 138.355,161.772 138.022,162.439 137.5,163C 132.437,163.219 131.437,165.219 134.5,169C 137.167,169.333 139.833,169.667 142.5,170C 144.26,170.965 144.594,172.132 143.5,173.5C 140.422,171.87 137.089,171.037 133.5,171C 128.652,166.969 128.319,162.802 132.5,158.5 Z"/></g>
<g><path style="opacity:1" fill="#6c85a0" d="M 85.5,158.5 C 92.5027,157.673 95.0027,160.673 93,167.5C 92.0975,168.701 90.9308,169.535 89.5,170C 86.8333,170.333 84.1667,170.667 81.5,171C 79.8689,172.836 79.2022,172.336 79.5,169.5C 82.1873,169.664 84.854,169.497 87.5,169C 89.1554,167.556 89.822,165.722 89.5,163.5C 85.065,164.078 83.7317,162.411 85.5,158.5 Z"/></g>
<g><path style="opacity:1" fill="#6c8eab" d="M 117.5,162.5 C 121.987,162.141 123.654,163.974 122.5,168C 120.866,168.494 119.199,168.66 117.5,168.5C 117.34,170.199 117.506,171.866 118,173.5C 120.071,174.525 122.238,175.358 124.5,176C 125.517,177.049 125.684,178.216 125,179.5C 124.626,178.584 124.126,177.75 123.5,177C 115.882,176.723 112.715,172.89 114,165.5C 115.145,164.364 116.312,163.364 117.5,162.5 Z"/></g>
<g><path style="opacity:1" fill="#4987b3" d="M 102.5,162.5 C 105.608,162.375 107.608,163.708 108.5,166.5C 103.453,168.768 101.453,167.435 102.5,162.5 Z"/></g>
<g><path style="opacity:1" fill="#4a4958" d="M 47.5,163.5 C 45.4245,165.719 43.0912,167.719 40.5,169.5C 40.1667,169 39.8333,168.5 39.5,168C 42.3131,163.106 41.8131,162.606 38,166.5C 37.6012,166.272 37.4346,165.938 37.5,165.5C 39.1455,163.188 41.1455,161.188 43.5,159.5C 44.5779,161.475 44.2446,163.308 42.5,165C 44.1893,164.866 45.856,164.366 47.5,163.5 Z"/></g>
<g><path style="opacity:1" fill="#475b57" d="M 96.5,158.5 C 97.391,159.11 98.391,159.443 99.5,159.5C 97.1118,165.033 96.1118,164.699 96.5,158.5 Z"/></g>
<g><path style="opacity:1" fill="#84959f" d="M 147.5,156.5 C 147.818,158.818 149.152,160.152 151.5,160.5C 154.028,159.058 156.695,158.558 159.5,159C 160.517,160.049 160.684,161.216 160,162.5C 159.326,161.422 158.326,160.755 157,160.5C 153.979,162.038 150.812,162.538 147.5,162C 146.619,161.292 145.953,160.458 145.5,159.5C 145.427,157.973 146.094,156.973 147.5,156.5 Z"/></g>
<g><path style="opacity:1" fill="#60695d" d="M 130.5,154.5 C 128.432,157.124 127.099,160.124 126.5,163.5C 120.549,156.324 115.716,156.991 112,165.5C 110.579,163.595 109.412,161.595 108.5,159.5C 109.735,159.721 110.735,160.388 111.5,161.5C 116.01,156.594 120.843,156.261 126,160.5C 125.851,157.16 127.351,155.16 130.5,154.5 Z"/></g>
<g><path style="opacity:1" fill="#91a1b3" d="M 63.5,157.5 C 64.675,157.281 65.675,157.614 66.5,158.5C 63.0372,162.719 62.0372,162.385 63.5,157.5 Z"/></g>
<g><path style="opacity:1" fill="#555a55" d="M 106.5,158.5 C 104.097,158.448 101.764,158.781 99.5,159.5C 100.312,158.007 101.645,157.34 103.5,157.5C 104.726,157.52 105.726,157.853 106.5,158.5 Z"/></g>
<g><path style="opacity:1" fill="#b9b8c5" d="M 184.5,155.5 C 186.337,155.639 186.67,156.306 185.5,157.5C 184.702,157.043 184.369,156.376 184.5,155.5 Z"/></g>
<g><path style="opacity:1" fill="#484856" d="M 73.5,186.5 C 74.3764,186.369 75.0431,186.702 75.5,187.5C 73.5532,189.276 73.2199,191.276 74.5,193.5C 75.6566,191.322 76.9899,189.322 78.5,187.5C 80.5101,188.502 82.5101,189.502 84.5,190.5C 82.5879,192.657 80.9213,194.991 79.5,197.5C 79.15,195.35 79.8166,193.183 81.5,191C 80.5,190.333 79.5,190.333 78.5,191C 77.7335,193.053 76.4002,194.553 74.5,195.5C 73.5581,195.392 72.7247,195.059 72,194.5C 71.5721,191.678 72.0721,189.012 73.5,186.5 Z"/></g>
<g><path style="opacity:1" fill="#d7d7e4" d="M 146.5,196.5 C 143.346,195.526 142.346,193.526 143.5,190.5C 145.553,191.939 146.553,193.939 146.5,196.5 Z"/></g>
<g><path style="opacity:1" fill="#4b4d58" d="M 85.5,191.5 C 91.2611,191.709 91.5945,192.542 86.5,194C 87.3279,194.915 88.3279,195.581 89.5,196C 84.7191,196.518 84.3858,197.852 88.5,200C 86.0752,200.986 84.4085,200.319 83.5,198C 84.2741,195.846 84.9408,193.679 85.5,191.5 Z"/></g>
<g><path style="opacity:1" fill="#81828e" d="M 108.5,195.5 C 112.019,194.192 115.685,194.192 119.5,195.5C 118.675,196.386 117.675,196.719 116.5,196.5C 115.493,196.452 115.16,197.452 115.5,199.5C 114.833,198.5 114.167,197.5 113.5,196.5C 112.081,195.549 110.415,195.216 108.5,195.5 Z"/></g>
<g><path style="opacity:1" fill="#b3b3cc" d="M 133.5,192.5 C 134.167,194.833 134.833,197.167 135.5,199.5C 134.833,200.167 134.167,200.833 133.5,201.5C 133.752,198.68 133.252,196.014 132,193.5C 131.768,194.737 131.268,195.737 130.5,196.5C 130.5,195.167 130.5,193.833 130.5,192.5C 131.5,192.5 132.5,192.5 133.5,192.5 Z"/></g>
<g><path style="opacity:1" fill="#54556b" d="M 141.5,196.5 C 141.719,197.675 141.386,198.675 140.5,199.5C 139.186,198.687 138.019,197.687 137,196.5C 136.508,197.549 136.674,198.549 137.5,199.5C 136.743,200.773 136.077,200.773 135.5,199.5C 134.833,197.167 134.167,194.833 133.5,192.5C 134.793,191.355 135.959,191.689 137,193.5C 137.249,192.376 137.749,191.376 138.5,190.5C 139.208,192.745 140.208,194.745 141.5,196.5 Z"/></g>
<g><path style="opacity:1" fill="#918ea0" d="M 105.5,195.5 C 104.737,196.268 103.737,196.768 102.5,197C 103.416,197.278 104.082,197.778 104.5,198.5C 103.5,198.5 102.5,198.5 101.5,198.5C 101.5,197.5 101.5,196.5 101.5,195.5C 102.833,195.5 104.167,195.5 105.5,195.5 Z"/></g>
<g><path style="opacity:1" fill="#292848" d="M 127.5,193.5 C 128.1,194.9 129.1,195.9 130.5,196.5C 131.268,195.737 131.768,194.737 132,193.5C 133.252,196.014 133.752,198.68 133.5,201.5C 132.662,201.158 132.328,200.492 132.5,199.5C 131.448,197.744 129.781,197.077 127.5,197.5C 127.5,196.833 127.5,196.167 127.5,195.5C 127.5,194.833 127.5,194.167 127.5,193.5 Z"/></g>
<g><path style="opacity:1" fill="#5c5976" d="M 127.5,197.5 C 129.781,197.077 131.448,197.744 132.5,199.5C 131.883,199.389 131.383,199.056 131,198.5C 130.377,203.235 129.21,203.568 127.5,199.5C 127.5,198.833 127.5,198.167 127.5,197.5 Z"/></g>
<g><path style="opacity:1" fill="#353147" d="M 105.5,195.5 C 104.167,195.5 102.833,195.5 101.5,195.5C 101.5,196.5 101.5,197.5 101.5,198.5C 102.5,198.5 103.5,198.5 104.5,198.5C 103.791,199.404 102.791,199.737 101.5,199.5C 101.649,200.552 101.483,201.552 101,202.5C 100.503,199.854 100.336,197.187 100.5,194.5C 102.415,194.216 104.081,194.549 105.5,195.5 Z"/></g>
<g><path style="opacity:1" fill="#e7eaf4" d="M 127.5,195.5 C 127.5,196.167 127.5,196.833 127.5,197.5C 127.5,198.167 127.5,198.833 127.5,199.5C 125.857,199.48 124.524,200.147 123.5,201.5C 122.167,199.5 122.167,197.5 123.5,195.5C 124.865,196.807 126.198,196.807 127.5,195.5 Z"/></g>
<g><path style="opacity:1" fill="#4b4a57" d="M 94.5,193.5 C 96.9484,193.01 98.615,193.843 99.5,196C 98.9221,197.811 98.4221,199.645 98,201.5C 94.889,203.272 93.0556,202.439 92.5,199C 92.7579,196.991 93.4245,195.157 94.5,193.5 Z"/></g>
<g><path style="opacity:1" fill="#e2e1eb" d="M 95.5,194.5 C 96.5862,194.62 97.2528,195.287 97.5,196.5C 97.2237,198.33 96.557,199.997 95.5,201.5C 94.4249,199.189 94.4249,196.856 95.5,194.5 Z"/></g>
<g><path style="opacity:1" fill="#434255" d="M 108.5,195.5 C 110.415,195.216 112.081,195.549 113.5,196.5C 112.835,198.698 112.168,201.031 111.5,203.5C 110.908,200.564 109.908,197.897 108.5,195.5 Z"/></g>
<g><path style="opacity:1" fill="#242736" d="M 116.5,196.5 C 116.821,198.048 117.821,198.715 119.5,198.5C 118.791,199.404 117.791,199.737 116.5,199.5C 116.5,200.5 116.5,201.5 116.5,202.5C 117.833,202.5 119.167,202.5 120.5,202.5C 119.081,203.451 117.415,203.784 115.5,203.5C 115.5,202.167 115.5,200.833 115.5,199.5C 115.16,197.452 115.493,196.452 116.5,196.5 Z"/></g>
<g><path style="opacity:1" fill="#9b9faf" d="M 121.5,195.5 C 121.5,197.167 121.5,198.833 121.5,200.5C 120.127,200.343 118.793,200.51 117.5,201C 118.737,201.232 119.737,201.732 120.5,202.5C 119.167,202.5 117.833,202.5 116.5,202.5C 116.5,201.5 116.5,200.5 116.5,199.5C 117.791,199.737 118.791,199.404 119.5,198.5C 120.167,197.5 120.833,196.5 121.5,195.5 Z"/></g>
<g><path style="opacity:1" fill="#4e505d" d="M 127.5,193.5 C 127.5,194.167 127.5,194.833 127.5,195.5C 126.198,196.807 124.865,196.807 123.5,195.5C 122.167,197.5 122.167,199.5 123.5,201.5C 124.524,200.147 125.857,199.48 127.5,199.5C 127.206,202.646 125.539,203.813 122.5,203C 121.748,202.329 121.414,201.496 121.5,200.5C 121.5,198.833 121.5,197.167 121.5,195.5C 121.611,194.883 121.944,194.383 122.5,194C 124.342,194.068 126.009,193.901 127.5,193.5 Z"/></g>
<g><path style="opacity:1" fill="#f6f6f6" d="M 115.5,224.5 C 112.833,224.5 110.167,224.5 107.5,224.5C 107.5,221.167 107.5,217.833 107.5,214.5C 110.167,214.5 112.833,214.5 115.5,214.5C 115.5,217.833 115.5,221.167 115.5,224.5 Z"/></g>
<g><path style="opacity:1" fill="#9491a5" d="M 117.5,212.5 C 118.477,215.287 118.81,218.287 118.5,221.5C 120.167,221.5 121.833,221.5 123.5,221.5C 121.735,222.461 119.735,222.795 117.5,222.5C 117.5,219.167 117.5,215.833 117.5,212.5 Z"/></g>
</svg>
