<?xml version="1.0" encoding="UTF-8"?>
<!DOCTYPE svg PUBLIC "-//W3C//DTD SVG 1.1//EN" "http://www.w3.org/Graphics/SVG/1.1/DTD/svg11.dtd">
<svg xmlns="http://www.w3.org/2000/svg" version="1.1" width="200px" height="200px" style="shape-rendering:geometricPrecision; text-rendering:geometricPrecision; image-rendering:optimizeQuality; fill-rule:evenodd; clip-rule:evenodd" xmlns:xlink="http://www.w3.org/1999/xlink">
<g><path style="opacity:1" fill="#fbfbfb" d="M -0.5,-0.5 C 38.8333,-0.5 78.1667,-0.5 117.5,-0.5C 120.34,0.776769 123.006,2.44344 125.5,4.5C 130.96,4.70018 135.96,6.20018 140.5,9C 141.252,9.67076 141.586,10.5041 141.5,11.5C 135.149,8.49441 128.482,6.49441 121.5,5.5C 121.158,4.66175 120.492,4.32842 119.5,4.5C 106.349,2.01192 93.0155,1.84525 79.5,4C 74.9725,5.0454 70.6391,6.5454 66.5,8.5C 65.209,8.26269 64.209,8.59603 63.5,9.5C 50.9066,14.1036 40.24,21.437 31.5,31.5C 21.7367,40.3149 14.4033,50.9816 9.5,63.5C 8.59603,64.209 8.26269,65.209 8.5,66.5C 4.25389,76.9654 2.25389,87.9654 2.5,99.5C 2.05857,113.494 4.72523,126.828 10.5,139.5C 10.5,140.833 10.5,142.167 10.5,143.5C 9.16667,143.5 7.83333,143.5 6.5,143.5C 6.62697,138.627 4.29364,136.627 -0.5,137.5C -0.5,91.5 -0.5,45.5 -0.5,-0.5 Z"/></g>
<g><path style="opacity:1" fill="#fcfcfb" d="M 117.5,-0.5 C 144.833,-0.5 172.167,-0.5 199.5,-0.5C 199.5,26.1667 199.5,52.8333 199.5,79.5C 198.167,79.5 196.833,79.5 195.5,79.5C 188.425,50.6105 172.091,28.7771 146.5,14C 145.552,13.5172 144.552,13.3505 143.5,13.5C 142.833,12.8333 142.167,12.1667 141.5,11.5C 141.586,10.5041 141.252,9.67076 140.5,9C 135.96,6.20018 130.96,4.70018 125.5,4.5C 123.006,2.44344 120.34,0.776769 117.5,-0.5 Z"/></g>
<g><path style="opacity:1" fill="#17273e" d="M 119.5,4.5 C 117.052,5.47307 114.385,5.8064 111.5,5.5C 96.6229,3.26674 81.9563,4.60007 67.5,9.5C 66.8933,9.37642 66.56,9.04309 66.5,8.5C 70.6391,6.5454 74.9725,5.0454 79.5,4C 93.0155,1.84525 106.349,2.01192 119.5,4.5 Z"/></g>
<g><path style="opacity:1" fill="#1b3f73" d="M 119.5,4.5 C 120.492,4.32842 121.158,4.66175 121.5,5.5C 128.161,8.18299 135.494,10.8497 143.5,13.5C 143.5,14.1667 143.5,14.8333 143.5,15.5C 142.583,17.6618 142.583,19.9952 143.5,22.5C 147.845,22.913 150.345,25.2464 151,29.5C 151.995,30.0659 152.828,30.7326 153.5,31.5C 152.957,31.56 152.624,31.8933 152.5,32.5C 156.578,36.3496 156.245,37.0163 151.5,34.5C 150.833,34.8333 150.167,35.1667 149.5,35.5C 148.01,33.7202 146.01,33.0535 143.5,33.5C 143.5,34.5 143.5,35.5 143.5,36.5C 140.043,36.6672 139.71,37.6672 142.5,39.5C 144.741,38.8714 146.741,37.8714 148.5,36.5C 148.216,38.4147 148.549,40.0813 149.5,41.5C 150.585,43.5822 152.085,43.9156 154,42.5C 154.116,40.3454 153.783,38.3454 153,36.5C 154.778,38.0067 156.611,38.8401 158.5,39C 157.392,41.1124 155.892,42.9458 154,44.5C 153.312,45.3317 153.479,45.9984 154.5,46.5C 156.316,45.1851 157.983,43.6851 159.5,42C 160.448,41.5172 161.448,41.3505 162.5,41.5C 163.372,38.4215 163.372,35.4215 162.5,32.5C 162.657,31.1266 162.49,29.7932 162,28.5C 160,27.1667 158,25.8333 156,24.5C 155.517,23.552 155.351,22.552 155.5,21.5C 163.188,27.1878 169.854,33.8544 175.5,41.5C 174.85,41.8039 174.183,42.1373 173.5,42.5C 171.493,40.9918 169.826,39.1584 168.5,37C 164.788,35.2169 163.788,36.3836 165.5,40.5C 166.551,41.8848 167.884,42.8848 169.5,43.5C 171.498,46.0621 172.164,48.7288 171.5,51.5C 170.596,52.209 170.263,53.209 170.5,54.5C 169.325,54.719 168.325,54.3857 167.5,53.5C 169.533,51.5485 169.866,49.3818 168.5,47C 167.668,46.3123 167.002,46.479 166.5,47.5C 167.167,48.1667 167.833,48.8333 168.5,49.5C 168.167,49.8333 167.833,50.1667 167.5,50.5C 166.391,49.4104 165.391,49.4104 164.5,50.5C 165.59,51.6086 165.59,52.6086 164.5,53.5C 163.28,53.1131 162.613,52.2798 162.5,51C 163.187,49.8382 163.353,48.6716 163,47.5C 160.174,52.1668 161.341,55.0001 166.5,56C 165.956,56.7172 165.289,57.2172 164.5,57.5C 163.677,59.8046 162.344,61.8046 160.5,63.5C 157.844,60.2059 155.178,56.8726 152.5,53.5C 151.089,51.086 149.089,49.4194 146.5,48.5C 145.5,47.1667 144.5,45.8333 143.5,44.5C 141.696,41.9021 139.362,39.7354 136.5,38C 131.41,35.7822 126.41,33.6156 121.5,31.5C 122.5,31.5 123.5,31.5 124.5,31.5C 124.415,29.0712 123.415,27.0712 121.5,25.5C 123.034,22.407 125.034,19.7403 127.5,17.5C 127.721,18.7348 128.388,19.7348 129.5,20.5C 126.285,21.4478 125.952,22.7811 128.5,24.5C 128.167,24.8333 127.833,25.1667 127.5,25.5C 126.029,24.6195 125.196,23.2861 125,21.5C 123.91,26.5272 125.743,28.1939 130.5,26.5C 131.281,27.7287 131.781,29.062 132,30.5C 133.015,27.7899 134.515,25.4566 136.5,23.5C 136.833,23.8333 137.167,24.1667 137.5,24.5C 136.04,27.0289 135.54,29.6956 136,32.5C 137.09,29.9901 138.257,27.4901 139.5,25C 141.417,25.0275 143.084,25.8608 144.5,27.5C 143.311,28.4287 141.978,28.762 140.5,28.5C 140.148,31.0728 140.648,33.4062 142,35.5C 142.333,34.1667 142.667,32.8333 143,31.5C 144.333,30.8333 145.333,29.8333 146,28.5C 146.893,29.7112 147.726,29.7112 148.5,28.5C 143.965,24.7321 138.965,21.7321 133.5,19.5C 132.948,21.0026 132.948,22.6693 133.5,24.5C 132.325,24.719 131.325,24.3857 130.5,23.5C 131.735,21.6837 131.735,20.017 130.5,18.5C 130.5,17.5 130.5,16.5 130.5,15.5C 132.143,15.4802 133.476,16.1468 134.5,17.5C 136.367,14.7709 137.367,15.1043 137.5,18.5C 138.5,18.5 139.5,18.5 140.5,18.5C 140.719,17.325 140.386,16.325 139.5,15.5C 134.419,11.7506 128.753,9.91731 122.5,10C 122.318,13.9848 122.318,18.3181 122.5,23C 120.349,23.2649 118.682,24.2649 117.5,26C 118.233,27.7659 118.567,29.5992 118.5,31.5C 117.833,31.5 117.167,31.5 116.5,31.5C 116.389,30.8826 116.056,30.3826 115.5,30C 106.213,28.5173 96.8794,28.184 87.5,29C 79.556,31.4781 71.556,33.6447 63.5,35.5C 63.5,36.8333 63.5,38.1667 63.5,39.5C 58.7659,41.191 54.7659,43.8576 51.5,47.5C 51.2965,45.6096 51.9632,44.1096 53.5,43C 52.0448,40.9838 50.0448,40.1505 47.5,40.5C 47.5,41.5 47.5,42.5 47.5,43.5C 45.8333,43.5 44.1667,43.5 42.5,43.5C 42.634,41.7085 42.3007,40.0418 41.5,38.5C 43.4672,38.2606 45.3005,38.5939 47,39.5C 47.4955,37.5273 47.6621,35.5273 47.5,33.5C 48.1778,38.3158 50.8444,39.6491 55.5,37.5C 54.2713,36.7189 52.938,36.2189 51.5,36C 53.6806,33.922 55.6806,34.0886 57.5,36.5C 58.5624,35.5754 58.5624,34.5754 57.5,33.5C 57.5,32.8333 57.8333,32.5 58.5,32.5C 59.1515,33.0906 59.8182,33.7573 60.5,34.5C 61.1096,31.9721 60.4429,29.6388 58.5,27.5C 59.9943,26.6014 61.4943,26.9347 63,28.5C 63.5847,26.3386 64.4181,24.3386 65.5,22.5C 68.797,21.1453 69.1304,21.6453 66.5,24C 67.938,24.2189 69.2713,24.7189 70.5,25.5C 68.5269,26.3311 66.5269,26.4978 64.5,26C 68.3743,29.7757 71.3743,29.2757 73.5,24.5C 74.1667,25.1667 74.8333,25.8333 75.5,26.5C 74.9733,23.975 74.9733,21.3084 75.5,18.5C 77.0902,20.6797 78.4235,23.013 79.5,25.5C 79.8756,22.6267 79.8756,19.6267 79.5,16.5C 80.552,16.3505 81.552,16.5172 82.5,17C 81.269,18.1827 81.269,19.3493 82.5,20.5C 84.2352,21.057 85.9018,21.3903 87.5,21.5C 86.1667,22.1667 84.8333,22.8333 83.5,23.5C 84.9079,24.2432 86.2412,25.0766 87.5,26C 91.5024,25.9678 91.5024,25.3011 87.5,24C 88.3805,23.2917 89.0472,22.4584 89.5,21.5C 93.5601,22.1518 95.5601,20.4851 95.5,16.5C 94.448,16.6495 93.448,16.4828 92.5,16C 92.8333,15.6667 93.1667,15.3333 93.5,15C 97.4862,14.5012 101.486,14.3345 105.5,14.5C 106.5,15.1667 107.5,15.8333 108.5,16.5C 107.596,17.209 107.263,18.209 107.5,19.5C 106.637,18.537 105.97,18.537 105.5,19.5C 107.107,22.892 109.44,24.2254 112.5,23.5C 113.434,22.4324 113.768,21.099 113.5,19.5C 112.022,19.762 110.689,19.4287 109.5,18.5C 111.758,17.201 114.092,16.201 116.5,15.5C 116.123,18.5248 115.956,21.5248 116,24.5C 116.333,24.1667 116.667,23.8333 117,23.5C 117.22,20.4838 118.387,17.9838 120.5,16C 119.177,15.1841 118.511,14.0174 118.5,12.5C 117.313,10.0246 115.313,9.02458 112.5,9.5C 112.768,11.099 112.434,12.4324 111.5,13.5C 111.5,12.5 111.5,11.5 111.5,10.5C 109.692,10.5086 108.025,10.0086 106.5,9C 108.76,8.45065 110.426,7.28398 111.5,5.5C 114.385,5.8064 117.052,5.47307 119.5,4.5 Z"/></g>
<g><path style="opacity:1" fill="#0a1b37" d="M 121.5,5.5 C 128.482,6.49441 135.149,8.49441 141.5,11.5C 142.167,12.1667 142.833,12.8333 143.5,13.5C 135.494,10.8497 128.161,8.18299 121.5,5.5 Z"/></g>
<g><path style="opacity:1" fill="#3d4f69" d="M 117.5,12.5 C 117.179,14.0481 116.179,14.7148 114.5,14.5C 114.402,11.7524 115.402,11.0857 117.5,12.5 Z"/></g>
<g><path style="opacity:1" fill="#0c3b84" d="M 111.5,5.5 C 110.426,7.28398 108.76,8.45065 106.5,9C 108.025,10.0086 109.692,10.5086 111.5,10.5C 111.5,11.5 111.5,12.5 111.5,13.5C 109.265,13.2053 107.265,13.5386 105.5,14.5C 101.486,14.3345 97.4862,14.5012 93.5,15C 93.1667,15.3333 92.8333,15.6667 92.5,16C 93.448,16.4828 94.448,16.6495 95.5,16.5C 95.5601,20.4851 93.5601,22.1518 89.5,21.5C 89.6716,20.5084 89.3382,19.8417 88.5,19.5C 88.9539,17.2589 88.9539,15.2589 88.5,13.5C 87.4019,12.603 87.4019,11.7697 88.5,11C 92.2192,10.6116 95.8859,9.94495 99.5,9C 95.4282,8.07309 91.4282,7.07309 87.5,6C 95.4931,5.50029 103.493,5.33362 111.5,5.5 Z"/></g>
<g><path style="opacity:1" fill="#a1bdd4" d="M 118.5,12.5 C 118.167,12.5 117.833,12.5 117.5,12.5C 115.402,11.0857 114.402,11.7524 114.5,14.5C 113.209,15.7784 111.209,16.4451 108.5,16.5C 107.5,15.8333 106.5,15.1667 105.5,14.5C 107.265,13.5386 109.265,13.2053 111.5,13.5C 112.434,12.4324 112.768,11.099 112.5,9.5C 115.313,9.02458 117.313,10.0246 118.5,12.5 Z"/></g>
<g><path style="opacity:1" fill="#6680a0" d="M 88.5,13.5 C 88.9539,15.2589 88.9539,17.2589 88.5,19.5C 87.009,19.0986 85.3423,18.932 83.5,19C 86.2813,18.1576 87.948,16.3243 88.5,13.5 Z"/></g>
<g><path style="opacity:1" fill="#d6ebfa" d="M 117.5,12.5 C 117.833,12.5 118.167,12.5 118.5,12.5C 118.511,14.0174 119.177,15.1841 120.5,16C 118.387,17.9838 117.22,20.4838 117,23.5C 116.667,23.8333 116.333,24.1667 116,24.5C 115.956,21.5248 116.123,18.5248 116.5,15.5C 114.092,16.201 111.758,17.201 109.5,18.5C 110.689,19.4287 112.022,19.762 113.5,19.5C 113.768,21.099 113.434,22.4324 112.5,23.5C 110.158,23.2252 110.158,22.3919 112.5,21C 110.753,20.6481 109.086,20.1481 107.5,19.5C 107.263,18.209 107.596,17.209 108.5,16.5C 111.209,16.4451 113.209,15.7784 114.5,14.5C 116.179,14.7148 117.179,14.0481 117.5,12.5 Z"/></g>
<g><path style="opacity:1" fill="#132036" d="M 63.5,9.5 C 63.5,10.5 63.5,11.5 63.5,12.5C 59.2186,13.1361 55.2186,14.6361 51.5,17C 44.6074,21.6041 37.9407,26.4375 31.5,31.5C 40.24,21.437 50.9066,14.1036 63.5,9.5 Z"/></g>
<g><path style="opacity:1" fill="#8cabca" d="M 107.5,19.5 C 109.086,20.1481 110.753,20.6481 112.5,21C 110.158,22.3919 110.158,23.2252 112.5,23.5C 109.44,24.2254 107.107,22.892 105.5,19.5C 105.97,18.537 106.637,18.537 107.5,19.5 Z"/></g>
<g><path style="opacity:1" fill="#bedaed" d="M 88.5,13.5 C 87.948,16.3243 86.2813,18.1576 83.5,19C 85.3423,18.932 87.009,19.0986 88.5,19.5C 89.3382,19.8417 89.6716,20.5084 89.5,21.5C 89.0472,22.4584 88.3805,23.2917 87.5,24C 91.5024,25.3011 91.5024,25.9678 87.5,26C 86.2412,25.0766 84.9079,24.2432 83.5,23.5C 84.8333,22.8333 86.1667,22.1667 87.5,21.5C 85.9018,21.3903 84.2352,21.057 82.5,20.5C 81.269,19.3493 81.269,18.1827 82.5,17C 81.552,16.5172 80.552,16.3505 79.5,16.5C 79.8756,19.6267 79.8756,22.6267 79.5,25.5C 78.4235,23.013 77.0902,20.6797 75.5,18.5C 74.9733,21.3084 74.9733,23.975 75.5,26.5C 74.8333,25.8333 74.1667,25.1667 73.5,24.5C 71.3743,29.2757 68.3743,29.7757 64.5,26C 66.5269,26.4978 68.5269,26.3311 70.5,25.5C 69.2713,24.7189 67.938,24.2189 66.5,24C 69.1304,21.6453 68.797,21.1453 65.5,22.5C 64.596,21.791 64.2627,20.791 64.5,19.5C 68.1578,18.6797 70.4912,20.0131 71.5,23.5C 72.8304,21.6531 72.497,20.1531 70.5,19C 74.7778,16.2599 79.4444,14.4266 84.5,13.5C 82.7358,9.69185 83.7358,8.35852 87.5,9.5C 84.8367,11.516 85.17,12.8493 88.5,13.5 Z"/></g>
<g><path style="opacity:1" fill="#0b3c81" d="M 130.5,18.5 C 129.391,18.4431 128.391,18.1098 127.5,17.5C 125.034,19.7403 123.034,22.407 121.5,25.5C 123.415,27.0712 124.415,29.0712 124.5,31.5C 123.5,31.5 122.5,31.5 121.5,31.5C 120.5,31.5 119.5,31.5 118.5,31.5C 118.567,29.5992 118.233,27.7659 117.5,26C 118.682,24.2649 120.349,23.2649 122.5,23C 122.318,18.3181 122.318,13.9848 122.5,10C 128.753,9.91731 134.419,11.7506 139.5,15.5C 140.386,16.325 140.719,17.325 140.5,18.5C 139.5,18.5 138.5,18.5 137.5,18.5C 137.367,15.1043 136.367,14.7709 134.5,17.5C 133.476,16.1468 132.143,15.4802 130.5,15.5C 130.5,16.5 130.5,17.5 130.5,18.5 Z"/></g>
<g><path style="opacity:1" fill="#0e3b7e" d="M 143.5,15.5 C 147.545,17.3001 151.545,19.3001 155.5,21.5C 155.351,22.552 155.517,23.552 156,24.5C 158,25.8333 160,27.1667 162,28.5C 162.49,29.7932 162.657,31.1266 162.5,32.5C 159.184,33.8754 156.184,33.5421 153.5,31.5C 152.828,30.7326 151.995,30.0659 151,29.5C 150.345,25.2464 147.845,22.913 143.5,22.5C 142.583,19.9952 142.583,17.6618 143.5,15.5 Z"/></g>
<g><path style="opacity:1" fill="#c2ddf1" d="M 127.5,17.5 C 128.391,18.1098 129.391,18.4431 130.5,18.5C 131.735,20.017 131.735,21.6837 130.5,23.5C 131.325,24.3857 132.325,24.719 133.5,24.5C 132.948,22.6693 132.948,21.0026 133.5,19.5C 138.965,21.7321 143.965,24.7321 148.5,28.5C 147.726,29.7112 146.893,29.7112 146,28.5C 145.333,29.8333 144.333,30.8333 143,31.5C 142.667,32.8333 142.333,34.1667 142,35.5C 140.648,33.4062 140.148,31.0728 140.5,28.5C 141.978,28.762 143.311,28.4287 144.5,27.5C 143.084,25.8608 141.417,25.0275 139.5,25C 138.257,27.4901 137.09,29.9901 136,32.5C 135.54,29.6956 136.04,27.0289 137.5,24.5C 137.167,24.1667 136.833,23.8333 136.5,23.5C 134.515,25.4566 133.015,27.7899 132,30.5C 131.781,29.062 131.281,27.7287 130.5,26.5C 125.743,28.1939 123.91,26.5272 125,21.5C 125.196,23.2861 126.029,24.6195 127.5,25.5C 127.833,25.1667 128.167,24.8333 128.5,24.5C 125.952,22.7811 126.285,21.4478 129.5,20.5C 128.388,19.7348 127.721,18.7348 127.5,17.5 Z"/></g>
<g><path style="opacity:1" fill="#0d1e3a" d="M 116.5,31.5 C 97.8808,27.869 80.2141,30.5357 63.5,39.5C 63.5,38.1667 63.5,36.8333 63.5,35.5C 71.556,33.6447 79.556,31.4781 87.5,29C 96.8794,28.184 106.213,28.5173 115.5,30C 116.056,30.3826 116.389,30.8826 116.5,31.5 Z"/></g>
<g><path style="opacity:1" fill="#c1d8ee" d="M 58.5,27.5 C 60.4429,29.6388 61.1096,31.9721 60.5,34.5C 59.8182,33.7573 59.1515,33.0906 58.5,32.5C 57.916,30.0588 56.5827,28.5588 54.5,28C 53.9494,30.3912 54.9494,32.2245 57.5,33.5C 58.5624,34.5754 58.5624,35.5754 57.5,36.5C 55.6806,34.0886 53.6806,33.922 51.5,36C 52.938,36.2189 54.2713,36.7189 55.5,37.5C 50.8444,39.6491 48.1778,38.3158 47.5,33.5C 46.448,33.6495 45.448,33.4828 44.5,33C 47.6919,30.3076 51.0252,27.8076 54.5,25.5C 52.6017,24.2655 50.935,24.5989 49.5,26.5C 48.3931,24.2314 49.2265,22.8981 52,22.5C 54.1113,23.4721 56.2779,24.3054 58.5,25C 57.2264,25.9772 57.2264,26.8106 58.5,27.5 Z"/></g>
<g><path style="opacity:1" fill="#253b54" d="M 49.5,30.5 C 53.1611,30.4257 53.8277,31.4257 51.5,33.5C 50.0815,32.9953 49.4148,31.9953 49.5,30.5 Z"/></g>
<g><path style="opacity:1" fill="#2b4256" d="M 58.5,32.5 C 57.8333,32.5 57.5,32.8333 57.5,33.5C 54.9494,32.2245 53.9494,30.3912 54.5,28C 56.5827,28.5588 57.916,30.0588 58.5,32.5 Z"/></g>
<g><path style="opacity:1" fill="#363636" d="M 106.5,32.5 C 98.0851,32.2831 89.7518,32.9497 81.5,34.5C 83.8766,33.1127 86.5432,32.2794 89.5,32C 97.2279,31.176 102.895,31.3427 106.5,32.5 Z"/></g>
<g><path style="opacity:1" fill="#ebebea" d="M 106.5,32.5 C 107.568,33.4345 108.901,33.7678 110.5,33.5C 116.992,34.7058 123.325,36.3725 129.5,38.5C 131.336,40.588 133.669,41.9213 136.5,42.5C 136.973,43.9063 137.973,44.573 139.5,44.5C 140.585,46.5869 142.251,47.9202 144.5,48.5C 146.167,50.5 147.833,52.5 149.5,54.5C 148.624,54.3691 147.957,54.7025 147.5,55.5C 149.38,56.7143 149.713,58.0476 148.5,59.5C 146.537,58.0401 144.704,56.3734 143,54.5C 142.383,55.4491 142.549,56.2825 143.5,57C 139.667,58.0233 139.667,59.1899 143.5,60.5C 142.972,61.8474 142.805,63.1807 143,64.5C 144.44,61.6645 146.273,61.1645 148.5,63C 146.729,63.5354 146.396,64.3687 147.5,65.5C 148.451,64.6744 149.451,64.5078 150.5,65C 149.315,66.353 147.981,67.5197 146.5,68.5C 148.113,68.9679 149.613,68.3013 151,66.5C 152.095,67.6934 152.928,69.0267 153.5,70.5C 151.883,69.962 150.216,69.6287 148.5,69.5C 148.5,71.1667 148.5,72.8333 148.5,74.5C 150.698,74.8799 152.365,74.2132 153.5,72.5C 155.416,73.6653 156.249,75.332 156,77.5C 155.311,76.6433 154.478,75.9767 153.5,75.5C 153.277,76.9667 152.944,78.4667 152.5,80C 153.448,80.4828 154.448,80.6495 155.5,80.5C 153.638,81.3922 151.638,81.5589 149.5,81C 148.663,82.0113 148.33,83.1779 148.5,84.5C 151.598,84.4125 151.932,84.9125 149.5,86C 150.171,86.9862 150.171,88.1529 149.5,89.5C 147.801,89.3398 146.134,89.5065 144.5,90C 143.748,90.6708 143.414,91.5041 143.5,92.5C 140.978,84.2943 136.978,76.7943 131.5,70C 132.094,69.5357 132.761,69.369 133.5,69.5C 133.5,69.1667 133.5,68.8333 133.5,68.5C 134.29,67.2058 135.29,66.0391 136.5,65C 134.934,64.7003 133.601,65.2003 132.5,66.5C 131.833,66.5 131.5,66.1667 131.5,65.5C 132.141,64.5178 132.807,63.5178 133.5,62.5C 132.726,61.2888 131.893,61.2888 131,62.5C 130.665,59.8101 129.499,59.1435 127.5,60.5C 126.833,59.1667 126.167,57.8333 125.5,56.5C 123.486,56.3915 121.82,57.0582 120.5,58.5C 119.833,58.5 119.5,58.1667 119.5,57.5C 118.534,54.8753 117.534,54.8753 116.5,57.5C 115.255,56.0446 115.422,54.7113 117,53.5C 117.718,54.4506 118.551,54.6172 119.5,54C 116.601,51.7778 114.601,52.4445 113.5,56C 113.748,57.7491 114.748,58.5824 116.5,58.5C 114.374,59.1032 112.041,59.1032 109.5,58.5C 107.156,58.0603 105.156,57.0603 103.5,55.5C 105.377,54.3409 105.877,52.6742 105,50.5C 99.9062,48.7627 98.4062,50.4294 100.5,55.5C 98.5,56.8333 96.5,56.8333 94.5,55.5C 94.5,53.8333 94.5,52.1667 94.5,50.5C 92.8333,50.5 91.1667,50.5 89.5,50.5C 89.5,52.5 89.5,54.5 89.5,56.5C 90.5,56.5 91.5,56.5 92.5,56.5C 89.0615,58.2043 85.3948,59.5376 81.5,60.5C 81.5,60.1667 81.5,59.8333 81.5,59.5C 80.169,57.8376 78.8357,56.171 77.5,54.5C 73.9459,56.4675 73.6126,58.8008 76.5,61.5C 76.6107,62.1174 76.944,62.6174 77.5,63C 74.2896,65.7167 70.9563,68.2167 67.5,70.5C 67.3671,67.1043 66.3671,66.7709 64.5,69.5C 63.4063,68.132 63.7397,66.9653 65.5,66C 61.9124,65.3886 60.7458,66.8886 62,70.5C 63.3561,71.3802 64.8561,71.7135 66.5,71.5C 65.8333,73.1667 65.1667,74.8333 64.5,76.5C 61.5849,79.9901 59.4182,83.9901 58,88.5C 57.6174,87.944 57.1174,87.6107 56.5,87.5C 56.1667,87.5 55.8333,87.5 55.5,87.5C 55.3066,84.4299 53.9733,83.4299 51.5,84.5C 51.1617,88.1507 52.8284,89.8174 56.5,89.5C 57.4896,95.31 57.8229,101.31 57.5,107.5C 56.8333,104.5 56.1667,101.5 55.5,98.5C 54.2921,97.7659 52.9587,97.4326 51.5,97.5C 52.1667,96.8333 52.8333,96.1667 53.5,95.5C 56.2748,95.1662 56.9415,93.8329 55.5,91.5C 54.1166,94.0756 53.2833,93.7423 53,90.5C 52.6667,91.5 52.3333,92.5 52,93.5C 51.7645,91.8807 50.9311,90.8807 49.5,90.5C 49.7539,86.7538 49.7539,83.0872 49.5,79.5C 48.3588,78.661 47.0255,77.9943 45.5,77.5C 44.6143,76.675 44.281,75.675 44.5,74.5C 46.0443,74.7031 47.3777,75.3698 48.5,76.5C 50.7962,75.6317 51.4629,74.2984 50.5,72.5C 51.2389,72.631 51.9056,72.4643 52.5,72C 51.1667,71 49.8333,70 48.5,69C 50.5,69.3333 52.5,69.6667 54.5,70C 52.2528,68.7225 50.2528,67.2225 48.5,65.5C 49.5203,64.0462 50.687,63.7129 52,64.5C 53.417,63.9221 54.2504,62.9221 54.5,61.5C 54.369,60.7611 54.5357,60.0944 55,59.5C 55.5,60.6667 56.3333,61.5 57.5,62C 56.8333,62.3333 56.1667,62.6667 55.5,63C 56.7932,63.49 58.1266,63.6567 59.5,63.5C 59.5,62.1667 59.5,60.8333 59.5,59.5C 60.7666,60.087 61.7666,60.087 62.5,59.5C 58.7099,56.9954 58.7099,54.6621 62.5,52.5C 63.2975,52.9569 63.6309,53.6236 63.5,54.5C 64.609,54.5569 65.609,54.8902 66.5,55.5C 65.6343,53.856 65.1343,52.1893 65,50.5C 67.1293,49.1373 67.6293,49.4706 66.5,51.5C 66.9569,52.2975 67.6236,52.6309 68.5,52.5C 69.2506,53.5735 70.2506,53.7401 71.5,53C 70.244,52.5831 69.5774,51.7498 69.5,50.5C 70.8474,51.0283 72.1807,51.195 73.5,51C 72.4063,49.2197 71.4063,47.3864 70.5,45.5C 64.5174,48.318 59.5174,52.318 55.5,57.5C 55.1667,57.5 54.8333,57.5 54.5,57.5C 53.9522,55.4677 52.6188,54.4677 50.5,54.5C 59.0624,45.0543 69.3957,38.3877 81.5,34.5C 89.7518,32.9497 98.0851,32.2831 106.5,32.5 Z"/></g>
<g><path style="opacity:1" fill="#6b6f71" d="M 110.5,33.5 C 113.327,32.6317 116.327,32.6317 119.5,33.5C 121.898,33.2594 123.898,33.9261 125.5,35.5C 126.833,36.5 128.167,37.5 129.5,38.5C 123.325,36.3725 116.992,34.7058 110.5,33.5 Z"/></g>
<g><path style="opacity:1" fill="#07378b" d="M 149.5,35.5 C 148.833,35.5 148.5,35.8333 148.5,36.5C 146.741,37.8714 144.741,38.8714 142.5,39.5C 139.71,37.6672 140.043,36.6672 143.5,36.5C 143.5,35.5 143.5,34.5 143.5,33.5C 146.01,33.0535 148.01,33.7202 149.5,35.5 Z"/></g>
<g><path style="opacity:1" fill="#6d8eb9" d="M 151.5,34.5 C 149.942,37.2436 150.609,39.4103 153.5,41C 152.004,41.5074 150.837,41.0074 150,39.5C 149.536,40.0944 149.369,40.7611 149.5,41.5C 148.549,40.0813 148.216,38.4147 148.5,36.5C 148.5,35.8333 148.833,35.5 149.5,35.5C 150.167,35.1667 150.833,34.8333 151.5,34.5 Z"/></g>
<g><path style="opacity:1" fill="#143c78" d="M 111.5,5.5 C 103.493,5.33362 95.4931,5.50029 87.5,6C 91.4282,7.07309 95.4282,8.07309 99.5,9C 95.8859,9.94495 92.2192,10.6116 88.5,11C 87.4019,11.7697 87.4019,12.603 88.5,13.5C 85.17,12.8493 84.8367,11.516 87.5,9.5C 83.7358,8.35852 82.7358,9.69185 84.5,13.5C 79.4444,14.4266 74.7778,16.2599 70.5,19C 72.497,20.1531 72.8304,21.6531 71.5,23.5C 70.4912,20.0131 68.1578,18.6797 64.5,19.5C 64.2627,20.791 64.596,21.791 65.5,22.5C 64.4181,24.3386 63.5847,26.3386 63,28.5C 61.4943,26.9347 59.9943,26.6014 58.5,27.5C 57.2264,26.8106 57.2264,25.9772 58.5,25C 56.2779,24.3054 54.1113,23.4721 52,22.5C 49.2265,22.8981 48.3931,24.2314 49.5,26.5C 50.935,24.5989 52.6017,24.2655 54.5,25.5C 51.0252,27.8076 47.6919,30.3076 44.5,33C 45.448,33.4828 46.448,33.6495 47.5,33.5C 47.6621,35.5273 47.4955,37.5273 47,39.5C 45.3005,38.5939 43.4672,38.2606 41.5,38.5C 41.6309,37.6236 41.2975,36.9569 40.5,36.5C 37.2303,39.2873 34.2303,42.2873 31.5,45.5C 31.8134,42.7531 31.48,40.0865 30.5,37.5C 27.9083,41.4325 24.9083,45.0991 21.5,48.5C 21.5589,52.6895 19.5589,55.0228 15.5,55.5C 15.3505,54.448 15.5172,53.448 16,52.5C 21.185,45.4408 26.3517,38.4408 31.5,31.5C 37.9407,26.4375 44.6074,21.6041 51.5,17C 55.2186,14.6361 59.2186,13.1361 63.5,12.5C 63.5,11.5 63.5,10.5 63.5,9.5C 64.209,8.59603 65.209,8.26269 66.5,8.5C 66.56,9.04309 66.8933,9.37642 67.5,9.5C 81.9563,4.60007 96.6229,3.26674 111.5,5.5 Z"/></g>
<g><path style="opacity:1" fill="#3e3e3e" d="M 103.5,37.5 C 102.167,38.1667 100.833,38.8333 99.5,39.5C 98.596,40.209 98.2627,41.209 98.5,42.5C 96.6701,38.3922 95.6701,38.7255 95.5,43.5C 93.9261,41.8984 93.2594,39.8984 93.5,37.5C 96.8333,37.5 100.167,37.5 103.5,37.5 Z"/></g>
<g><path style="opacity:1" fill="#102137" d="M 116.5,31.5 C 117.167,31.5 117.833,31.5 118.5,31.5C 119.5,31.5 120.5,31.5 121.5,31.5C 126.41,33.6156 131.41,35.7822 136.5,38C 139.362,39.7354 141.696,41.9021 143.5,44.5C 138.051,40.4423 132.051,37.4423 125.5,35.5C 123.898,33.9261 121.898,33.2594 119.5,33.5C 118.5,32.8333 117.5,32.1667 116.5,31.5 Z"/></g>
<g><path style="opacity:1" fill="#8b8b8b" d="M 106.5,38.5 C 104.743,39.292 103.409,40.6253 102.5,42.5C 102.089,41.7376 101.923,40.7376 102,39.5C 101.617,40.056 101.117,40.3893 100.5,40.5C 100.5,39.8333 100.167,39.5 99.5,39.5C 100.833,38.8333 102.167,38.1667 103.5,37.5C 103.88,36.8669 104.213,36.2003 104.5,35.5C 105.425,36.3569 106.092,37.3569 106.5,38.5 Z"/></g>
<g><path style="opacity:1" fill="#3a3a3a" d="M 106.5,38.5 C 105.942,40.8234 105.275,43.1568 104.5,45.5C 103.476,44.1468 102.143,43.4802 100.5,43.5C 100.5,42.5 100.5,41.5 100.5,40.5C 101.117,40.3893 101.617,40.056 102,39.5C 101.923,40.7376 102.089,41.7376 102.5,42.5C 103.409,40.6253 104.743,39.292 106.5,38.5 Z"/></g>
<g><path style="opacity:1" fill="#36363a" d="M 115.5,36.5 C 114.909,37.1515 114.243,37.8182 113.5,38.5C 115.022,39.562 116.688,40.2287 118.5,40.5C 120.75,41.1302 122.75,42.1302 124.5,43.5C 122.5,43.1667 120.5,42.8333 118.5,42.5C 118.44,41.9569 118.107,41.6236 117.5,41.5C 116.833,42.1667 116.167,42.8333 115.5,43.5C 115.002,42.3966 114.669,41.3966 114.5,40.5C 113.065,41.8237 112.065,43.4904 111.5,45.5C 111.167,45.1667 110.833,44.8333 110.5,44.5C 111.167,42.1667 111.833,39.8333 112.5,37.5C 113.325,36.6143 114.325,36.281 115.5,36.5 Z"/></g>
<g><path style="opacity:1" fill="#9a9a96" d="M 115.5,36.5 C 117.262,37.2623 118.262,38.5956 118.5,40.5C 116.688,40.2287 115.022,39.562 113.5,38.5C 114.243,37.8182 114.909,37.1515 115.5,36.5 Z"/></g>
<g><path style="opacity:1" fill="#c0d7ed" d="M 153.5,31.5 C 156.184,33.5421 159.184,33.8754 162.5,32.5C 163.372,35.4215 163.372,38.4215 162.5,41.5C 161.448,41.3505 160.448,41.5172 159.5,42C 157.983,43.6851 156.316,45.1851 154.5,46.5C 153.479,45.9984 153.312,45.3317 154,44.5C 155.892,42.9458 157.392,41.1124 158.5,39C 156.611,38.8401 154.778,38.0067 153,36.5C 153.783,38.3454 154.116,40.3454 154,42.5C 152.085,43.9156 150.585,43.5822 149.5,41.5C 149.369,40.7611 149.536,40.0944 150,39.5C 150.837,41.0074 152.004,41.5074 153.5,41C 150.609,39.4103 149.942,37.2436 151.5,34.5C 156.245,37.0163 156.578,36.3496 152.5,32.5C 152.624,31.8933 152.957,31.56 153.5,31.5 Z"/></g>
<g><path style="opacity:1" fill="#233354" d="M 159.5,34.5 C 161.465,34.9483 161.798,35.9483 160.5,37.5C 159.614,36.675 159.281,35.675 159.5,34.5 Z"/></g>
<g><path style="opacity:1" fill="#aab5bb" d="M 125.5,35.5 C 132.051,37.4423 138.051,40.4423 143.5,44.5C 144.5,45.8333 145.5,47.1667 146.5,48.5C 145.833,48.5 145.167,48.5 144.5,48.5C 143.415,46.4131 141.749,45.0798 139.5,44.5C 137.973,44.573 136.973,43.9063 136.5,42.5C 134.664,40.412 132.331,39.0787 129.5,38.5C 128.167,37.5 126.833,36.5 125.5,35.5 Z"/></g>
<g><path style="opacity:1" fill="#2a2b2b" d="M 78.5,44.5 C 77.5,44.1667 76.8333,43.5 76.5,42.5C 80.1844,40.3296 84.1844,39.3296 88.5,39.5C 88.6621,41.5273 88.4955,43.5273 88,45.5C 87,42.8333 86,42.8333 85,45.5C 83.1383,43.6393 83.6383,42.3059 86.5,41.5C 86.1667,41.1667 85.8333,40.8333 85.5,40.5C 84.2638,41.2458 82.9305,41.5792 81.5,41.5C 83.0855,48.937 82.2522,49.2704 79,42.5C 78.5357,43.0944 78.369,43.7611 78.5,44.5 Z"/></g>
<g><path style="opacity:1" fill="#545a59" d="M 129.5,38.5 C 132.331,39.0787 134.664,40.412 136.5,42.5C 133.669,41.9213 131.336,40.588 129.5,38.5 Z"/></g>
<g><path style="opacity:1" fill="#2c4161" d="M 40.5,45.5 C 40.5,46.1667 40.5,46.8333 40.5,47.5C 35.6943,45.7589 35.361,43.4256 39.5,40.5C 39.5786,42.1283 39.9119,43.7949 40.5,45.5 Z"/></g>
<g><path style="opacity:1" fill="#9a9da2" d="M 116.5,31.5 C 117.5,32.1667 118.5,32.8333 119.5,33.5C 116.327,32.6317 113.327,32.6317 110.5,33.5C 108.901,33.7678 107.568,33.4345 106.5,32.5C 102.895,31.3427 97.2279,31.176 89.5,32C 86.5432,32.2794 83.8766,33.1127 81.5,34.5C 69.3957,38.3877 59.0624,45.0543 50.5,54.5C 37.636,68.893 31.636,85.893 32.5,105.5C 31.7843,101.411 31.1177,96.7445 30.5,91.5C 31.2164,85.3537 32.5497,79.3537 34.5,73.5C 36.6744,70.4846 38.3411,67.1513 39.5,63.5C 46.5,54.5 54.5,46.5 63.5,39.5C 80.2141,30.5357 97.8808,27.869 116.5,31.5 Z"/></g>
<g><path style="opacity:1" fill="#868686" d="M 98.5,42.5 C 100.795,47.5182 99.7951,47.8515 95.5,43.5C 95.6701,38.7255 96.6701,38.3922 98.5,42.5 Z"/></g>
<g><path style="opacity:1" fill="#565558" d="M 139.5,44.5 C 141.749,45.0798 143.415,46.4131 144.5,48.5C 142.251,47.9202 140.585,46.5869 139.5,44.5 Z"/></g>
<g><path style="opacity:1" fill="#3c3e35" d="M 118.5,42.5 C 118.93,47.4964 117.597,48.3298 114.5,45C 116.133,44.5204 117.466,43.6871 118.5,42.5 Z"/></g>
<g><path style="opacity:1" fill="#7a7979" d="M 76.5,42.5 C 76.8333,43.5 77.5,44.1667 78.5,44.5C 79.2485,45.531 79.9152,46.6976 80.5,48C 76.7719,50.5706 74.1052,49.7372 72.5,45.5C 73.4669,44.016 74.8002,43.016 76.5,42.5 Z"/></g>
<g><path style="opacity:1" fill="#6a7067" d="M 123.5,45.5 C 123.443,46.609 123.11,47.609 122.5,48.5C 120.896,47.713 120.229,46.3797 120.5,44.5C 121.791,44.2627 122.791,44.596 123.5,45.5 Z"/></g>
<g><path style="opacity:1" fill="#202323" d="M 124.5,43.5 C 126.153,43.6596 127.486,44.3263 128.5,45.5C 127.448,45.3505 126.448,45.5172 125.5,46C 125.833,46.3333 126.167,46.6667 126.5,47C 125.069,47.4652 123.903,48.2986 123,49.5C 122.601,49.2716 122.435,48.9382 122.5,48.5C 123.11,47.609 123.443,46.609 123.5,45.5C 124.338,45.1583 124.672,44.4916 124.5,43.5 Z"/></g>
<g><path style="opacity:1" fill="#14233a" d="M 31.5,31.5 C 26.3517,38.4408 21.185,45.4408 16,52.5C 15.5172,53.448 15.3505,54.448 15.5,55.5C 13.4152,57.6845 12.4152,60.3511 12.5,63.5C 11.5,63.5 10.5,63.5 9.5,63.5C 14.4033,50.9816 21.7367,40.3149 31.5,31.5 Z"/></g>
<g><path style="opacity:1" fill="#b7d3e9" d="M 41.5,38.5 C 42.3007,40.0418 42.634,41.7085 42.5,43.5C 44.1667,43.5 45.8333,43.5 47.5,43.5C 45.7211,45.3435 43.3878,46.0102 40.5,45.5C 39.9119,43.7949 39.5786,42.1283 39.5,40.5C 35.361,43.4256 35.6943,45.7589 40.5,47.5C 41.0906,48.1515 41.7573,48.8182 42.5,49.5C 39.2374,49.8708 36.5707,48.5375 34.5,45.5C 33.4173,46.365 33.2506,47.365 34,48.5C 35.9252,49.8804 37.7585,51.3804 39.5,53C 38.451,53.4922 37.451,53.3256 36.5,52.5C 36.1203,54.0207 35.9536,55.6874 36,57.5C 34.6703,58.5822 33.1703,59.2488 31.5,59.5C 30.325,59.719 29.325,59.3857 28.5,58.5C 30.0453,57.5481 31.712,57.2148 33.5,57.5C 33.3671,54.1043 32.3671,53.7709 30.5,56.5C 29.7492,55.624 29.2492,54.624 29,53.5C 28.2569,55.6447 27.4235,55.8114 26.5,54C 26.6448,53.228 26.9781,52.5613 27.5,52C 29.6565,51.9219 31.6565,51.7552 33.5,51.5C 33.1924,50.6919 32.6924,50.0253 32,49.5C 31.1072,50.7112 30.2739,50.7112 29.5,49.5C 30.6302,48.3777 31.2969,47.0443 31.5,45.5C 34.2303,42.2873 37.2303,39.2873 40.5,36.5C 41.2975,36.9569 41.6309,37.6236 41.5,38.5 Z"/></g>
<g><path style="opacity:1" fill="#192b4a" d="M 63.5,39.5 C 54.5,46.5 46.5,54.5 39.5,63.5C 40.1667,61.5 40.8333,59.5 41.5,57.5C 43.5146,55.7863 45.1813,53.7863 46.5,51.5C 47.4287,50.3112 47.762,48.9778 47.5,47.5C 48.8333,47.5 50.1667,47.5 51.5,47.5C 54.7659,43.8576 58.7659,41.191 63.5,39.5 Z"/></g>
<g><path style="opacity:1" fill="#797d85" d="M 144.5,48.5 C 145.167,48.5 145.833,48.5 146.5,48.5C 149.089,49.4194 151.089,51.086 152.5,53.5C 151.957,53.56 151.624,53.8933 151.5,54.5C 153.278,56.264 154.611,58.264 155.5,60.5C 153.139,58.8061 151.139,56.8061 149.5,54.5C 147.833,52.5 146.167,50.5 144.5,48.5 Z"/></g>
<g><path style="opacity:1" fill="#0d377d" d="M 51.5,47.5 C 50.1667,47.5 48.8333,47.5 47.5,47.5C 47.762,48.9778 47.4287,50.3112 46.5,51.5C 45.1813,53.7863 43.5146,55.7863 41.5,57.5C 40.6236,57.6309 39.9569,57.2975 39.5,56.5C 40.3094,54.9291 40.6427,53.2624 40.5,51.5C 43.5,51.8333 44.8333,50.5 44.5,47.5C 43.1667,47.5 41.8333,47.5 40.5,47.5C 40.5,46.8333 40.5,46.1667 40.5,45.5C 43.3878,46.0102 45.7211,45.3435 47.5,43.5C 47.5,42.5 47.5,41.5 47.5,40.5C 50.0448,40.1505 52.0448,40.9838 53.5,43C 51.9632,44.1096 51.2965,45.6096 51.5,47.5 Z"/></g>
<g><path style="opacity:1" fill="#7b7b7b" d="M 69.5,50.5 C 69.5774,51.7498 70.244,52.5831 71.5,53C 70.2506,53.7401 69.2506,53.5735 68.5,52.5C 68.2148,50.712 68.5481,49.0453 69.5,47.5C 70.5624,48.4246 70.5624,49.4246 69.5,50.5 Z"/></g>
<g><path style="opacity:1" fill="#2f302f" d="M 69.5,50.5 C 70.5624,49.4246 70.5624,48.4246 69.5,47.5C 68.5481,49.0453 68.2148,50.712 68.5,52.5C 67.6236,52.6309 66.9569,52.2975 66.5,51.5C 67.6293,49.4706 67.1293,49.1373 65,50.5C 65.1343,52.1893 65.6343,53.856 66.5,55.5C 65.609,54.8902 64.609,54.5569 63.5,54.5C 63.6309,53.6236 63.2975,52.9569 62.5,52.5C 58.7099,54.6621 58.7099,56.9954 62.5,59.5C 61.7666,60.087 60.7666,60.087 59.5,59.5C 58.713,57.8958 57.3797,57.2291 55.5,57.5C 59.5174,52.318 64.5174,48.318 70.5,45.5C 71.4063,47.3864 72.4063,49.2197 73.5,51C 72.1807,51.195 70.8474,51.0283 69.5,50.5 Z"/></g>
<g><path style="opacity:1" fill="#363736" d="M 128.5,45.5 C 132.008,46.5041 135.174,48.1707 138,50.5C 137.618,52.7711 136.451,54.7711 134.5,56.5C 134.795,55.1745 134.295,53.8412 133,52.5C 132.351,55.9374 131.851,56.104 131.5,53C 131.844,51.6349 132.511,50.4682 133.5,49.5C 132.758,48.7132 131.925,48.0465 131,47.5C 127.472,54.2672 126.972,54.1006 129.5,47C 128.944,46.6174 128.611,46.1174 128.5,45.5 Z"/></g>
<g><path style="opacity:1" fill="#dedede" d="M 134.5,50.5 C 136.337,50.6395 136.67,51.3061 135.5,52.5C 134.702,52.0431 134.369,51.3764 134.5,50.5 Z"/></g>
<g><path style="opacity:1" fill="#1f1f1f" d="M 119.5,57.5 C 118.609,58.1098 117.609,58.4431 116.5,58.5C 114.748,58.5824 113.748,57.7491 113.5,56C 114.601,52.4445 116.601,51.7778 119.5,54C 118.551,54.6172 117.718,54.4506 117,53.5C 115.422,54.7113 115.255,56.0446 116.5,57.5C 117.534,54.8753 118.534,54.8753 119.5,57.5 Z"/></g>
<g><path style="opacity:1" fill="#28282c" d="M 94.5,55.5 C 93.8333,55.8333 93.1667,56.1667 92.5,56.5C 91.5,56.5 90.5,56.5 89.5,56.5C 89.5,54.5 89.5,52.5 89.5,50.5C 91.1667,50.5 92.8333,50.5 94.5,50.5C 94.5,52.1667 94.5,53.8333 94.5,55.5 Z"/></g>
<g><path style="opacity:1" fill="#b2b2b7" d="M 91.5,51.5 C 93.332,52.1405 93.6653,53.1405 92.5,54.5C 91.6143,53.675 91.281,52.675 91.5,51.5 Z"/></g>
<g><path style="opacity:1" fill="#262625" d="M 103.5,55.5 C 102.5,55.5 101.5,55.5 100.5,55.5C 98.4062,50.4294 99.9062,48.7627 105,50.5C 105.877,52.6742 105.377,54.3409 103.5,55.5 Z"/></g>
<g><path style="opacity:1" fill="#dfdfdb" d="M 101.5,51.5 C 103.465,51.9483 103.798,52.9483 102.5,54.5C 101.614,53.675 101.281,52.675 101.5,51.5 Z"/></g>
<g><path style="opacity:1" fill="#20211f" d="M 107.5,50.5 C 109.167,50.5 110.833,50.5 112.5,50.5C 112.313,52.5643 111.813,54.5643 111,56.5C 110.333,55.8333 109.667,55.1667 109,54.5C 108.282,55.4506 107.449,55.6172 106.5,55C 107.38,53.6439 107.714,52.1439 107.5,50.5 Z"/></g>
<g><path style="opacity:1" fill="#b8d2e6" d="M 171.5,51.5 C 172.885,52.5736 174.051,53.9069 175,55.5C 175.333,53.5 175.667,51.5 176,49.5C 176.333,49.8333 176.667,50.1667 177,50.5C 177.301,53.5071 177.135,56.5071 176.5,59.5C 173.385,59.3939 170.719,60.3939 168.5,62.5C 167.761,62.631 167.094,62.4643 166.5,62C 168.731,60.3903 170.731,58.557 172.5,56.5C 172.167,56.1667 171.833,55.8333 171.5,55.5C 169.228,56.4411 167.228,57.7745 165.5,59.5C 164.702,59.0431 164.369,58.3764 164.5,57.5C 165.289,57.2172 165.956,56.7172 166.5,56C 161.341,55.0001 160.174,52.1668 163,47.5C 163.353,48.6716 163.187,49.8382 162.5,51C 162.613,52.2798 163.28,53.1131 164.5,53.5C 165.59,52.6086 165.59,51.6086 164.5,50.5C 165.391,49.4104 166.391,49.4104 167.5,50.5C 167.833,50.1667 168.167,49.8333 168.5,49.5C 167.833,48.8333 167.167,48.1667 166.5,47.5C 167.002,46.479 167.668,46.3123 168.5,47C 169.866,49.3818 169.533,51.5485 167.5,53.5C 168.325,54.3857 169.325,54.719 170.5,54.5C 170.263,53.209 170.596,52.209 171.5,51.5 Z"/></g>
<g><path style="opacity:1" fill="#282c2e" d="M 63.5,54.5 C 63.3605,56.337 62.6939,56.6704 61.5,55.5C 61.9569,54.7025 62.6236,54.3691 63.5,54.5 Z"/></g>
<g><path style="opacity:1" fill="#2d2d2d" d="M 81.5,59.5 C 80.1779,59.67 79.0113,59.3366 78,58.5C 77.7679,59.7375 77.2679,60.7375 76.5,61.5C 73.6126,58.8008 73.9459,56.4675 77.5,54.5C 78.8357,56.171 80.169,57.8376 81.5,59.5 Z"/></g>
<g><path style="opacity:1" fill="#434343" d="M 83.5,51.5 C 85.045,52.2297 85.8784,53.563 86,55.5C 87.1313,54.3961 87.9646,54.7295 88.5,56.5C 86.6957,57.7681 84.6957,58.4348 82.5,58.5C 82.298,56.0504 82.6314,53.717 83.5,51.5 Z"/></g>
<g><path style="opacity:1" fill="#15243d" d="M 143.5,13.5 C 144.552,13.3505 145.552,13.5172 146.5,14C 172.091,28.7771 188.425,50.6105 195.5,79.5C 202.298,122.38 188.298,156.547 153.5,182C 134.873,193.694 114.539,198.861 92.5,197.5C 90.369,196.686 88.0356,196.186 85.5,196C 103.154,197.273 120.154,194.773 136.5,188.5C 137.562,186.978 138.229,185.312 138.5,183.5C 139.609,183.443 140.609,183.11 141.5,182.5C 141.238,183.978 141.571,185.311 142.5,186.5C 148.465,183.184 154.132,179.517 159.5,175.5C 161.167,174.5 162.5,173.167 163.5,171.5C 166.626,169.703 168.626,167.037 169.5,163.5C 171.386,162.594 173.22,161.594 175,160.5C 178,155.833 181,151.167 184,146.5C 185.782,140.934 188.116,135.601 191,130.5C 191.497,128.19 191.663,125.857 191.5,123.5C 192.117,123.389 192.617,123.056 193,122.5C 200.219,92.4343 194.386,65.4343 175.5,41.5C 169.854,33.8544 163.188,27.1878 155.5,21.5C 151.545,19.3001 147.545,17.3001 143.5,15.5C 143.5,14.8333 143.5,14.1667 143.5,13.5 Z"/></g>
<g><path style="opacity:1" fill="#989897" d="M 94.5,55.5 C 96.5,56.8333 98.5,56.8333 100.5,55.5C 101.5,55.5 102.5,55.5 103.5,55.5C 105.156,57.0603 107.156,58.0603 109.5,58.5C 103.401,58.1666 98.0679,58.5 93.5,59.5C 92.1667,60.1667 90.8333,60.8333 89.5,61.5C 88.8333,61.5 88.1667,61.5 87.5,61.5C 87.2648,60.9033 86.7648,60.5699 86,60.5C 83.547,61.8274 81.047,62.6607 78.5,63C 79.5707,62.1482 80.5707,61.3149 81.5,60.5C 85.3948,59.5376 89.0615,58.2043 92.5,56.5C 93.1667,56.1667 93.8333,55.8333 94.5,55.5 Z"/></g>
<g><path style="opacity:1" fill="#363636" d="M 125.5,56.5 C 125.799,58.604 125.466,60.604 124.5,62.5C 123.107,61.1369 121.441,60.3036 119.5,60C 120.056,59.6174 120.389,59.1174 120.5,58.5C 121.82,57.0582 123.486,56.3915 125.5,56.5 Z"/></g>
<g><path style="opacity:1" fill="#163a6f" d="M 40.5,47.5 C 41.8333,47.5 43.1667,47.5 44.5,47.5C 44.8333,50.5 43.5,51.8333 40.5,51.5C 40.6427,53.2624 40.3094,54.9291 39.5,56.5C 39.9569,57.2975 40.6236,57.6309 41.5,57.5C 40.8333,59.5 40.1667,61.5 39.5,63.5C 38.3411,67.1513 36.6744,70.4846 34.5,73.5C 33.7777,74.5511 32.7777,75.2178 31.5,75.5C 32.2326,73.0367 33.2326,70.7033 34.5,68.5C 32.6815,65.7853 31.6815,62.7853 31.5,59.5C 33.1703,59.2488 34.6703,58.5822 36,57.5C 35.9536,55.6874 36.1203,54.0207 36.5,52.5C 37.451,53.3256 38.451,53.4922 39.5,53C 37.7585,51.3804 35.9252,49.8804 34,48.5C 33.2506,47.365 33.4173,46.365 34.5,45.5C 36.5707,48.5375 39.2374,49.8708 42.5,49.5C 41.7573,48.8182 41.0906,48.1515 40.5,47.5 Z"/></g>
<g><path style="opacity:1" fill="#757776" d="M 54.5,57.5 C 54.8333,57.5 55.1667,57.5 55.5,57.5C 57.3797,57.2291 58.713,57.8958 59.5,59.5C 59.5,60.8333 59.5,62.1667 59.5,63.5C 58.1266,63.6567 56.7932,63.49 55.5,63C 56.1667,62.6667 56.8333,62.3333 57.5,62C 56.3333,61.5 55.5,60.6667 55,59.5C 54.5357,60.0944 54.369,60.7611 54.5,61.5C 53.6236,61.6309 52.9569,61.2975 52.5,60.5C 52.9424,59.2613 53.6091,58.2613 54.5,57.5 Z"/></g>
<g><path style="opacity:1" fill="#8c8c8d" d="M 66.5,55.5 C 69.258,57.3791 70.9247,60.0458 71.5,63.5C 69.7379,66.1417 69.4046,65.975 70.5,63C 68.8225,62.5161 68.1558,61.6828 68.5,60.5C 67.0582,59.1805 66.3915,57.5138 66.5,55.5 Z"/></g>
<g><path style="opacity:1" fill="#1c3759" d="M 168.5,62.5 C 168.5,62.8333 168.5,63.1667 168.5,63.5C 167.167,63.5 165.833,63.5 164.5,63.5C 163.861,64.0968 163.528,64.9302 163.5,66C 165.551,70.2739 166.885,74.7739 167.5,79.5C 165.205,74.2349 162.872,68.9016 160.5,63.5C 162.344,61.8046 163.677,59.8046 164.5,57.5C 164.369,58.3764 164.702,59.0431 165.5,59.5C 167.228,57.7745 169.228,56.4411 171.5,55.5C 171.833,55.8333 172.167,56.1667 172.5,56.5C 170.731,58.557 168.731,60.3903 166.5,62C 167.094,62.4643 167.761,62.631 168.5,62.5 Z"/></g>
<g><path style="opacity:1" fill="#0b3c7f" d="M 31.5,45.5 C 31.2969,47.0443 30.6302,48.3777 29.5,49.5C 30.2739,50.7112 31.1072,50.7112 32,49.5C 32.6924,50.0253 33.1924,50.6919 33.5,51.5C 31.6565,51.7552 29.6565,51.9219 27.5,52C 26.9781,52.5613 26.6448,53.228 26.5,54C 27.4235,55.8114 28.2569,55.6447 29,53.5C 29.2492,54.624 29.7492,55.624 30.5,56.5C 32.3671,53.7709 33.3671,54.1043 33.5,57.5C 31.712,57.2148 30.0453,57.5481 28.5,58.5C 29.325,59.3857 30.325,59.719 31.5,59.5C 31.6815,62.7853 32.6815,65.7853 34.5,68.5C 33.2326,70.7033 32.2326,73.0367 31.5,75.5C 30.188,82.0892 29.5213,88.7558 29.5,95.5C 29.1667,95.5 28.8333,95.5 28.5,95.5C 26.8658,100.437 25.8658,105.771 25.5,111.5C 24.5726,109.887 23.7393,108.221 23,106.5C 22.6271,108.698 22.1271,110.865 21.5,113C 22.7451,117.655 23.7451,122.322 24.5,127C 22.1902,127.497 19.8568,127.663 17.5,127.5C 17.7325,122.106 18.3992,116.773 19.5,111.5C 18.325,111.719 17.325,111.386 16.5,110.5C 20.4693,108.596 20.3027,106.93 16,105.5C 14.802,113.139 13.6353,112.805 12.5,104.5C 12.5427,103.584 12.8761,102.917 13.5,102.5C 13.3505,103.552 13.5172,104.552 14,105.5C 16.1203,102.92 18.287,102.92 20.5,105.5C 20.9202,103.674 20.9202,101.674 20.5,99.5C 21.675,99.719 22.675,99.3857 23.5,98.5C 21.9547,97.5481 20.288,97.2148 18.5,97.5C 18.1377,91.7474 17.1377,91.414 15.5,96.5C 15.0431,97.2975 14.3764,97.6309 13.5,97.5C 14.1598,91.8366 14.8265,86.17 15.5,80.5C 15.1667,77.8333 14.8333,75.1667 14.5,72.5C 13.2798,71.2889 12.1131,71.2889 11,72.5C 10.3988,74.1368 9.89884,75.8034 9.5,77.5C 10.3958,79.8006 10.5625,82.1339 10,84.5C 7.89422,86.3766 6.56089,88.71 6,91.5C 5.50042,98.1583 5.33375,104.825 5.5,111.5C 4.34305,103.01 4.17639,94.3433 5,85.5C 6.66161,79.5412 8.16161,73.5412 9.5,67.5C 9.37642,66.8933 9.04309,66.56 8.5,66.5C 8.26269,65.209 8.59603,64.209 9.5,63.5C 10.5,63.5 11.5,63.5 12.5,63.5C 12.4152,60.3511 13.4152,57.6845 15.5,55.5C 19.5589,55.0228 21.5589,52.6895 21.5,48.5C 24.9083,45.0991 27.9083,41.4325 30.5,37.5C 31.48,40.0865 31.8134,42.7531 31.5,45.5 Z"/></g>
<g><path style="opacity:1" fill="#2f3031" d="M 68.5,60.5 C 68.1558,61.6828 68.8225,62.5161 70.5,63C 69.4046,65.975 69.7379,66.1417 71.5,63.5C 72.2389,63.369 72.9056,63.5357 73.5,64C 70.3055,68.7505 67.6388,68.4172 65.5,63C 66.3734,61.955 67.3734,61.1217 68.5,60.5 Z"/></g>
<g><path style="opacity:1" fill="#292927" d="M 131.5,65.5 C 130.85,65.8039 130.183,66.1373 129.5,66.5C 127.505,64.6548 126.839,62.6548 127.5,60.5C 129.499,59.1435 130.665,59.8101 131,62.5C 131.893,61.2888 132.726,61.2888 133.5,62.5C 132.807,63.5178 132.141,64.5178 131.5,65.5 Z"/></g>
<g><path style="opacity:1" fill="#bfbebc" d="M 81.5,59.5 C 81.5,59.8333 81.5,60.1667 81.5,60.5C 80.5707,61.3149 79.5707,62.1482 78.5,63C 81.047,62.6607 83.547,61.8274 86,60.5C 86.7648,60.5699 87.2648,60.9033 87.5,61.5C 72.9689,66.6963 63.6356,76.6963 59.5,91.5C 60.3105,86.2128 61.9772,81.2128 64.5,76.5C 65.1667,74.8333 65.8333,73.1667 66.5,71.5C 66.5,70.8333 66.8333,70.5 67.5,70.5C 70.9563,68.2167 74.2896,65.7167 77.5,63C 76.944,62.6174 76.6107,62.1174 76.5,61.5C 77.2679,60.7375 77.7679,59.7375 78,58.5C 79.0113,59.3366 80.1779,59.67 81.5,59.5 Z"/></g>
<g><path style="opacity:1" fill="#726e6c" d="M 157.5,63.5 C 159.588,65.3356 160.921,67.6689 161.5,70.5C 159.412,68.6644 158.079,66.3311 157.5,63.5 Z"/></g>
<g><path style="opacity:1" fill="#121311" d="M 133.5,68.5 C 131.302,68.5912 130.969,67.9245 132.5,66.5C 133.601,65.2003 134.934,64.7003 136.5,65C 135.29,66.0391 134.29,67.2058 133.5,68.5 Z"/></g>
<g><path style="opacity:1" fill="#323233" d="M 48.5,65.5 C 50.2528,67.2225 52.2528,68.7225 54.5,70C 52.5,69.6667 50.5,69.3333 48.5,69C 49.8333,70 51.1667,71 52.5,72C 51.9056,72.4643 51.2389,72.631 50.5,72.5C 49.1667,71.5 47.8333,70.5 46.5,69.5C 46.6596,67.847 47.3263,66.5137 48.5,65.5 Z"/></g>
<g><path style="opacity:1" fill="#2f3030" d="M 67.5,70.5 C 66.8333,70.5 66.5,70.8333 66.5,71.5C 64.8561,71.7135 63.3561,71.3802 62,70.5C 60.7458,66.8886 61.9124,65.3886 65.5,66C 63.7397,66.9653 63.4063,68.132 64.5,69.5C 66.3671,66.7709 67.3671,67.1043 67.5,70.5 Z"/></g>
<g><path style="opacity:1" fill="#373739" d="M 133.5,69.5 C 134.75,69.5774 135.583,70.244 136,71.5C 136.49,70.2068 136.657,68.8734 136.5,67.5C 140.82,67.9592 141.487,69.7925 138.5,73C 135.632,73.6401 133.965,72.4734 133.5,69.5 Z"/></g>
<g><path style="opacity:1" fill="#717171" d="M 153.5,70.5 C 152.494,71.3957 152.494,72.0623 153.5,72.5C 152.365,74.2132 150.698,74.8799 148.5,74.5C 148.5,72.8333 148.5,71.1667 148.5,69.5C 150.216,69.6287 151.883,69.962 153.5,70.5 Z"/></g>
<g><path style="opacity:1" fill="#313132" d="M 148.5,59.5 C 150.076,62.3116 151.91,64.9783 154,67.5C 156.354,71.203 157.854,75.203 158.5,79.5C 157.209,79.2627 156.209,79.596 155.5,80.5C 154.448,80.6495 153.448,80.4828 152.5,80C 152.944,78.4667 153.277,76.9667 153.5,75.5C 154.478,75.9767 155.311,76.6433 156,77.5C 156.249,75.332 155.416,73.6653 153.5,72.5C 152.494,72.0623 152.494,71.3957 153.5,70.5C 152.928,69.0267 152.095,67.6934 151,66.5C 149.613,68.3013 148.113,68.9679 146.5,68.5C 147.981,67.5197 149.315,66.353 150.5,65C 149.451,64.5078 148.451,64.6744 147.5,65.5C 146.396,64.3687 146.729,63.5354 148.5,63C 146.273,61.1645 144.44,61.6645 143,64.5C 142.805,63.1807 142.972,61.8474 143.5,60.5C 139.667,59.1899 139.667,58.0233 143.5,57C 142.549,56.2825 142.383,55.4491 143,54.5C 144.704,56.3734 146.537,58.0401 148.5,59.5 Z"/></g>
<g><path style="opacity:1" fill="#ddd9de" d="M 143.5,60.5 C 143.639,58.663 144.306,58.3296 145.5,59.5C 145.043,60.2975 144.376,60.6309 143.5,60.5 Z"/></g>
<g><path style="opacity:1" fill="#6b6a6e" d="M 46.5,69.5 C 47.8333,70.5 49.1667,71.5 50.5,72.5C 51.4629,74.2984 50.7962,75.6317 48.5,76.5C 47.3777,75.3698 46.0443,74.7031 44.5,74.5C 44.4021,72.4471 45.0687,70.7804 46.5,69.5 Z"/></g>
<g><path style="opacity:1" fill="#acb2b8" d="M 152.5,53.5 C 155.178,56.8726 157.844,60.2059 160.5,63.5C 162.872,68.9016 165.205,74.2349 167.5,79.5C 168.167,83.1667 168.833,86.8333 169.5,90.5C 168.833,90.5 168.5,90.8333 168.5,91.5C 167.833,91.5 167.5,91.8333 167.5,92.5C 165.744,85.2129 163.744,77.8795 161.5,70.5C 160.921,67.6689 159.588,65.3356 157.5,63.5C 156.094,63.0269 155.427,62.0269 155.5,60.5C 154.611,58.264 153.278,56.264 151.5,54.5C 151.624,53.8933 151.957,53.56 152.5,53.5 Z"/></g>
<g><path style="opacity:1" fill="#2a2a2a" d="M 58.5,70.5 C 61.3701,71.0781 63.0367,72.7448 63.5,75.5C 62.448,75.3505 61.448,75.5172 60.5,76C 61.7112,76.8928 61.7112,77.7261 60.5,78.5C 58.0693,77.6399 56.736,75.9732 56.5,73.5C 57.552,73.6495 58.552,73.4828 59.5,73C 58.7476,72.3292 58.4142,71.4959 58.5,70.5 Z"/></g>
<g><path style="opacity:1" fill="#fafaf9" d="M 50.5,54.5 C 52.6188,54.4677 53.9522,55.4677 54.5,57.5C 53.6091,58.2613 52.9424,59.2613 52.5,60.5C 52.9569,61.2975 53.6236,61.6309 54.5,61.5C 54.2504,62.9221 53.417,63.9221 52,64.5C 50.687,63.7129 49.5203,64.0462 48.5,65.5C 47.3263,66.5137 46.6596,67.847 46.5,69.5C 45.0687,70.7804 44.4021,72.4471 44.5,74.5C 42.5958,76.0441 41.7625,78.0441 42,80.5C 42.6667,79.8333 43.3333,79.1667 44,78.5C 44.3879,79.428 45.0546,80.0946 46,80.5C 47.1385,80.0109 48.3052,79.6775 49.5,79.5C 49.7539,83.0872 49.7539,86.7538 49.5,90.5C 49.5,92.1667 49.5,93.8333 49.5,95.5C 50.8333,95.5 52.1667,95.5 53.5,95.5C 52.8333,96.1667 52.1667,96.8333 51.5,97.5C 49.744,98.5521 49.0773,100.219 49.5,102.5C 51.5,102.5 53.5,102.5 55.5,102.5C 55.5,101.167 55.5,99.8333 55.5,98.5C 56.1667,101.5 56.8333,104.5 57.5,107.5C 58.0249,111.533 59.3582,115.2 61.5,118.5C 63.6851,123.686 66.6851,128.353 70.5,132.5C 69.7688,132.942 68.7688,133.109 67.5,133C 67.8333,133.333 68.1667,133.667 68.5,134C 66.6584,135.344 64.9917,136.844 63.5,138.5C 62.2054,137.902 60.8721,137.402 59.5,137C 60.6956,136.346 60.6956,135.846 59.5,135.5C 58.8182,136.243 58.1515,136.909 57.5,137.5C 55.5887,138.075 53.922,139.075 52.5,140.5C 51.2652,140.279 50.2652,139.612 49.5,138.5C 48.4822,139.193 47.4822,139.859 46.5,140.5C 45.8333,140.167 45.1667,139.833 44.5,139.5C 44.573,137.973 43.9063,136.973 42.5,136.5C 40.4032,131.311 38.0698,126.311 35.5,121.5C 34.4919,116.04 33.4919,110.707 32.5,105.5C 31.636,85.893 37.636,68.893 50.5,54.5 Z"/></g>
<g><path style="opacity:1" fill="#404242" d="M 44.5,74.5 C 44.281,75.675 44.6143,76.675 45.5,77.5C 47.0255,77.9943 48.3588,78.661 49.5,79.5C 48.3052,79.6775 47.1385,80.0109 46,80.5C 45.0546,80.0946 44.3879,79.428 44,78.5C 43.3333,79.1667 42.6667,79.8333 42,80.5C 41.7625,78.0441 42.5958,76.0441 44.5,74.5 Z"/></g>
<g><path style="opacity:1" fill="#282925" d="M 137.5,74.5 C 139.5,74.5 141.5,74.5 143.5,74.5C 141.655,81.0772 139.655,81.0772 137.5,74.5 Z"/></g>
<g><path style="opacity:1" fill="#1b1b1b" d="M 144.5,78.5 C 146.562,79.5046 147.396,81.1713 147,83.5C 145.333,82.1667 143.667,82.1667 142,83.5C 142.74,81.9492 143.573,80.2825 144.5,78.5 Z"/></g>
<g><path style="opacity:1" fill="#f7f7f7" d="M 149.5,54.5 C 151.139,56.8061 153.139,58.8061 155.5,60.5C 155.427,62.0269 156.094,63.0269 157.5,63.5C 158.079,66.3311 159.412,68.6644 161.5,70.5C 163.744,77.8795 165.744,85.2129 167.5,92.5C 167.283,99.8526 167.117,107.186 167,114.5C 168.311,106.895 168.811,99.2282 168.5,91.5C 168.5,90.8333 168.833,90.5 169.5,90.5C 169.666,97.5079 169.5,104.508 169,111.5C 168.164,116.503 166.664,121.17 164.5,125.5C 164.657,124.127 164.49,122.793 164,121.5C 161.821,126.521 159.654,131.521 157.5,136.5C 155.453,138.55 153.786,140.883 152.5,143.5C 148.141,147.528 143.807,151.528 139.5,155.5C 137.973,155.427 136.973,156.094 136.5,157.5C 135.391,157.557 134.391,157.89 133.5,158.5C 131.824,157.817 131.157,156.483 131.5,154.5C 131.5,154.167 131.5,153.833 131.5,153.5C 135.291,152.079 138.624,150.079 141.5,147.5C 141.367,144.104 140.367,143.771 138.5,146.5C 137.5,146.167 136.833,145.5 136.5,144.5C 138.93,142.087 141.263,142.087 143.5,144.5C 145.762,143.655 146.429,142.322 145.5,140.5C 144.28,139.289 143.113,139.289 142,140.5C 141.383,139.551 141.549,138.718 142.5,138C 141.833,137.333 141.167,137.333 140.5,138C 138.967,140.029 137.301,141.862 135.5,143.5C 134.662,143.842 134.328,144.508 134.5,145.5C 132.451,145.706 132.117,146.539 133.5,148C 132.563,148.692 131.897,148.525 131.5,147.5C 130.15,143.905 127.483,142.572 123.5,143.5C 123.657,142.127 123.49,140.793 123,139.5C 117.592,142.79 111.759,144.79 105.5,145.5C 103.396,145.799 101.396,145.466 99.5,144.5C 105.474,142.938 111.474,141.438 117.5,140C 120.921,138.301 123.921,136.135 126.5,133.5C 129.833,132.167 132.167,129.833 133.5,126.5C 137.735,122.399 140.568,117.399 142,111.5C 142.809,105.683 143.642,100.017 144.5,94.5C 149.42,95.585 151.087,93.9183 149.5,89.5C 150.171,88.1529 150.171,86.9862 149.5,86C 151.932,84.9125 151.598,84.4125 148.5,84.5C 148.33,83.1779 148.663,82.0113 149.5,81C 151.638,81.5589 153.638,81.3922 155.5,80.5C 156.209,79.596 157.209,79.2627 158.5,79.5C 157.854,75.203 156.354,71.203 154,67.5C 151.91,64.9783 150.076,62.3116 148.5,59.5C 149.713,58.0476 149.38,56.7143 147.5,55.5C 147.957,54.7025 148.624,54.3691 149.5,54.5 Z"/></g>
<g><path style="opacity:1" fill="#232323" d="M 54.5,77.5 C 55.7736,78.1894 55.7736,79.0228 54.5,80C 55.5,80.5 56.5,81 57.5,81.5C 61.0075,78.9335 61.3409,79.4335 58.5,83C 54.1258,83.4241 52.7925,81.5907 54.5,77.5 Z"/></g>
<g><path style="opacity:1" fill="#0c3d7b" d="M 175.5,41.5 C 194.386,65.4343 200.219,92.4343 193,122.5C 192.617,123.056 192.117,123.389 191.5,123.5C 192.914,116.601 193.581,109.601 193.5,102.5C 193.581,97.4176 193.081,92.4176 192,87.5C 191.13,88.1079 190.63,88.9412 190.5,90C 191.141,93.5347 191.474,97.0347 191.5,100.5C 191.154,101.696 190.654,101.696 190,100.5C 189.895,104.603 187.895,107.27 184,108.5C 182.271,108.026 181.105,107.026 180.5,105.5C 182.322,102.962 184.322,102.962 186.5,105.5C 186.92,103.674 186.92,101.674 186.5,99.5C 187.675,99.719 188.675,99.3857 189.5,98.5C 187.955,97.5481 186.288,97.2148 184.5,97.5C 184.392,92.8634 183.392,92.53 181.5,96.5C 180.675,97.3857 179.675,97.719 178.5,97.5C 177.791,96.596 176.791,96.2627 175.5,96.5C 175.5,89.8333 175.5,83.1667 175.5,76.5C 179.302,75.8803 182.635,76.7137 185.5,79C 183.19,79.4966 180.857,79.6633 178.5,79.5C 178.207,86.048 181.041,88.048 187,85.5C 188.128,83.6547 188.628,81.6547 188.5,79.5C 189.5,79.5 190.5,79.5 191.5,79.5C 192.128,75.8419 190.794,73.3419 187.5,72C 186.624,70.414 185.624,68.914 184.5,67.5C 182.576,67.8936 180.743,67.227 179,65.5C 177.115,67.02 174.949,68.02 172.5,68.5C 172.178,66.4565 170.844,64.7898 168.5,63.5C 168.5,63.1667 168.5,62.8333 168.5,62.5C 170.719,60.3939 173.385,59.3939 176.5,59.5C 177.135,56.5071 177.301,53.5071 177,50.5C 176.667,50.1667 176.333,49.8333 176,49.5C 175.667,51.5 175.333,53.5 175,55.5C 174.051,53.9069 172.885,52.5736 171.5,51.5C 172.164,48.7288 171.498,46.0621 169.5,43.5C 167.884,42.8848 166.551,41.8848 165.5,40.5C 163.788,36.3836 164.788,35.2169 168.5,37C 169.826,39.1584 171.493,40.9918 173.5,42.5C 174.183,42.1373 174.85,41.8039 175.5,41.5 Z"/></g>
<g><path style="opacity:1" fill="#838384" d="M 51.5,84.5 C 53.9733,83.4299 55.3066,84.4299 55.5,87.5C 53.8595,86.853 52.5261,85.853 51.5,84.5 Z"/></g>
<g><path style="opacity:1" fill="#0e1c34" d="M 34.5,73.5 C 32.5497,79.3537 31.2164,85.3537 30.5,91.5C 30.5,92.8333 30.5,94.1667 30.5,95.5C 30.1667,95.5 29.8333,95.5 29.5,95.5C 29.5213,88.7558 30.188,82.0892 31.5,75.5C 32.7777,75.2178 33.7777,74.5511 34.5,73.5 Z"/></g>
<g><path style="opacity:1" fill="#1c1b1d" d="M 51.5,84.5 C 52.5261,85.853 53.8595,86.853 55.5,87.5C 55.8333,87.5 56.1667,87.5 56.5,87.5C 56.5,88.1667 56.5,88.8333 56.5,89.5C 52.8284,89.8174 51.1617,88.1507 51.5,84.5 Z"/></g>
<g><path style="opacity:1" fill="#202121" d="M 143.5,85.5 C 149.324,85.3466 149.657,86.0133 144.5,87.5C 142.279,87.5613 141.946,86.8946 143.5,85.5 Z"/></g>
<g><path style="opacity:1" fill="#1f1f1f" d="M 149.5,89.5 C 151.087,93.9183 149.42,95.585 144.5,94.5C 144.167,93.8333 143.833,93.1667 143.5,92.5C 143.414,91.5041 143.748,90.6708 144.5,90C 146.134,89.5065 147.801,89.3398 149.5,89.5 Z"/></g>
<g><path style="opacity:1" fill="#cbcbcb" d="M 145.5,90.5 C 146.5,90.5 147.5,90.5 148.5,90.5C 148.5,91.5 148.5,92.5 148.5,93.5C 147.5,93.5 146.5,93.5 145.5,93.5C 145.5,92.5 145.5,91.5 145.5,90.5 Z"/></g>
<g><path style="opacity:1" fill="#2c2b2e" d="M 49.5,90.5 C 50.9311,90.8807 51.7645,91.8807 52,93.5C 52.3333,92.5 52.6667,91.5 53,90.5C 53.2833,93.7423 54.1166,94.0756 55.5,91.5C 56.9415,93.8329 56.2748,95.1662 53.5,95.5C 52.1667,95.5 50.8333,95.5 49.5,95.5C 49.5,93.8333 49.5,92.1667 49.5,90.5 Z"/></g>
<g><path style="opacity:1" fill="#17243f" d="M 167.5,79.5 C 168.927,81.1484 169.76,83.1484 170,85.5C 172.816,99.882 171.649,113.882 166.5,127.5C 165.833,127.5 165.167,127.5 164.5,127.5C 164.5,126.833 164.5,126.167 164.5,125.5C 166.664,121.17 168.164,116.503 169,111.5C 169.5,104.508 169.666,97.5079 169.5,90.5C 168.833,86.8333 168.167,83.1667 167.5,79.5 Z"/></g>
<g><path style="opacity:1" fill="#656367" d="M 168.5,91.5 C 168.811,99.2282 168.311,106.895 167,114.5C 167.117,107.186 167.283,99.8526 167.5,92.5C 167.5,91.8333 167.833,91.5 168.5,91.5 Z"/></g>
<g><path style="opacity:1" fill="#292929" d="M 144.5,96.5 C 146.604,96.2011 148.604,96.5344 150.5,97.5C 150.023,98.4776 149.357,99.3109 148.5,100C 149.308,100.308 149.975,100.808 150.5,101.5C 148.5,102.833 146.5,102.833 144.5,101.5C 144.977,100.522 145.643,99.6891 146.5,99C 145.244,98.5831 144.577,97.7498 144.5,96.5 Z"/></g>
<g><path style="opacity:1" fill="#cce1f1" d="M 13.5,102.5 C 13.2969,100.956 12.6302,99.6223 11.5,98.5C 11.9569,97.7025 12.6236,97.3691 13.5,97.5C 14.3764,97.6309 15.0431,97.2975 15.5,96.5C 17.1377,91.414 18.1377,91.7474 18.5,97.5C 20.288,97.2148 21.9547,97.5481 23.5,98.5C 22.675,99.3857 21.675,99.719 20.5,99.5C 20.9202,101.674 20.9202,103.674 20.5,105.5C 18.287,102.92 16.1203,102.92 14,105.5C 13.5172,104.552 13.3505,103.552 13.5,102.5 Z"/></g>
<g><path style="opacity:1" fill="#1f1f1e" d="M 51.5,97.5 C 52.9587,97.4326 54.2921,97.7659 55.5,98.5C 55.5,99.8333 55.5,101.167 55.5,102.5C 53.5,102.5 51.5,102.5 49.5,102.5C 49.0773,100.219 49.744,98.5521 51.5,97.5 Z"/></g>
<g><path style="opacity:1" fill="#9b9899" d="M 64.5,76.5 C 61.9772,81.2128 60.3105,86.2128 59.5,91.5C 59.2539,97.5594 59.5872,103.559 60.5,109.5C 59.9033,109.735 59.5699,110.235 59.5,111C 60.4788,113.433 61.1455,115.933 61.5,118.5C 59.3582,115.2 58.0249,111.533 57.5,107.5C 57.8229,101.31 57.4896,95.31 56.5,89.5C 56.5,88.8333 56.5,88.1667 56.5,87.5C 57.1174,87.6107 57.6174,87.944 58,88.5C 59.4182,83.9901 61.5849,79.9901 64.5,76.5 Z"/></g>
<g><path style="opacity:1" fill="#c3c4bf" d="M 51.5,98.5 C 52.7562,98.4614 53.7562,98.9614 54.5,100C 53.1667,100.667 51.8333,100.667 50.5,100C 51.056,99.6174 51.3893,99.1174 51.5,98.5 Z"/></g>
<g><path style="opacity:1" fill="#083c83" d="M 164.5,63.5 C 165.833,63.5 167.167,63.5 168.5,63.5C 170.844,64.7898 172.178,66.4565 172.5,68.5C 174.949,68.02 177.115,67.02 179,65.5C 180.743,67.227 182.576,67.8936 184.5,67.5C 185.624,68.914 186.624,70.414 187.5,72C 190.794,73.3419 192.128,75.8419 191.5,79.5C 190.5,79.5 189.5,79.5 188.5,79.5C 188.628,81.6547 188.128,83.6547 187,85.5C 181.041,88.048 178.207,86.048 178.5,79.5C 180.857,79.6633 183.19,79.4966 185.5,79C 182.635,76.7137 179.302,75.8803 175.5,76.5C 175.5,83.1667 175.5,89.8333 175.5,96.5C 176.791,96.2627 177.791,96.596 178.5,97.5C 177.957,97.56 177.624,97.8933 177.5,98.5C 178.869,100.764 179.869,103.097 180.5,105.5C 181.105,107.026 182.271,108.026 184,108.5C 187.895,107.27 189.895,104.603 190,100.5C 190.654,101.696 191.154,101.696 191.5,100.5C 191.474,97.0347 191.141,93.5347 190.5,90C 190.63,88.9412 191.13,88.1079 192,87.5C 193.081,92.4176 193.581,97.4176 193.5,102.5C 193.581,109.601 192.914,116.601 191.5,123.5C 191.663,125.857 191.497,128.19 191,130.5C 188.116,135.601 185.782,140.934 184,146.5C 181,151.167 178,155.833 175,160.5C 173.22,161.594 171.386,162.594 169.5,163.5C 168.626,167.037 166.626,169.703 163.5,171.5C 162.417,171.539 161.417,171.873 160.5,172.5C 159.702,172.043 159.369,171.376 159.5,170.5C 163.765,165.541 163.431,160.875 158.5,156.5C 156.677,155.253 154.677,154.586 152.5,154.5C 150.554,154.807 148.887,154.807 147.5,154.5C 149.934,152.079 151.934,149.412 153.5,146.5C 155.053,144.615 157.053,143.615 159.5,143.5C 160.257,139.317 161.59,135.317 163.5,131.5C 163.433,130.041 163.766,128.708 164.5,127.5C 165.167,127.5 165.833,127.5 166.5,127.5C 168.301,126.242 169.801,124.576 171,122.5C 172.68,115.599 173.514,108.599 173.5,101.5C 172.329,90.8074 170.829,80.1407 169,69.5C 165.802,68.7703 164.302,66.7703 164.5,63.5 Z"/></g>
<g><path style="opacity:1" fill="#cddfee" d="M 180.5,105.5 C 179.869,103.097 178.869,100.764 177.5,98.5C 177.624,97.8933 177.957,97.56 178.5,97.5C 179.675,97.719 180.675,97.3857 181.5,96.5C 183.392,92.53 184.392,92.8634 184.5,97.5C 186.288,97.2148 187.955,97.5481 189.5,98.5C 188.675,99.3857 187.675,99.719 186.5,99.5C 186.92,101.674 186.92,103.674 186.5,105.5C 184.322,102.962 182.322,102.962 180.5,105.5 Z"/></g>
<g><path style="opacity:1" fill="#083c81" d="M 13.5,97.5 C 12.6236,97.3691 11.9569,97.7025 11.5,98.5C 12.6302,99.6223 13.2969,100.956 13.5,102.5C 12.8761,102.917 12.5427,103.584 12.5,104.5C 13.6353,112.805 14.802,113.139 16,105.5C 20.3027,106.93 20.4693,108.596 16.5,110.5C 17.325,111.386 18.325,111.719 19.5,111.5C 18.3992,116.773 17.7325,122.106 17.5,127.5C 19.8568,127.663 22.1902,127.497 24.5,127C 23.7451,122.322 22.7451,117.655 21.5,113C 22.1271,110.865 22.6271,108.698 23,106.5C 23.7393,108.221 24.5726,109.887 25.5,111.5C 25.8658,105.771 26.8658,100.437 28.5,95.5C 28.8494,106.253 29.8494,116.919 31.5,127.5C 32.675,127.281 33.675,127.614 34.5,128.5C 37.0042,133.856 39.6709,138.856 42.5,143.5C 43.0114,146.028 43.6781,148.528 44.5,151C 43.9233,153.137 43.59,155.304 43.5,157.5C 41.1414,160.851 38.8081,164.185 36.5,167.5C 35.7494,168.573 34.7494,168.74 33.5,168C 32.3492,165.881 30.8492,164.047 29,162.5C 28.5172,161.552 28.3505,160.552 28.5,159.5C 26.8333,159.5 25.1667,159.5 23.5,159.5C 22.8333,159.5 22.5,159.167 22.5,158.5C 17.521,149.395 13.021,140.062 9,130.5C 6.61088,124.388 5.44421,118.055 5.5,111.5C 5.33375,104.825 5.50042,98.1583 6,91.5C 6.56089,88.71 7.89422,86.3766 10,84.5C 10.5625,82.1339 10.3958,79.8006 9.5,77.5C 9.89884,75.8034 10.3988,74.1368 11,72.5C 12.1131,71.2889 13.2798,71.2889 14.5,72.5C 14.8333,75.1667 15.1667,77.8333 15.5,80.5C 14.8265,86.17 14.1598,91.8366 13.5,97.5 Z"/></g>
<g><path style="opacity:1" fill="#133b72" d="M 164.5,63.5 C 164.302,66.7703 165.802,68.7703 169,69.5C 170.829,80.1407 172.329,90.8074 173.5,101.5C 173.514,108.599 172.68,115.599 171,122.5C 169.801,124.576 168.301,126.242 166.5,127.5C 171.649,113.882 172.816,99.882 170,85.5C 169.76,83.1484 168.927,81.1484 167.5,79.5C 166.885,74.7739 165.551,70.2739 163.5,66C 163.528,64.9302 163.861,64.0968 164.5,63.5 Z"/></g>
<g><path style="opacity:1" fill="#2f2e24" d="M 93.5,59.5 C 117.34,58.1894 132.84,68.8561 140,91.5C 142.744,116.863 131.911,133.029 107.5,140C 83.58,142.382 67.9133,132.215 60.5,109.5C 59.5872,103.559 59.2539,97.5594 59.5,91.5C 63.6356,76.6963 72.9689,66.6963 87.5,61.5C 88.1667,61.5 88.8333,61.5 89.5,61.5C 90.8333,60.8333 92.1667,60.1667 93.5,59.5 Z"/></g>
<g><path style="opacity:1" fill="#f3f2d1" d="M 89.5,61.5 C 111.619,58.1408 127.453,66.4742 137,86.5C 142.8,109.732 134.966,126.565 113.5,137C 96.5594,142.263 82.0594,138.429 70,125.5C 62.1508,115.098 59.4841,103.431 62,90.5C 66.2473,76.088 75.4139,66.4213 89.5,61.5 Z"/></g>
<g><path style="opacity:1" fill="#962d2a" d="M 94.5,103.5 C 95.3382,103.842 95.6716,104.508 95.5,105.5C 95.5,106.167 95.5,106.833 95.5,107.5C 92.8959,109.6 90.3959,111.933 88,114.5C 87.6886,115.742 88.1886,116.742 89.5,117.5C 89.1373,118.183 88.8039,118.85 88.5,119.5C 86.5,119.167 84.5,118.833 82.5,118.5C 80.8212,118.715 79.8212,118.048 79.5,116.5C 80.3686,114.283 80.702,111.95 80.5,109.5C 82.5116,110.014 84.5116,110.18 86.5,110C 88.3962,107.932 90.3962,106.099 92.5,104.5C 93.4916,104.672 94.1583,104.338 94.5,103.5 Z"/></g>
<g><path style="opacity:1" fill="#982c27" d="M 108.5,105.5 C 110.513,107.497 112.846,109.164 115.5,110.5C 116.183,110.137 116.85,109.804 117.5,109.5C 118.265,112.096 118.599,114.763 118.5,117.5C 117.167,117.5 115.833,117.5 114.5,117.5C 114.5,116.167 114.5,114.833 114.5,113.5C 113.5,113.5 112.5,113.5 111.5,113.5C 109.098,111.091 106.431,109.091 103.5,107.5C 103.5,107.167 103.5,106.833 103.5,106.5C 104.167,105.833 104.833,105.167 105.5,104.5C 106.117,104.389 106.617,104.056 107,103.5C 107.278,104.416 107.778,105.082 108.5,105.5 Z"/></g>
<g><path style="opacity:1" fill="#ede1d3" d="M 103.5,107.5 C 106.431,109.091 109.098,111.091 111.5,113.5C 111.935,115.297 111.935,117.297 111.5,119.5C 110.448,121.256 108.781,121.923 106.5,121.5C 107.209,120.596 108.209,120.263 109.5,120.5C 109.132,112.949 107.632,112.949 105,120.5C 103.166,119.505 101.999,118.005 101.5,116C 102.244,114.145 103.244,112.479 104.5,111C 104.011,109.862 103.678,108.695 103.5,107.5 Z"/></g>
<g><path style="opacity:1" fill="#eaddd1" d="M 95.5,107.5 C 96.5,108.167 97.5,108.833 98.5,109.5C 98.5589,112.049 97.5589,114.049 95.5,115.5C 96.5543,117.201 97.5543,118.868 98.5,120.5C 98.5,121.167 98.1667,121.5 97.5,121.5C 96.5041,121.586 95.6708,121.252 95,120.5C 94.9024,118.381 94.0691,116.714 92.5,115.5C 91.5713,116.689 91.238,118.022 91.5,119.5C 90.5,119.5 89.5,119.5 88.5,119.5C 88.8039,118.85 89.1373,118.183 89.5,117.5C 88.1886,116.742 87.6886,115.742 88,114.5C 90.3959,111.933 92.8959,109.6 95.5,107.5 Z"/></g>
<g><path style="opacity:1" fill="#e9decf" d="M 105.5,97.5 C 106.833,99.8333 106.833,102.167 105.5,104.5C 104.833,105.167 104.167,105.833 103.5,106.5C 101.856,106.286 100.356,106.62 99,107.5C 98.1841,106.177 97.0174,105.511 95.5,105.5C 95.6716,104.508 95.3382,103.842 94.5,103.5C 94.2115,101.475 93.8782,99.475 93.5,97.5C 94.8333,97.5 95.5,96.8333 95.5,95.5C 97.1439,95.7135 98.6439,95.3802 100,94.5C 101.866,95.5266 103.7,96.5266 105.5,97.5 Z"/></g>
<g><path style="opacity:1" fill="#395a68" d="M 108.5,105.5 C 107.778,105.082 107.278,104.416 107,103.5C 106.617,104.056 106.117,104.389 105.5,104.5C 106.833,102.167 106.833,99.8333 105.5,97.5C 105.389,96.8826 105.056,96.3826 104.5,96C 105.793,95.51 107.127,95.3433 108.5,95.5C 107.032,97.6109 107.365,99.4443 109.5,101C 112.833,101.114 116.166,100.781 119.5,100C 123.017,98.076 126.684,96.4094 130.5,95C 130.491,93.2703 130.158,91.437 129.5,89.5C 128.264,90.2458 126.93,90.5792 125.5,90.5C 132.935,83.2268 135.268,84.8934 132.5,95.5C 126.5,99.6682 119.833,102.168 112.5,103C 110.934,103.608 109.6,104.442 108.5,105.5 Z"/></g>
<g><path style="opacity:1" fill="#286387" d="M 71.5,88.5 C 73.3742,90.1284 75.3742,90.4618 77.5,89.5C 80.4831,93.3463 84.1498,94.3463 88.5,92.5C 90.5486,93.8818 92.2153,95.5484 93.5,97.5C 93.8782,99.475 94.2115,101.475 94.5,103.5C 94.1583,104.338 93.4916,104.672 92.5,104.5C 90.4471,104.598 88.7804,103.931 87.5,102.5C 82.6482,100.601 77.6482,98.768 72.5,97C 69.2756,94.1609 68.9423,91.3276 71.5,88.5 Z"/></g>
<g><path style="opacity:1" fill="#df986f" d="M 97.5,97.5 C 102.315,96.8551 103.981,98.6885 102.5,103C 100.866,103.494 99.1992,103.66 97.5,103.5C 97.5,101.5 97.5,99.5 97.5,97.5 Z"/></g>
<g><path style="opacity:1" fill="#6a3733" d="M 85.5,88.5 C 88.6016,90.9453 91.935,92.9453 95.5,94.5C 95.5,94.8333 95.5,95.1667 95.5,95.5C 95.5,96.8333 94.8333,97.5 93.5,97.5C 92.2153,95.5484 90.5486,93.8818 88.5,92.5C 87.1667,91.8333 86.1667,90.8333 85.5,89.5C 85.5,89.1667 85.5,88.8333 85.5,88.5 Z"/></g>
<g><path style="opacity:1" fill="#1d6690" d="M 125.5,90.5 C 126.93,90.5792 128.264,90.2458 129.5,89.5C 130.158,91.437 130.491,93.2703 130.5,95C 126.684,96.4094 123.017,98.076 119.5,100C 116.166,100.781 112.833,101.114 109.5,101C 107.365,99.4443 107.032,97.6109 108.5,95.5C 110.179,95.7148 111.179,95.0481 111.5,93.5C 115.986,94.0056 119.819,92.6723 123,89.5C 123.671,90.2524 124.504,90.5858 125.5,90.5 Z"/></g>
<g><path style="opacity:1" fill="#7a6c57" d="M 111.5,93.5 C 111.179,95.0481 110.179,95.7148 108.5,95.5C 107.127,95.3433 105.793,95.51 104.5,96C 105.056,96.3826 105.389,96.8826 105.5,97.5C 103.7,96.5266 101.866,95.5266 100,94.5C 98.6439,95.3802 97.1439,95.7135 95.5,95.5C 95.5,95.1667 95.5,94.8333 95.5,94.5C 96.2625,93.7321 97.2625,93.2321 98.5,93C 97.6198,91.6439 97.2865,90.1439 97.5,88.5C 99.1667,88.5 100.833,88.5 102.5,88.5C 102.714,90.1439 102.38,91.6439 101.5,93C 102.872,93.4017 104.205,93.9017 105.5,94.5C 111.766,90.4033 117.6,85.7366 123,80.5C 123.667,81.1667 123.667,81.8333 123,82.5C 118.618,85.7182 114.784,89.3849 111.5,93.5 Z"/></g>
<g><path style="opacity:1" fill="#3f6368" d="M 71.5,88.5 C 68.9423,91.3276 69.2756,94.1609 72.5,97C 77.6482,98.768 82.6482,100.601 87.5,102.5C 80.678,102.363 74.3447,100.529 68.5,97C 65.8688,93.1133 66.0354,89.28 69,85.5C 70.045,86.3734 70.8783,87.3734 71.5,88.5 Z"/></g>
<g><path style="opacity:1" fill="#94836c" d="M 85.5,88.5 C 85.5,88.8333 85.5,89.1667 85.5,89.5C 81.8971,87.2369 78.5638,84.5703 75.5,81.5C 76.0016,80.479 76.6683,80.3123 77.5,81C 80.4315,83.2845 83.0982,85.7845 85.5,88.5 Z"/></g>
<g><path style="opacity:1" fill="#a0a183" d="M 95.5,83.5 C 98.8333,83.5 102.167,83.5 105.5,83.5C 107.137,85.1237 106.803,86.1237 104.5,86.5C 103.328,86.0814 102.328,85.4147 101.5,84.5C 98.7248,86.6073 95.7248,86.9406 92.5,85.5C 93.6016,84.8243 94.6016,84.1577 95.5,83.5 Z"/></g>
<g><path style="opacity:1" fill="#73715b" d="M 105.5,78.5 C 106.72,80.0496 106.72,81.7163 105.5,83.5C 102.167,83.5 98.8333,83.5 95.5,83.5C 94.2584,81.6112 94.2584,79.6112 95.5,77.5C 97.8211,77.7711 99.8211,77.1045 101.5,75.5C 102.642,76.8262 103.976,77.8262 105.5,78.5 Z"/></g>
<g><path style="opacity:1" fill="#a19f8b" d="M 95.5,73.5 C 98.5,73.5 101.5,73.5 104.5,73.5C 104.366,75.2915 104.699,76.9582 105.5,78.5C 103.976,77.8262 102.642,76.8262 101.5,75.5C 99.8211,77.1045 97.8211,77.7711 95.5,77.5C 95.5,76.1667 95.5,74.8333 95.5,73.5 Z"/></g>
<g><path style="opacity:1" fill="#6e6b55" d="M 104.5,73.5 C 101.5,73.5 98.5,73.5 95.5,73.5C 91.5315,67.4471 93.0315,63.7804 100,62.5C 101.842,64.1605 104.009,65.1605 106.5,65.5C 106.142,68.2666 105.475,70.9333 104.5,73.5 Z"/></g>
<g><path style="opacity:1" fill="#2c2158" d="M 98.5,109.5 C 99.209,108.596 100.209,108.263 101.5,108.5C 100.329,113.818 100.329,119.151 101.5,124.5C 100.038,125.471 98.7046,125.138 97.5,123.5C 97.5,122.833 97.5,122.167 97.5,121.5C 98.1667,121.5 98.5,121.167 98.5,120.5C 99.8333,116.833 99.8333,113.167 98.5,109.5 Z"/></g>
<g><path style="opacity:1" fill="#4d4762" d="M 95.5,105.5 C 97.0174,105.511 98.1841,106.177 99,107.5C 100.356,106.62 101.856,106.286 103.5,106.5C 103.5,106.833 103.5,107.167 103.5,107.5C 103.678,108.695 104.011,109.862 104.5,111C 103.244,112.479 102.244,114.145 101.5,116C 101.999,118.005 103.166,119.505 105,120.5C 107.632,112.949 109.132,112.949 109.5,120.5C 108.209,120.263 107.209,120.596 106.5,121.5C 104.78,122.308 103.113,123.308 101.5,124.5C 100.329,119.151 100.329,113.818 101.5,108.5C 100.209,108.263 99.209,108.596 98.5,109.5C 97.5,108.833 96.5,108.167 95.5,107.5C 95.5,106.833 95.5,106.167 95.5,105.5 Z"/></g>
<g><path style="opacity:1" fill="#17243e" d="M 28.5,95.5 C 28.8333,95.5 29.1667,95.5 29.5,95.5C 29.8333,95.5 30.1667,95.5 30.5,95.5C 29.0212,115.309 35.0212,132.309 48.5,146.5C 48.7329,148.062 49.3995,149.395 50.5,150.5C 47.9038,148.247 45.2371,145.914 42.5,143.5C 39.6709,138.856 37.0042,133.856 34.5,128.5C 33.675,127.614 32.675,127.281 31.5,127.5C 29.8494,116.919 28.8494,106.253 28.5,95.5 Z"/></g>
<g><path style="opacity:1" fill="#737679" d="M 35.5,121.5 C 38.0698,126.311 40.4032,131.311 42.5,136.5C 38.8478,132.192 36.5144,127.192 35.5,121.5 Z"/></g>
<g><path style="opacity:1" fill="#fbfbfb" d="M 195.5,79.5 C 196.833,79.5 198.167,79.5 199.5,79.5C 199.5,119.5 199.5,159.5 199.5,199.5C 154.167,199.5 108.833,199.5 63.5,199.5C 63.5,198.167 63.5,196.833 63.5,195.5C 68.0179,196.037 72.6846,196.037 77.5,195.5C 78.1667,195.5 78.8333,195.5 79.5,195.5C 83.5667,197.054 87.9,197.72 92.5,197.5C 114.539,198.861 134.873,193.694 153.5,182C 188.298,156.547 202.298,122.38 195.5,79.5 Z"/></g>
<g><path style="opacity:1" fill="#7c7b7b" d="M 133.5,126.5 C 132.167,129.833 129.833,132.167 126.5,133.5C 128.5,130.833 130.833,128.5 133.5,126.5 Z"/></g>
<g><path style="opacity:1" fill="#73746f" d="M 164.5,125.5 C 162.416,129.336 160.083,133.003 157.5,136.5C 159.654,131.521 161.821,126.521 164,121.5C 164.49,122.793 164.657,124.127 164.5,125.5 Z"/></g>
<g><path style="opacity:1" fill="#11223c" d="M 8.5,66.5 C 9.04309,66.56 9.37642,66.8933 9.5,67.5C 8.16161,73.5412 6.66161,79.5412 5,85.5C 4.17639,94.3433 4.34305,103.01 5.5,111.5C 5.44421,118.055 6.61088,124.388 9,130.5C 13.021,140.062 17.521,149.395 22.5,158.5C 17.7375,152.64 13.7375,146.307 10.5,139.5C 4.72523,126.828 2.05857,113.494 2.5,99.5C 2.25389,87.9654 4.25389,76.9654 8.5,66.5 Z"/></g>
<g><path style="opacity:1" fill="#aeadab" d="M 125.5,56.5 C 126.167,57.8333 126.833,59.1667 127.5,60.5C 126.839,62.6548 127.505,64.6548 129.5,66.5C 130.183,66.1373 130.85,65.8039 131.5,65.5C 131.5,66.1667 131.833,66.5 132.5,66.5C 130.969,67.9245 131.302,68.5912 133.5,68.5C 133.5,68.8333 133.5,69.1667 133.5,69.5C 132.761,69.369 132.094,69.5357 131.5,70C 136.978,76.7943 140.978,84.2943 143.5,92.5C 143.833,93.1667 144.167,93.8333 144.5,94.5C 143.642,100.017 142.809,105.683 142,111.5C 140.568,117.399 137.735,122.399 133.5,126.5C 130.833,128.5 128.5,130.833 126.5,133.5C 123.921,136.135 120.921,138.301 117.5,140C 111.474,141.438 105.474,142.938 99.5,144.5C 101.396,145.466 103.396,145.799 105.5,145.5C 103.393,146.468 101.059,146.802 98.5,146.5C 98.7373,145.209 98.404,144.209 97.5,143.5C 92.418,142.763 87.418,141.596 82.5,140C 78.6155,137.275 74.6155,134.775 70.5,132.5C 66.6851,128.353 63.6851,123.686 61.5,118.5C 61.1455,115.933 60.4788,113.433 59.5,111C 59.5699,110.235 59.9033,109.735 60.5,109.5C 67.9133,132.215 83.58,142.382 107.5,140C 131.911,133.029 142.744,116.863 140,91.5C 132.84,68.8561 117.34,58.1894 93.5,59.5C 98.0679,58.5 103.401,58.1666 109.5,58.5C 112.041,59.1032 114.374,59.1032 116.5,58.5C 117.609,58.4431 118.609,58.1098 119.5,57.5C 119.5,58.1667 119.833,58.5 120.5,58.5C 120.389,59.1174 120.056,59.6174 119.5,60C 121.441,60.3036 123.107,61.1369 124.5,62.5C 125.466,60.604 125.799,58.604 125.5,56.5 Z"/></g>
<g><path style="opacity:1" fill="#727052" d="M 93.5,129.5 C 96.2469,129.187 98.9135,129.52 101.5,130.5C 99.9547,131.452 98.288,131.785 96.5,131.5C 96.6495,132.552 96.4828,133.552 96,134.5C 94.5619,133.1 93.7286,131.433 93.5,129.5 Z"/></g>
<g><path style="opacity:1" fill="#726f54" d="M 79.5,124.5 C 83.2842,126.147 87.2842,127.314 91.5,128C 92.6034,129.68 92.2701,131.18 90.5,132.5C 87.9429,130.925 85.4429,129.258 83,127.5C 80.3422,128.694 79.1756,127.694 79.5,124.5 Z"/></g>
<g><path style="opacity:1" fill="#727156" d="M 115.5,125.5 C 116.833,125.5 118.167,125.5 119.5,125.5C 119.5,126.5 119.5,127.5 119.5,128.5C 115.875,129.183 112.875,130.35 110.5,132C 107.095,133.102 104.428,132.268 102.5,129.5C 106.467,128.528 110.467,127.695 114.5,127C 115.056,126.617 115.389,126.117 115.5,125.5 Z"/></g>
<g><path style="opacity:1" fill="#2d283d" d="M 97.5,121.5 C 97.5,122.167 97.5,122.833 97.5,123.5C 95.2228,122.551 93.2228,121.218 91.5,119.5C 91.238,118.022 91.5713,116.689 92.5,115.5C 94.0691,116.714 94.9024,118.381 95,120.5C 95.6708,121.252 96.5041,121.586 97.5,121.5 Z"/></g>
<g><path style="opacity:1" fill="#793e2f" d="M 79.5,116.5 C 79.8212,118.048 80.8212,118.715 82.5,118.5C 80.0343,121.391 77.0343,123.224 73.5,124C 72.5494,123.282 72.3828,122.449 73,121.5C 75.3279,120.001 77.4946,118.334 79.5,116.5 Z"/></g>
<g><path style="opacity:1" fill="#88382a" d="M 117.5,109.5 C 118.544,114.73 121.711,118.397 127,120.5C 127.483,121.448 127.649,122.448 127.5,123.5C 123.979,123.17 120.979,121.67 118.5,119C 116.153,118.666 113.819,118.833 111.5,119.5C 111.935,117.297 111.935,115.297 111.5,113.5C 112.5,113.5 113.5,113.5 114.5,113.5C 114.5,114.833 114.5,116.167 114.5,117.5C 115.833,117.5 117.167,117.5 118.5,117.5C 118.599,114.763 118.265,112.096 117.5,109.5 Z"/></g>
<g><path style="opacity:1" fill="#6c6782" d="M 98.5,109.5 C 99.8333,113.167 99.8333,116.833 98.5,120.5C 97.5543,118.868 96.5543,117.201 95.5,115.5C 97.5589,114.049 98.5589,112.049 98.5,109.5 Z"/></g>
<g><path style="opacity:1" fill="#b9c0c7" d="M 30.5,91.5 C 31.1177,96.7445 31.7843,101.411 32.5,105.5C 33.4919,110.707 34.4919,116.04 35.5,121.5C 36.5144,127.192 38.8478,132.192 42.5,136.5C 43.9063,136.973 44.573,137.973 44.5,139.5C 45.0798,141.749 46.4131,143.415 48.5,144.5C 48.5,145.167 48.5,145.833 48.5,146.5C 35.0212,132.309 29.0212,115.309 30.5,95.5C 30.5,94.1667 30.5,92.8333 30.5,91.5 Z"/></g>
<g><path style="opacity:1" fill="#fcfcfc" d="M -0.5,137.5 C 4.29364,136.627 6.62697,138.627 6.5,143.5C 7.83333,143.5 9.16667,143.5 10.5,143.5C 10.5,142.167 10.5,140.833 10.5,139.5C 13.7375,146.307 17.7375,152.64 22.5,158.5C 22.5,159.167 22.8333,159.5 23.5,159.5C 26.2615,163.439 29.2615,167.272 32.5,171C 36.12,174.467 40.12,177.3 44.5,179.5C 54.2959,187.231 65.2959,192.564 77.5,195.5C 72.6846,196.037 68.0179,196.037 63.5,195.5C 63.5,196.833 63.5,198.167 63.5,199.5C 42.1667,199.5 20.8333,199.5 -0.5,199.5C -0.5,178.833 -0.5,158.167 -0.5,137.5 Z"/></g>
<g><path style="opacity:1" fill="#232323" d="M 57.5,137.5 C 57.67,138.822 57.3366,139.989 56.5,141C 58.0187,140.669 59.352,140.836 60.5,141.5C 60.0919,142.643 59.4252,143.643 58.5,144.5C 57.3132,143.347 56.3132,143.347 55.5,144.5C 54.8359,143.352 54.6692,142.019 55,140.5C 53.6081,142.842 52.7748,142.842 52.5,140.5C 53.922,139.075 55.5887,138.075 57.5,137.5 Z"/></g>
<g><path style="opacity:1" fill="#0f1f37" d="M 163.5,131.5 C 161.59,135.317 160.257,139.317 159.5,143.5C 157.053,143.615 155.053,144.615 153.5,146.5C 156.588,141.32 159.922,136.32 163.5,131.5 Z"/></g>
<g><path style="opacity:1" fill="#595e65" d="M 44.5,139.5 C 45.1667,139.833 45.8333,140.167 46.5,140.5C 47.6005,141.605 48.2671,142.938 48.5,144.5C 46.4131,143.415 45.0798,141.749 44.5,139.5 Z"/></g>
<g><path style="opacity:1" fill="#313132" d="M 141.5,147.5 C 137.72,149.072 135.72,147.738 135.5,143.5C 137.301,141.862 138.967,140.029 140.5,138C 141.167,137.333 141.833,137.333 142.5,138C 141.549,138.718 141.383,139.551 142,140.5C 143.113,139.289 144.28,139.289 145.5,140.5C 146.429,142.322 145.762,143.655 143.5,144.5C 141.263,142.087 138.93,142.087 136.5,144.5C 136.833,145.5 137.5,146.167 138.5,146.5C 140.367,143.771 141.367,144.104 141.5,147.5 Z"/></g>
<g><path style="opacity:1" fill="#aaafb7" d="M 164.5,125.5 C 164.5,126.167 164.5,126.833 164.5,127.5C 163.766,128.708 163.433,130.041 163.5,131.5C 159.922,136.32 156.588,141.32 153.5,146.5C 151.5,148.167 149.5,149.833 147.5,151.5C 147.062,151.565 146.728,151.399 146.5,151C 149.118,148.894 151.118,146.394 152.5,143.5C 153.786,140.883 155.453,138.55 157.5,136.5C 160.083,133.003 162.416,129.336 164.5,125.5 Z"/></g>
<g><path style="opacity:1" fill="#414041" d="M 123.5,143.5 C 124.905,145.453 124.239,146.453 121.5,146.5C 120.5,146.167 119.5,145.833 118.5,145.5C 119.919,143.873 119.586,143.373 117.5,144C 116.813,146.232 116.479,148.398 116.5,150.5C 115.833,149.5 115.167,148.5 114.5,147.5C 113.5,148.833 112.5,148.833 111.5,147.5C 110.117,150.076 109.283,149.742 109,146.5C 108.787,153.794 107.787,154.128 106,147.5C 105.667,149.167 105.333,150.833 105,152.5C 103.992,152.018 102.825,151.852 101.5,152C 101.957,151.586 102.291,151.086 102.5,150.5C 99.2483,146.365 97.415,147.031 97,152.5C 96.2904,151.027 95.1238,150.36 93.5,150.5C 93.7135,148.856 93.3802,147.356 92.5,146C 94.744,145.95 96.4107,145.117 97.5,143.5C 98.404,144.209 98.7373,145.209 98.5,146.5C 101.059,146.802 103.393,146.468 105.5,145.5C 111.759,144.79 117.592,142.79 123,139.5C 123.49,140.793 123.657,142.127 123.5,143.5 Z"/></g>
<g><path style="opacity:1" fill="#1c1d1d" d="M 134.5,145.5 C 134.703,147.044 135.37,148.378 136.5,149.5C 135.349,150.731 134.183,150.731 133,149.5C 133.077,150.738 132.911,151.738 132.5,152.5C 130.738,151.312 129.738,149.645 129.5,147.5C 130.167,147.5 130.833,147.5 131.5,147.5C 131.897,148.525 132.563,148.692 133.5,148C 132.117,146.539 132.451,145.706 134.5,145.5 Z"/></g>
<g><path style="opacity:1" fill="#b3b3b1" d="M 135.5,143.5 C 135.72,147.738 137.72,149.072 141.5,147.5C 138.624,150.079 135.291,152.079 131.5,153.5C 130.448,153.649 129.448,153.483 128.5,153C 127.652,151.812 127.652,150.312 128.5,148.5C 128.5,147.833 128.833,147.5 129.5,147.5C 129.738,149.645 130.738,151.312 132.5,152.5C 132.911,151.738 133.077,150.738 133,149.5C 134.183,150.731 135.349,150.731 136.5,149.5C 135.37,148.378 134.703,147.044 134.5,145.5C 134.328,144.508 134.662,143.842 135.5,143.5 Z"/></g>
<g><path style="opacity:1" fill="#838188" d="M 152.5,143.5 C 151.118,146.394 149.118,148.894 146.5,151C 146.728,151.399 147.062,151.565 147.5,151.5C 145.54,153.156 143.54,154.823 141.5,156.5C 141.158,155.662 140.492,155.328 139.5,155.5C 143.807,151.528 148.141,147.528 152.5,143.5 Z"/></g>
<g><path style="opacity:1" fill="#2b2b2e" d="M 128.5,148.5 C 127.652,150.312 127.652,151.812 128.5,153C 129.448,153.483 130.448,153.649 131.5,153.5C 131.5,153.833 131.5,154.167 131.5,154.5C 130.193,155.153 128.86,155.82 127.5,156.5C 126.684,154.713 125.684,153.046 124.5,151.5C 125.852,150.476 127.185,149.476 128.5,148.5 Z"/></g>
<g><path style="opacity:1" fill="#193358" d="M 153.5,146.5 C 151.934,149.412 149.934,152.079 147.5,154.5C 148.887,154.807 150.554,154.807 152.5,154.5C 146.63,156.988 144.964,161.321 147.5,167.5C 150.555,172.597 154.555,173.597 159.5,170.5C 159.369,171.376 159.702,172.043 160.5,172.5C 161.417,171.873 162.417,171.539 163.5,171.5C 162.5,173.167 161.167,174.5 159.5,175.5C 156.808,173.728 153.641,172.728 150,172.5C 149.098,172.743 148.265,173.077 147.5,173.5C 146.345,170.525 144.678,167.858 142.5,165.5C 143.5,165.5 144.5,165.5 145.5,165.5C 145.628,163.345 145.128,161.345 144,159.5C 137.947,160.612 132.447,162.946 127.5,166.5C 125.621,167.341 123.621,167.675 121.5,167.5C 124.591,166.023 127.591,164.356 130.5,162.5C 134.62,161.274 138.287,159.274 141.5,156.5C 143.54,154.823 145.54,153.156 147.5,151.5C 149.5,149.833 151.5,148.167 153.5,146.5 Z"/></g>
<g><path style="opacity:1" fill="#ddeff4" d="M 152.5,154.5 C 154.677,154.586 156.677,155.253 158.5,156.5C 163.431,160.875 163.765,165.541 159.5,170.5C 154.555,173.597 150.555,172.597 147.5,167.5C 144.964,161.321 146.63,156.988 152.5,154.5 Z"/></g>
<g><path style="opacity:1" fill="#193a6d" d="M 42.5,143.5 C 45.2371,145.914 47.9038,148.247 50.5,150.5C 56.582,155.257 62.9153,159.59 69.5,163.5C 71.7891,165.651 74.4558,167.318 77.5,168.5C 77.3184,170.591 77.6518,172.591 78.5,174.5C 75.7448,179.828 73.7448,185.494 72.5,191.5C 68.6062,190.058 64.6062,188.891 60.5,188C 55.2256,184.853 49.8923,182.02 44.5,179.5C 40.12,177.3 36.12,174.467 32.5,171C 29.2615,167.272 26.2615,163.439 23.5,159.5C 25.1667,159.5 26.8333,159.5 28.5,159.5C 28.3505,160.552 28.5172,161.552 29,162.5C 30.8492,164.047 32.3492,165.881 33.5,168C 34.7494,168.74 35.7494,168.573 36.5,167.5C 37.4584,167.953 38.2917,168.619 39,169.5C 40.6851,167.983 42.1851,166.316 43.5,164.5C 44.1667,167.833 44.8333,171.167 45.5,174.5C 46.1667,174.833 46.8333,175.167 47.5,175.5C 48.4742,173.257 48.8076,170.924 48.5,168.5C 53.3247,168.512 55.4914,166.179 55,161.5C 52.6294,158.794 49.9628,156.461 47,154.5C 45.9609,155.71 44.7942,156.71 43.5,157.5C 43.59,155.304 43.9233,153.137 44.5,151C 43.6781,148.528 43.0114,146.028 42.5,143.5 Z"/></g>
<g><path style="opacity:1" fill="#ebebea" d="M 70.5,132.5 C 74.6155,134.775 78.6155,137.275 82.5,140C 87.418,141.596 92.418,142.763 97.5,143.5C 96.4107,145.117 94.744,145.95 92.5,146C 93.3802,147.356 93.7135,148.856 93.5,150.5C 95.1238,150.36 96.2904,151.027 97,152.5C 97.415,147.031 99.2483,146.365 102.5,150.5C 102.291,151.086 101.957,151.586 101.5,152C 102.825,151.852 103.992,152.018 105,152.5C 105.333,150.833 105.667,149.167 106,147.5C 107.787,154.128 108.787,153.794 109,146.5C 109.283,149.742 110.117,150.076 111.5,147.5C 112.5,148.833 113.5,148.833 114.5,147.5C 115.167,148.5 115.833,149.5 116.5,150.5C 116.479,148.398 116.813,146.232 117.5,144C 119.586,143.373 119.919,143.873 118.5,145.5C 119.5,145.833 120.5,146.167 121.5,146.5C 124.239,146.453 124.905,145.453 123.5,143.5C 127.483,142.572 130.15,143.905 131.5,147.5C 130.833,147.5 130.167,147.5 129.5,147.5C 128.833,147.5 128.5,147.833 128.5,148.5C 127.185,149.476 125.852,150.476 124.5,151.5C 125.684,153.046 126.684,154.713 127.5,156.5C 128.86,155.82 130.193,155.153 131.5,154.5C 131.157,156.483 131.824,157.817 133.5,158.5C 134.779,159.715 135.779,159.382 136.5,157.5C 138.027,157.573 139.027,156.906 139.5,155.5C 140.492,155.328 141.158,155.662 141.5,156.5C 138.287,159.274 134.62,161.274 130.5,162.5C 131.463,161.637 131.463,160.97 130.5,160.5C 125.687,162.771 120.687,164.438 115.5,165.5C 106.86,167.558 98.1933,167.891 89.5,166.5C 82.993,165.441 76.6596,163.775 70.5,161.5C 62.6198,156.629 55.2864,150.963 48.5,144.5C 48.2671,142.938 47.6005,141.605 46.5,140.5C 47.4822,139.859 48.4822,139.193 49.5,138.5C 50.2652,139.612 51.2652,140.279 52.5,140.5C 52.7748,142.842 53.6081,142.842 55,140.5C 54.6692,142.019 54.8359,143.352 55.5,144.5C 56.6836,148.425 58.6836,149.091 61.5,146.5C 59.81,150.187 60.31,150.854 63,148.5C 64.2065,153.415 65.7065,153.249 67.5,148C 66.2395,147.364 64.9061,146.198 63.5,144.5C 63.1898,142.856 62.1898,141.856 60.5,141.5C 59.352,140.836 58.0187,140.669 56.5,141C 57.3366,139.989 57.67,138.822 57.5,137.5C 58.1515,136.909 58.8182,136.243 59.5,135.5C 60.6956,135.846 60.6956,136.346 59.5,137C 60.8721,137.402 62.2054,137.902 63.5,138.5C 64.9917,136.844 66.6584,135.344 68.5,134C 68.1667,133.667 67.8333,133.333 67.5,133C 68.7688,133.109 69.7688,132.942 70.5,132.5 Z"/></g>
<g><path style="opacity:1" fill="#252726" d="M 108.5,155.5 C 113.895,154.555 115.561,156.555 113.5,161.5C 112.264,162.246 110.93,162.579 109.5,162.5C 109.326,160.139 108.993,157.806 108.5,155.5 Z"/></g>
<g><path style="opacity:1" fill="#4c4e4a" d="M 136.5,157.5 C 135.779,159.382 134.779,159.715 133.5,158.5C 134.391,157.89 135.391,157.557 136.5,157.5 Z"/></g>
<g><path style="opacity:1" fill="#b8baba" d="M 110.5,156.5 C 113.569,156.963 114.069,158.296 112,160.5C 111.209,159.255 110.709,157.922 110.5,156.5 Z"/></g>
<g><path style="opacity:1" fill="#2a2b2b" d="M 96.5,156.5 C 100.473,157.075 101.473,159.242 99.5,163C 96.4834,163.822 94.8167,162.655 94.5,159.5C 94.9424,158.261 95.6091,157.261 96.5,156.5 Z"/></g>
<g><path style="opacity:1" fill="#eeeeec" d="M 96.5,158.5 C 98.4646,158.948 98.7979,159.948 97.5,161.5C 96.6143,160.675 96.281,159.675 96.5,158.5 Z"/></g>
<g><path style="opacity:1" fill="#464e52" d="M 139.5,155.5 C 139.027,156.906 138.027,157.573 136.5,157.5C 136.973,156.094 137.973,155.427 139.5,155.5 Z"/></g>
<g><path style="opacity:1" fill="#212120" d="M 101.5,156.5 C 102.873,156.343 104.207,156.51 105.5,157C 102.833,158 102.833,159 105.5,160C 104.23,160.9 103.23,162.066 102.5,163.5C 101.526,161.257 101.192,158.924 101.5,156.5 Z"/></g>
<g><path style="opacity:1" fill="#303030" d="M 70.5,150.5 C 77.9051,152.746 84.9051,155.079 91.5,157.5C 90.316,159.046 89.316,160.713 88.5,162.5C 87.5218,156.428 86.0218,156.094 84,161.5C 83.4304,158.156 82.2638,157.823 80.5,160.5C 80.1667,160.167 79.8333,159.833 79.5,159.5C 80.5965,153.373 79.5965,153.04 76.5,158.5C 76.3306,156.883 75.9972,155.216 75.5,153.5C 74.6143,154.325 74.281,155.325 74.5,156.5C 72.8333,156.5 71.1667,156.5 69.5,156.5C 69.8333,154.5 70.1667,152.5 70.5,150.5 Z"/></g>
<g><path style="opacity:1" fill="#2d2d2d" d="M 121.5,151.5 C 123.842,151.775 123.842,152.608 121.5,154C 122.738,153.923 123.738,154.089 124.5,154.5C 123.586,159.008 122.253,159.341 120.5,155.5C 119.635,154.417 118.635,154.251 117.5,155C 120.167,156 120.167,157 117.5,158C 121.223,158.434 121.39,159.268 118,160.5C 115.799,159.038 115.133,157.038 116,154.5C 118.058,153.771 119.891,152.771 121.5,151.5 Z"/></g>
<g><path style="opacity:1" fill="#1d1d1d" d="M 70.5,150.5 C 69.2876,151.23 68.2876,152.23 67.5,153.5C 66.9109,151.627 67.5776,149.96 69.5,148.5C 70.2975,148.957 70.6309,149.624 70.5,150.5 Z"/></g>
<g><path style="opacity:1" fill="#292b2d" d="M 63.5,144.5 C 64.9061,146.198 66.2395,147.364 67.5,148C 65.7065,153.249 64.2065,153.415 63,148.5C 60.31,150.854 59.81,150.187 61.5,146.5C 62.5,146.167 63.1667,145.5 63.5,144.5 Z"/></g>
<g><path style="opacity:1" fill="#6e6c6c" d="M 60.5,141.5 C 62.1898,141.856 63.1898,142.856 63.5,144.5C 63.1667,145.5 62.5,146.167 61.5,146.5C 58.6836,149.091 56.6836,148.425 55.5,144.5C 56.3132,143.347 57.3132,143.347 58.5,144.5C 59.4252,143.643 60.0919,142.643 60.5,141.5 Z"/></g>
<g><path style="opacity:1" fill="#5c5c5c" d="M 73.5,137.5 C 78.5261,140.463 83.8594,142.963 89.5,145C 87.9588,146.579 86.7922,148.413 86,150.5C 86.0464,148.687 85.8797,147.021 85.5,145.5C 84.8133,147.274 83.9799,148.941 83,150.5C 82.6667,149.833 82.3333,149.167 82,148.5C 81.1072,149.711 80.2739,149.711 79.5,148.5C 79.1744,146.49 78.8411,144.49 78.5,142.5C 76.5679,143.145 75.4012,144.479 75,146.5C 74.3164,144.521 74.8164,142.854 76.5,141.5C 74.7118,140.717 73.7118,139.384 73.5,137.5 Z"/></g>
<g><path style="opacity:1" fill="#d5e3ec" d="M 36.5,167.5 C 38.8081,164.185 41.1414,160.851 43.5,157.5C 44.7942,156.71 45.9609,155.71 47,154.5C 49.9628,156.461 52.6294,158.794 55,161.5C 55.4914,166.179 53.3247,168.512 48.5,168.5C 48.8076,170.924 48.4742,173.257 47.5,175.5C 46.8333,175.167 46.1667,174.833 45.5,174.5C 44.8333,171.167 44.1667,167.833 43.5,164.5C 42.1851,166.316 40.6851,167.983 39,169.5C 38.2917,168.619 37.4584,167.953 36.5,167.5 Z"/></g>
<g><path style="opacity:1" fill="#283a63" d="M 46.5,159.5 C 49.7967,159.632 51.4633,161.298 51.5,164.5C 47.2469,164.92 45.5802,163.254 46.5,159.5 Z"/></g>
<g><path style="opacity:1" fill="#183876" d="M 142.5,165.5 C 137.728,165.057 133.728,166.557 130.5,170C 131.377,172.253 132.377,174.419 133.5,176.5C 133.5,178.167 133.5,179.833 133.5,181.5C 131.447,181.598 129.78,180.931 128.5,179.5C 130.026,176.272 129.36,173.606 126.5,171.5C 125.737,170.732 124.737,170.232 123.5,170C 125.544,169.502 126.878,168.335 127.5,166.5C 132.447,162.946 137.947,160.612 144,159.5C 145.128,161.345 145.628,163.345 145.5,165.5C 144.5,165.5 143.5,165.5 142.5,165.5 Z"/></g>
<g><path style="opacity:1" fill="#51514e" d="M 130.5,162.5 C 126.196,163.823 121.863,165.156 117.5,166.5C 116.584,166.457 115.917,166.124 115.5,165.5C 120.687,164.438 125.687,162.771 130.5,160.5C 131.463,160.97 131.463,161.637 130.5,162.5 Z"/></g>
<g><path style="opacity:1" fill="#505451" d="M 70.5,161.5 C 76.6596,163.775 82.993,165.441 89.5,166.5C 82.7082,167.134 76.3749,165.468 70.5,161.5 Z"/></g>
<g><path style="opacity:1" fill="#1d3f73" d="M 151.5,158.5 C 156.98,158.496 159.48,161.162 159,166.5C 155.4,169.354 152.4,168.687 150,164.5C 149.252,162.16 149.752,160.16 151.5,158.5 Z"/></g>
<g><path style="opacity:1" fill="#959ba5" d="M 48.5,144.5 C 55.2864,150.963 62.6198,156.629 70.5,161.5C 76.3749,165.468 82.7082,167.134 89.5,166.5C 98.1933,167.891 106.86,167.558 115.5,165.5C 115.917,166.124 116.584,166.457 117.5,166.5C 121.863,165.156 126.196,163.823 130.5,162.5C 127.591,164.356 124.591,166.023 121.5,167.5C 103.673,172.103 86.3401,170.77 69.5,163.5C 62.9153,159.59 56.582,155.257 50.5,150.5C 49.3995,149.395 48.7329,148.062 48.5,146.5C 48.5,145.833 48.5,145.167 48.5,144.5 Z"/></g>
<g><path style="opacity:1" fill="#081933" d="M 69.5,163.5 C 86.3401,170.77 103.673,172.103 121.5,167.5C 118.443,169.095 115.11,170.262 111.5,171C 100.746,171.902 90.079,171.402 79.5,169.5C 79.1583,168.662 78.4916,168.328 77.5,168.5C 74.4558,167.318 71.7891,165.651 69.5,163.5 Z"/></g>
<g><path style="opacity:1" fill="#deecf6" d="M 72.5,171.5 C 73.9778,171.238 75.3112,171.571 76.5,172.5C 74.5391,177.417 72.8724,182.417 71.5,187.5C 70.5,187.5 69.5,187.5 68.5,187.5C 69.5143,182.109 70.8477,176.776 72.5,171.5 Z"/></g>
<g><path style="opacity:1" fill="#0e3d7e" d="M 77.5,168.5 C 78.4916,168.328 79.1583,168.662 79.5,169.5C 81.0188,170.41 82.6854,171.243 84.5,172C 93.1529,172.844 101.82,173.51 110.5,174C 107.964,174.186 105.631,174.686 103.5,175.5C 102.167,175.5 100.833,175.5 99.5,175.5C 100.194,180.805 100.528,186.138 100.5,191.5C 104.234,191.677 107.901,191.344 111.5,190.5C 115.139,191.404 118.805,191.571 122.5,191C 119.576,191.988 116.576,192.654 113.5,193C 102.172,193.5 90.8382,193.667 79.5,193.5C 77.7211,191.656 75.3878,190.99 72.5,191.5C 73.7448,185.494 75.7448,179.828 78.5,174.5C 77.6518,172.591 77.3184,170.591 77.5,168.5 Z"/></g>
<g><path style="opacity:1" fill="#dfecf3" d="M 126.5,171.5 C 129.36,173.606 130.026,176.272 128.5,179.5C 127.957,179.56 127.624,179.893 127.5,180.5C 129.909,181.701 131.909,183.367 133.5,185.5C 131.926,186.631 130.259,186.798 128.5,186C 126.691,183.762 124.358,182.595 121.5,182.5C 121.519,184.06 121.852,185.56 122.5,187C 121.991,188.169 121.158,189.002 120,189.5C 118.169,184.165 116.669,178.831 115.5,173.5C 119.101,172.537 122.767,171.87 126.5,171.5 Z"/></g>
<g><path style="opacity:1" fill="#1f3a5b" d="M 119.5,175.5 C 126.166,175.179 126.833,176.512 121.5,179.5C 119.889,178.68 119.222,177.346 119.5,175.5 Z"/></g>
<g><path style="opacity:1" fill="#dce9f1" d="M 142.5,165.5 C 144.678,167.858 146.345,170.525 147.5,173.5C 147.643,175.262 147.309,176.929 146.5,178.5C 144.79,179.887 143.123,181.221 141.5,182.5C 140.609,183.11 139.609,183.443 138.5,183.5C 136.588,181.343 134.921,179.009 133.5,176.5C 132.377,174.419 131.377,172.253 130.5,170C 133.728,166.557 137.728,165.057 142.5,165.5 Z"/></g>
<g><path style="opacity:1" fill="#1b3b6f" d="M 135.5,169.5 C 142.211,168.762 144.545,171.595 142.5,178C 141.24,179.113 140.073,179.28 139,178.5C 137.259,175.691 136.092,172.691 135.5,169.5 Z"/></g>
<g><path style="opacity:1" fill="#d2eaf3" d="M 58.5,166.5 C 61.6492,166.211 64.6492,166.711 67.5,168C 69.229,169.789 69.8957,171.956 69.5,174.5C 68.1667,174.5 66.8333,174.5 65.5,174.5C 65.8386,169.759 63.8386,168.426 59.5,170.5C 57.6048,172.867 57.1048,175.534 58,178.5C 59.7959,179.767 61.6293,179.767 63.5,178.5C 64.5,178.833 65.1667,179.5 65.5,180.5C 57.3378,184.487 53.5044,181.82 54,172.5C 54.8041,169.854 56.3041,167.854 58.5,166.5 Z"/></g>
<g><path style="opacity:1" fill="#123b74" d="M 159.5,175.5 C 154.132,179.517 148.465,183.184 142.5,186.5C 141.571,185.311 141.238,183.978 141.5,182.5C 143.123,181.221 144.79,179.887 146.5,178.5C 147.309,176.929 147.643,175.262 147.5,173.5C 148.265,173.077 149.098,172.743 150,172.5C 153.641,172.728 156.808,173.728 159.5,175.5 Z"/></g>
<g><path style="opacity:1" fill="#d4e6fa" d="M 84.5,183.5 C 86.5,183.5 88.5,183.5 90.5,183.5C 90.5,184.5 90.5,185.5 90.5,186.5C 88.5,186.5 86.5,186.5 84.5,186.5C 84.5,185.5 84.5,184.5 84.5,183.5 Z"/></g>
<g><path style="opacity:1" fill="#dfeff7" d="M 103.5,175.5 C 112.328,174.839 115.495,178.839 113,187.5C 112.487,188.527 111.987,189.527 111.5,190.5C 107.901,191.344 104.234,191.677 100.5,191.5C 100.528,186.138 100.194,180.805 99.5,175.5C 100.833,175.5 102.167,175.5 103.5,175.5 Z"/></g>
<g><path style="opacity:1" fill="#233c6f" d="M 103.5,178.5 C 105.467,178.261 107.301,178.594 109,179.5C 109.498,182.482 109.665,185.482 109.5,188.5C 107.5,188.5 105.5,188.5 103.5,188.5C 103.5,185.167 103.5,181.833 103.5,178.5 Z"/></g>
<g><path style="opacity:1" fill="#15243f" d="M 44.5,179.5 C 49.8923,182.02 55.2256,184.853 60.5,188C 64.6062,188.891 68.6062,190.058 72.5,191.5C 75.3878,190.99 77.7211,191.656 79.5,193.5C 80.9516,194.302 82.6183,194.802 84.5,195C 82.8659,195.494 81.1992,195.66 79.5,195.5C 78.8333,195.5 78.1667,195.5 77.5,195.5C 65.2959,192.564 54.2959,187.231 44.5,179.5 Z"/></g>
<g><path style="opacity:1" fill="#1e3f71" d="M 127.5,166.5 C 126.878,168.335 125.544,169.502 123.5,170C 124.737,170.232 125.737,170.732 126.5,171.5C 122.767,171.87 119.101,172.537 115.5,173.5C 116.669,178.831 118.169,184.165 120,189.5C 121.158,189.002 121.991,188.169 122.5,187C 121.852,185.56 121.519,184.06 121.5,182.5C 124.358,182.595 126.691,183.762 128.5,186C 130.259,186.798 131.926,186.631 133.5,185.5C 131.909,183.367 129.909,181.701 127.5,180.5C 127.624,179.893 127.957,179.56 128.5,179.5C 129.78,180.931 131.447,181.598 133.5,181.5C 133.5,179.833 133.5,178.167 133.5,176.5C 134.921,179.009 136.588,181.343 138.5,183.5C 138.229,185.312 137.562,186.978 136.5,188.5C 120.154,194.773 103.154,197.273 85.5,196C 88.0356,196.186 90.369,196.686 92.5,197.5C 87.9,197.72 83.5667,197.054 79.5,195.5C 81.1992,195.66 82.8659,195.494 84.5,195C 82.6183,194.802 80.9516,194.302 79.5,193.5C 90.8382,193.667 102.172,193.5 113.5,193C 116.576,192.654 119.576,191.988 122.5,191C 118.805,191.571 115.139,191.404 111.5,190.5C 111.987,189.527 112.487,188.527 113,187.5C 115.495,178.839 112.328,174.839 103.5,175.5C 105.631,174.686 107.964,174.186 110.5,174C 101.82,173.51 93.1529,172.844 84.5,172C 82.6854,171.243 81.0188,170.41 79.5,169.5C 90.079,171.402 100.746,171.902 111.5,171C 115.11,170.262 118.443,169.095 121.5,167.5C 123.621,167.675 125.621,167.341 127.5,166.5 Z"/></g>
</svg>
