<?xml version="1.0" encoding="UTF-8"?>
<!DOCTYPE svg PUBLIC "-//W3C//DTD SVG 1.1//EN" "http://www.w3.org/Graphics/SVG/1.1/DTD/svg11.dtd">
<svg xmlns="http://www.w3.org/2000/svg" version="1.1" width="118px" height="157px" style="shape-rendering:geometricPrecision; text-rendering:geometricPrecision; image-rendering:optimizeQuality; fill-rule:evenodd; clip-rule:evenodd" xmlns:xlink="http://www.w3.org/1999/xlink">
<g><path style="opacity:1" fill="#fdfcfd" d="M -0.5,-0.5 C 38.8333,-0.5 78.1667,-0.5 117.5,-0.5C 117.5,51.8333 117.5,104.167 117.5,156.5C 78.1667,156.5 38.8333,156.5 -0.5,156.5C -0.5,104.167 -0.5,51.8333 -0.5,-0.5 Z"/></g>
<g><path style="opacity:1" fill="#512084" d="M 55.5,34.5 C 58.0163,34.7553 60.3496,35.5886 62.5,37C 74.8333,44.1667 87.1667,51.3333 99.5,58.5C 100.666,75.8237 100.833,93.1571 100,110.5C 85.6566,118.849 71.3233,127.183 57,135.5C 42.3551,127.678 28.0217,119.345 14,110.5C 13.167,93.1571 13.3337,75.8237 14.5,58.5C 20.9145,55.2111 27.0811,51.5444 33,47.5C 33.3333,63.5 33.6667,79.5 34,95.5C 39.913,110.706 50.7463,116.206 66.5,112C 79.7568,105.58 84.5902,95.0798 81,80.5C 73.3143,65.9942 61.8143,61.6608 46.5,67.5C 45.3347,58.5185 45.168,49.5185 46,40.5C 49.1467,38.3503 52.3133,36.3503 55.5,34.5 Z"/></g>
<g><path style="opacity:1" fill="#542487" d="M 69.5,85.5 C 69.7678,87.099 69.4345,88.4324 68.5,89.5C 67.5,89.5 66.5,89.5 65.5,89.5C 64.063,88.2745 62.3964,87.2745 60.5,86.5C 57.9504,87.9416 55.2837,89.1083 52.5,90C 52.1084,92.3543 52.1084,94.8543 52.5,97.5C 52.2172,98.2891 51.7172,98.9558 51,99.5C 43.518,92.149 43.6847,84.9824 51.5,78C 60.0012,74.7556 66.0012,77.2556 69.5,85.5 Z"/></g>
<g><path style="opacity:1" fill="#9273b2" d="M 69.5,85.5 C 70.8828,88.8619 70.5495,92.1953 68.5,95.5C 68.1667,95 67.8333,94.5 67.5,94C 68.1476,92.5603 68.4809,91.0603 68.5,89.5C 69.4345,88.4324 69.7678,87.099 69.5,85.5 Z"/></g>
<g><path style="opacity:1" fill="#dacfe5" d="M 65.5,89.5 C 64.8333,89.5 64.5,89.8333 64.5,90.5C 60.6881,87.575 57.5215,88.2417 55,92.5C 54.5065,94.1341 54.3398,95.8008 54.5,97.5C 53.8333,97.5 53.1667,97.5 52.5,97.5C 52.1084,94.8543 52.1084,92.3543 52.5,90C 55.2837,89.1083 57.9504,87.9416 60.5,86.5C 62.3964,87.2745 64.063,88.2745 65.5,89.5 Z"/></g>
<g><path style="opacity:1" fill="#542486" d="M 64.5,90.5 C 68.012,96.0166 66.512,99.6833 60,101.5C 57.4547,100.993 55.6214,99.6593 54.5,97.5C 54.3398,95.8008 54.5065,94.1341 55,92.5C 57.5215,88.2417 60.6881,87.575 64.5,90.5 Z"/></g>
</svg>
