<?xml version="1.0" encoding="UTF-8"?>
<!DOCTYPE svg PUBLIC "-//W3C//DTD SVG 1.1//EN" "http://www.w3.org/Graphics/SVG/1.1/DTD/svg11.dtd">
<svg xmlns="http://www.w3.org/2000/svg" version="1.1" width="314px" height="304px" style="shape-rendering:geometricPrecision; text-rendering:geometricPrecision; image-rendering:optimizeQuality; fill-rule:evenodd; clip-rule:evenodd" xmlns:xlink="http://www.w3.org/1999/xlink">
<g><path style="opacity:0.996" fill="#0e0e0e" d="M 223.5,85.5 C 223.5,86.8333 223.5,88.1667 223.5,89.5C 222.167,89.5 220.833,89.5 219.5,89.5C 204.644,82.9634 189.144,79.2967 173,78.5C 138.142,80.3834 111.475,96.05 93,125.5C 71.5651,171.327 79.0651,211.827 115.5,247C 148.111,272.117 183.111,275.951 220.5,258.5C 223.281,257.177 225.947,257.344 228.5,259C 227.748,259.671 227.414,260.504 227.5,261.5C 194.24,285.658 158.24,290.658 119.5,276.5C 118.713,274.896 117.38,274.229 115.5,274.5C 100.287,268.131 87.1205,258.798 76,246.5C 71.41,248.863 66.5767,250.53 61.5,251.5C 59.6203,251.229 58.287,251.896 57.5,253.5C 47.1144,256.962 36.7811,260.629 26.5,264.5C 24.3035,261.44 22.6369,258.107 21.5,254.5C 21.8757,252.617 22.8757,251.117 24.5,250C 37.5985,242.055 50.2652,233.555 62.5,224.5C 43.3878,181.211 48.2211,140.877 77,103.5C 98.0074,80.4139 124.174,67.5805 155.5,65C 159.972,57.22 164.306,49.3866 168.5,41.5C 170.796,40.267 172.13,38.267 172.5,35.5C 174.628,29.9099 177.295,24.5765 180.5,19.5C 185.12,18.5067 189.786,18.1734 194.5,18.5C 191.36,34.8918 187.36,51.0585 182.5,67C 197.183,71.0098 210.849,77.1764 223.5,85.5 Z"/></g>
<g><path style="opacity:0.624" fill="#575757" d="M 172.5,35.5 C 172.13,38.267 170.796,40.267 168.5,41.5C 169.351,39.1184 170.684,37.1184 172.5,35.5 Z"/></g>
<g><path style="opacity:0.935" fill="#393939" d="M 223.5,85.5 C 234.235,92.5667 242.901,101.567 249.5,112.5C 240.615,103.27 230.615,95.6029 219.5,89.5C 220.833,89.5 222.167,89.5 223.5,89.5C 223.5,88.1667 223.5,86.8333 223.5,85.5 Z"/></g>
<g><path style="opacity:0.999" fill="#040404" d="M 150.5,108.5 C 184.394,106.188 209.227,119.855 225,149.5C 238.594,186.372 229.761,216.538 198.5,240C 163.698,258.202 132.532,253.369 105,225.5C 81.3219,190.959 83.4886,158.126 111.5,127C 122.954,117.465 135.954,111.299 150.5,108.5 Z"/></g>
<g><path style="opacity:0.561" fill="#4f504f" d="M 249.5,112.5 C 250.167,112.5 250.5,112.833 250.5,113.5C 250.167,113.167 249.833,112.833 249.5,112.5 Z"/></g>
<g><path style="opacity:0.031" fill="#c8c8c8" d="M 250.5,113.5 C 251.906,113.973 252.573,114.973 252.5,116.5C 251.094,116.027 250.427,115.027 250.5,113.5 Z"/></g>
<g><path style="opacity:0.024" fill="#d4d5d4" d="M 252.5,116.5 C 253.833,117.167 253.833,117.167 252.5,116.5 Z"/></g>
<g><path style="opacity:0.118" fill="#c1c1c1" d="M 263.5,210.5 C 263.369,209.761 263.536,209.094 264,208.5C 264.692,209.437 264.525,210.103 263.5,210.5 Z"/></g>
<g><path style="opacity:0.718" fill="#606060" d="M 263.5,210.5 C 261.264,218.307 257.931,225.641 253.5,232.5C 253.863,233.183 254.196,233.85 254.5,234.5C 253.167,233.833 251.833,233.167 250.5,232.5C 255.366,225.428 259.699,218.095 263.5,210.5 Z"/></g>
<g><path style="opacity:0.991" fill="#181818" d="M 250.5,232.5 C 251.833,233.167 253.167,233.833 254.5,234.5C 266.305,240.568 277.638,247.402 288.5,255C 287.683,256.49 286.85,257.99 286,259.5C 284.612,260.554 283.112,260.72 281.5,260C 268.639,255.491 255.806,250.991 243,246.5C 238.626,252.375 233.459,257.375 227.5,261.5C 227.414,260.504 227.748,259.671 228.5,259C 225.947,257.344 223.281,257.177 220.5,258.5C 229.661,253.349 237.995,247.016 245.5,239.5C 247.914,238.089 249.581,236.089 250.5,233.5C 250.5,233.167 250.5,232.833 250.5,232.5 Z"/></g>
<g><path style="opacity:0.522" fill="#666666" d="M 250.5,233.5 C 249.581,236.089 247.914,238.089 245.5,239.5C 246.419,236.911 248.086,234.911 250.5,233.5 Z"/></g>
<g><path style="opacity:0.016" fill="#929292" d="M 61.5,251.5 C 60.4863,252.674 59.153,253.34 57.5,253.5C 58.287,251.896 59.6203,251.229 61.5,251.5 Z"/></g>
<g><path style="opacity:0.384" fill="#858585" d="M 115.5,274.5 C 117.38,274.229 118.713,274.896 119.5,276.5C 117.847,276.34 116.514,275.674 115.5,274.5 Z"/></g>
</svg>
